<svg width="12" height="12" viewBox="0 0 12 12" fill="none" xmlns="http://www.w3.org/2000/svg">
    <defs>
        <linearGradient id="paint0_linear" x1="0.382813" y1="11.2306" x2="8.42068" y2="1.49982" gradientUnits="userSpaceOnUse">
            <stop stop-color="#B1409C"/>
            <stop offset="1" stop-color="#1698D6"/>
        </linearGradient>
    </defs>
    <path fill-rule="evenodd" clip-rule="evenodd" d="M8.08163 3.08085C8.08163 4.23008 7.15 5.16171 6.00078 5.16171C4.85155 5.16171 3.91992 4.23008 3.91992 3.08085C3.91992 1.93163 4.85155 1 6.00078 1C7.15 1 8.08163 1.93163 8.08163 3.08085ZM9.08163 3.08085C9.08163 4.78236 7.70229 6.16171 6.00078 6.16171C4.29927 6.16171 2.91992 4.78236 2.91992 3.08085C2.91992 1.37935 4.29927 0 6.00078 0C7.70229 0 9.08163 1.37935 9.08163 3.08085ZM1.93751 8.60095C2.24404 8.12939 2.80372 7.73545 4.10708 7.49619C4.66383 7.88056 5.34027 8.05525 5.97283 8.06172C6.6158 8.0683 7.31214 7.90235 7.89684 7.50534C9.29058 7.79567 9.84096 8.20011 10.1271 8.65624C10.4228 9.12773 10.559 9.82147 10.6021 11.0004H1.40318C1.45752 9.80848 1.62363 9.08383 1.93751 8.60095ZM4.39823 6.43652C5.16196 7.24537 6.78536 7.295 7.62429 6.43652C10.8706 6.98984 11.5082 8.19288 11.6035 11.0004C11.6141 11.3134 11.618 11.6463 11.618 12.0004H10.618L1.38281 12.0004L0.382812 12.0004C0.382812 11.6471 0.388362 11.3141 0.401662 11.0004C0.523341 8.13041 1.29372 6.87423 4.39823 6.43652Z" fill="url(#paint0_linear)"/>
</svg>
