<svg width="247" height="225" viewBox="0 0 247 225" fill="none" xmlns="http://www.w3.org/2000/svg">
<rect y="104.086" width="211.67" height="25.7814" rx="12.8907" transform="rotate(-29.455 0 104.086)" fill="#F2F2F2" fill-opacity="0.5"/>
<rect x="5.63672" y="160.117" width="222.039" height="25.7814" rx="12.8907" transform="rotate(-29.455 5.63672 160.117)" fill="#F2F2F2" fill-opacity="0.5"/>
<rect x="36.1855" y="202.084" width="226.589" height="25.7814" rx="12.8907" transform="rotate(-29.455 36.1855 202.084)" fill="#F2F2F2" fill-opacity="0.5"/>
<path fill-rule="evenodd" clip-rule="evenodd" d="M154.349 46.6855C149.388 50.5437 147.869 57.5556 151.052 63.1918C154.553 69.3909 162.416 71.5783 168.615 68.0774L198.683 51.097C198.623 51.1324 198.562 51.1673 198.501 51.2019L40.4171 140.478C45.5838 136.665 47.2114 129.508 43.9736 123.775C40.646 117.883 33.3767 115.615 27.3418 118.412L154.349 46.6855Z" fill="#F2F2F2" fill-opacity="0.5"/>
<path fill-rule="evenodd" clip-rule="evenodd" d="M158.947 123.885C155.479 117.744 157.594 109.969 163.662 106.421L30.1019 181.847C24.3191 185.112 22.0273 192.175 24.5876 198.141C24.7732 198.575 24.9845 199.003 25.2219 199.423C28.7228 205.622 36.5862 207.809 42.7853 204.309L56.7866 196.402C56.9642 196.301 57.1385 196.197 57.3094 196.09L224.359 101.751C224.417 101.718 224.474 101.686 224.531 101.652L176.511 128.771C170.312 132.272 162.448 130.084 158.947 123.885ZM57.3094 196.09C63.1064 192.452 65.0728 184.86 61.6722 178.838C58.1714 172.639 50.308 170.452 44.1089 173.953L30.1075 181.86C24.3289 185.123 22.0362 192.177 24.5876 198.141C24.7719 198.57 24.9813 198.994 25.2163 199.41C28.7172 205.609 36.5806 207.796 42.7797 204.296L57.3094 196.09Z" fill="#F2F2F2" fill-opacity="0.5"/>
</svg>
