<svg width="21" height="24" viewBox="0 0 21 24" fill="none" xmlns="http://www.w3.org/2000/svg">
<path d="M19.9995 19.9711L16.5482 13.8094C16.8981 13.6433 17.1079 13.2643 17.0845 12.8377L16.8279 10.6574L18.2969 9.09304C18.6233 8.76122 18.6468 8.19234 18.3203 7.78957L16.8513 6.17809L17.1543 3.97393C17.2012 3.4998 16.8747 3.02607 16.4081 2.93132L14.2862 2.50477L13.2603 0.585254C13.0504 0.134908 12.5375 -0.0545836 12.0709 0.134908H12.0475L10.0886 1.05898L8.17648 0.111121C7.96662 -0.00741224 7.70995 -0.0311995 7.47709 0.0401623C7.24382 0.111121 7.05737 0.277229 6.94074 0.490508L5.89145 2.41002L3.76947 2.78941C3.27993 2.88415 2.95344 3.3345 2.99986 3.8558L3.25653 6.03617L1.78752 7.60048C1.46103 7.9323 1.43763 8.50118 1.76412 8.90395L3.23312 10.5154L2.93004 12.7196C2.88323 13.1461 3.1399 13.5489 3.53621 13.715L0.0614542 19.9711C-0.0317718 20.1134 -0.00836613 20.3029 0.0614542 20.4452C0.15468 20.5875 0.294718 20.6823 0.457764 20.6823H4.18879L5.89106 23.692C5.98428 23.8343 6.12432 23.929 6.28736 23.929C6.45081 23.929 6.61385 23.8343 6.68367 23.692L10.0184 17.9092L13.3531 23.7629C13.4463 23.9053 13.5864 24 13.7494 24C13.9129 24 14.0759 23.9053 14.1457 23.7629L15.848 20.6819H19.579C19.7421 20.6819 19.9055 20.5871 19.9753 20.4448C20.0927 20.3029 20.0927 20.1134 19.9995 19.9711ZM6.31117 22.507L4.86517 19.9711C4.77195 19.8288 4.63191 19.734 4.46886 19.734H1.25078L4.46886 13.9513L5.79823 14.1884L6.82411 16.1079C7.03397 16.5582 7.54691 16.7477 8.01343 16.5582H8.03684L8.9929 16.1079L9.45943 16.9372L6.31117 22.507ZM7.66354 15.7051C7.64013 15.7051 7.64013 15.7051 7.64013 15.7051L6.61425 13.738C6.47421 13.5009 6.24095 13.3114 5.96127 13.2877L3.81588 12.8849L4.11897 10.7045C4.16578 10.4203 4.07255 10.1119 3.8857 9.92236L2.44011 8.31088L3.90911 6.74656C4.11897 6.53328 4.21219 6.24904 4.16578 5.9644L3.90911 3.80783C3.90911 3.80783 3.90911 3.78404 3.93252 3.76025L6.0545 3.38086C6.31117 3.33329 6.56744 3.16758 6.70748 2.90673L7.75677 0.987218L9.66889 1.93508C9.92556 2.0774 10.252 2.0774 10.5083 1.93508L12.4439 1.03439C12.4673 1.03439 12.4673 1.03439 12.4673 1.03439L13.4931 3.00148C13.6332 3.23854 13.8664 3.42804 14.1227 3.45182L16.2447 3.87838L15.9416 6.05875C15.8948 6.34298 15.9884 6.65141 16.1749 6.8409L17.6439 8.45239L16.1515 10.0167C15.9416 10.23 15.8484 10.5142 15.8948 10.7989L16.1515 12.9792L14.0529 13.3348C13.7962 13.3824 13.54 13.5481 13.3999 13.809L12.3506 15.7285L10.4385 14.7806C10.1818 14.6383 9.85534 14.6383 9.59907 14.7806L7.66354 15.7051ZM15.5921 19.734C15.4287 19.734 15.2656 19.8288 15.1958 19.9711L13.7498 22.578L10.4619 16.7953C10.4385 16.7243 10.4151 16.6767 10.3687 16.6292L9.85574 15.7051L10.0192 15.6341L11.9313 16.582C12.0713 16.653 12.211 16.6767 12.351 16.6767C12.6775 16.6767 13.004 16.511 13.167 16.2026L14.2163 14.2831L15.6155 14.0222L18.8102 19.734H15.5921Z" fill="#049EDD"/>
<path d="M14.6828 8.35788C14.6828 5.75096 12.5843 3.61816 10.0192 3.61816C7.45405 3.61816 5.35547 5.75096 5.35547 8.35788C5.35547 10.9648 7.45405 13.098 10.0192 13.098C12.5839 13.0976 14.6828 10.9648 14.6828 8.35788ZM10.0188 12.1497C7.96659 12.1497 6.28773 10.4435 6.28773 8.35788C6.28773 6.27226 7.96659 4.56603 10.0188 4.56603C12.0709 4.56603 13.7498 6.27226 13.7498 8.35788C13.7498 10.4435 12.0709 12.1497 10.0188 12.1497Z" fill="#049EDD"/>
</svg>
