<svg width="25" height="24" viewBox="0 0 25 24" fill="none" xmlns="http://www.w3.org/2000/svg">
<g clip-path="url(#clip0)">
<path d="M12.7144 24C6.10609 24 0.714355 18.6233 0.714355 12C0.714355 5.37672 6.10609 0 12.7144 0C19.3226 0 24.7144 5.39174 24.7144 12C24.7144 18.6083 19.3376 24 12.7144 24ZM12.7144 1.41176C6.87205 1.41176 2.12612 6.1577 2.12612 12C2.12612 17.8423 6.87205 22.5882 12.7144 22.5882C18.5567 22.5882 23.3026 17.8423 23.3026 12C23.3026 6.1577 18.5567 1.41176 12.7144 1.41176Z" fill="#109CD8"/>
<path d="M13.4201 4.95588C13.4201 4.56539 13.1047 4.25 12.7142 4.25C12.3237 4.25 12.0083 4.56539 12.0083 4.95588V5.37641V11.2037V11.3389H12.0233C12.0834 11.6543 12.3688 11.9096 12.7142 11.9096C13.0596 11.9096 13.345 11.6693 13.405 11.3389H13.4201V11.2037V5.37641V4.95588Z" fill="#109CD8"/>
<path d="M18.962 11.8952C19.3525 11.8952 19.6679 11.5798 19.6679 11.1893C19.6679 10.7988 19.3525 10.4834 18.962 10.4834H18.5415H12.7142H12.579V10.4984C12.2486 10.5735 12.0083 10.8589 12.0083 11.2043C12.0083 11.5497 12.2486 11.8201 12.579 11.8952V11.9102H12.7142H18.5415L18.962 11.8952Z" fill="#109CD8"/>
</g>
<defs>
<clipPath id="clip0">
<rect width="24" height="24" fill="white" transform="translate(0.714355)"/>
</clipPath>
</defs>
</svg>
