<svg width="25" height="25" viewBox="0 0 25 25" fill="none" xmlns="http://www.w3.org/2000/svg">
<path d="M13.8511 0C13.4213 0 12.9985 0.0320025 12.5815 0.0885402C12.1469 0.0304024 11.7342 0 11.3247 0C8.22513 0 5.42948 1.50412 3.46778 3.90164C3.44806 3.91924 3.43366 3.94057 3.41766 3.96138C2.7922 4.73584 2.25525 5.6031 1.82068 6.54131C1.80949 6.56211 1.79989 6.58238 1.79189 6.60425C1.49276 7.25977 1.24268 7.94889 1.05072 8.66681C1.03153 8.70735 1.02353 8.75162 1.01766 8.79749C0.739857 9.88291 0.587891 11.0286 0.587891 12.2143C0.587891 14.0694 0.955276 15.8274 1.60793 17.4035C1.6138 17.4206 1.61913 17.4366 1.62713 17.4526C2.01851 18.3865 2.5112 19.2554 3.0892 20.0405C3.10413 20.0608 3.1164 20.0821 3.13399 20.0997C3.71946 20.8854 4.39025 21.5846 5.12981 22.1809C5.15061 22.2039 5.1762 22.2215 5.20233 22.2396C6.94061 23.6178 9.05054 24.4286 11.3247 24.4286C11.7342 24.4286 12.1469 24.3982 12.5815 24.34C12.9985 24.3966 13.4213 24.4286 13.8511 24.4286C19.7714 24.4286 24.5879 18.9492 24.5879 12.2143C24.5879 5.47936 19.7714 0 13.8511 0ZM9.4046 1.10089C9.26543 1.17342 9.12733 1.24916 8.99136 1.3281C8.91511 1.37237 8.83832 1.41504 8.76367 1.46145C8.6469 1.53292 8.53279 1.60866 8.41922 1.68493H7.60873C8.22406 1.39691 8.86658 1.16969 9.53684 1.02888C9.49205 1.05075 9.44939 1.07795 9.4046 1.10089ZM5.16074 19.3743H3.65068C3.27956 18.8495 2.9495 18.2857 2.66316 17.6894H4.25801C4.32413 17.8387 4.39185 17.9865 4.4633 18.1321C4.49422 18.195 4.52622 18.2569 4.55821 18.3193C4.64459 18.4884 4.73364 18.6548 4.82695 18.8191C4.86161 18.8799 4.89467 18.9423 4.93039 19.0025C5.00451 19.1284 5.08236 19.2516 5.16074 19.3743ZM2.46907 7.16003H4.08045C4.00686 7.34404 3.93701 7.53019 3.87089 7.719C3.85277 7.77127 3.8341 7.82301 3.81651 7.87528C3.75572 8.05663 3.6992 8.23904 3.64588 8.42359H2.00144C2.13528 7.98942 2.29205 7.56806 2.46907 7.16003ZM1.42984 12.2143C1.42984 11.9305 1.44477 11.6505 1.4629 11.3721H3.14146C3.14092 11.379 3.14092 11.3854 3.14039 11.3924C3.12493 11.6644 3.11373 11.938 3.11373 12.2143C3.11373 12.3556 3.11853 12.4954 3.12279 12.6357H1.44637C1.44157 12.4948 1.42984 12.3562 1.42984 12.2143ZM3.17132 13.4779C3.18731 13.6549 3.20811 13.8315 3.2305 14.0064C3.2321 14.0192 3.23317 14.032 3.23477 14.0454C3.2657 14.2795 3.30409 14.5115 3.34621 14.7414H1.68578C1.60366 14.3281 1.53861 13.9072 1.49702 13.4779H3.17132ZM3.43259 9.26579C3.42139 9.31539 3.41233 9.36606 3.4022 9.41567C3.391 9.47114 3.37927 9.52661 3.36807 9.58208C3.31688 9.8461 3.27103 10.1128 3.2353 10.3832C3.2337 10.396 3.23264 10.4088 3.23104 10.4221C3.22624 10.4579 3.22304 10.4936 3.21824 10.5294H1.54768C1.60313 10.1005 1.67352 9.67756 1.77003 9.26579H3.43259ZM3.53337 15.5836C3.54617 15.6348 3.55843 15.6871 3.57229 15.7383C3.57709 15.757 3.58136 15.7762 3.58669 15.7948C3.65601 16.0514 3.73386 16.3037 3.81757 16.5528C3.83517 16.6056 3.85383 16.6568 3.87196 16.709C3.88742 16.7554 3.90289 16.8018 3.91942 16.8472H2.29631C2.13688 16.4381 1.99931 16.0162 1.88254 15.5836H3.53337ZM4.92986 5.42656C4.89467 5.48683 4.86054 5.54923 4.82642 5.61004C4.7331 5.77378 4.64352 5.94073 4.55767 6.10981C4.52622 6.17221 4.49369 6.23355 4.46276 6.29702C4.45956 6.30396 4.45583 6.31089 4.4521 6.31783H2.87378C3.19265 5.71671 3.5595 5.15454 3.96687 4.63289H5.44175C5.39056 4.7065 5.33884 4.78011 5.28871 4.85478C5.16447 5.04146 5.0445 5.23187 4.92986 5.42656ZM6.15945 2.52713H7.32239C7.21788 2.61834 7.11337 2.71008 7.01206 2.80609C6.92728 2.88609 6.84517 2.9693 6.76305 3.05197C6.67987 3.13571 6.59722 3.22105 6.51617 3.30746C6.43832 3.39066 6.36047 3.4728 6.28476 3.55868C6.21757 3.63442 6.15305 3.71336 6.08747 3.79123H4.69684C5.14901 3.32026 5.63743 2.89623 6.15945 2.52713ZM4.30333 20.2165H5.74834C5.7958 20.2789 5.84326 20.3413 5.89178 20.4021C6.01868 20.5621 6.14985 20.7179 6.28422 20.8699C6.35941 20.9552 6.43779 21.0379 6.51564 21.1211C6.59669 21.2081 6.67934 21.2929 6.76305 21.3766C6.79664 21.4102 6.82864 21.4465 6.86276 21.4795H5.59691C5.13408 21.1019 4.70164 20.6789 4.30333 20.2165ZM9.53684 23.4002C8.57118 23.197 7.65885 22.8236 6.81264 22.3228H7.83108C7.88494 22.3644 7.94039 22.4039 7.99478 22.4439C8.08169 22.509 8.16914 22.574 8.25819 22.6359C8.42348 22.7511 8.59251 22.8621 8.76367 22.9671C8.83886 23.013 8.91511 23.0562 8.99136 23.1005C9.12733 23.1794 9.2649 23.2551 9.4046 23.3277C9.44939 23.3506 9.49205 23.3778 9.53684 23.4002ZM13.8511 23.5864C13.5162 23.5864 13.1856 23.5666 12.8598 23.5293L12.6967 23.5064C12.6737 23.5032 12.6519 23.4994 12.6295 23.4968C12.4839 23.476 12.3394 23.452 12.196 23.4242C12.1837 23.4216 12.172 23.4194 12.1603 23.4168C12.0211 23.3896 11.883 23.3586 11.7459 23.3245C11.7251 23.3197 11.7049 23.3133 11.6841 23.308C11.5567 23.2749 11.4292 23.2407 11.3039 23.2023C11.2655 23.1906 11.2271 23.1773 11.1887 23.165C11.0816 23.1309 10.9744 23.0957 10.8688 23.0578C10.783 23.0269 10.6982 22.9922 10.6134 22.9586C10.5558 22.9357 10.4972 22.9143 10.4401 22.8903C8.17607 21.9324 6.29862 20.048 5.15648 17.6398C5.14581 17.6179 5.13621 17.595 5.12608 17.5726C5.06476 17.4414 5.00558 17.3091 4.94905 17.1752C4.92613 17.1219 4.90533 17.0675 4.88347 17.0136C4.84081 16.9091 4.79869 16.8045 4.75923 16.6984C4.73364 16.6301 4.70964 16.5608 4.68511 16.4914C4.65205 16.3981 4.61899 16.3042 4.58807 16.2093C4.56301 16.1319 4.53901 16.0535 4.51502 15.9756C4.48782 15.8866 4.46116 15.7975 4.4361 15.7079C4.41264 15.6258 4.39025 15.5425 4.36892 15.4593C4.34599 15.3713 4.32413 15.2823 4.30333 15.1937C4.28307 15.1084 4.26387 15.0236 4.24521 14.9377C4.22602 14.8481 4.20842 14.758 4.19082 14.6673C4.17429 14.5809 4.15776 14.4945 4.14283 14.4075C4.12684 14.3142 4.11297 14.2208 4.09911 14.127C4.08631 14.0416 4.07352 13.9574 4.06232 13.8715C4.04952 13.7701 4.03939 13.6683 4.02873 13.5664C4.02019 13.4869 4.01113 13.4074 4.0042 13.3274C3.99407 13.2101 3.98714 13.0922 3.98074 12.9738C3.977 12.9071 3.97167 12.8415 3.96847 12.7749C3.96101 12.5898 3.95621 12.4031 3.95621 12.2154C3.95621 12.0276 3.96101 11.8409 3.96847 11.6553C3.97167 11.5886 3.977 11.5225 3.98074 11.4564C3.98767 11.3385 3.99407 11.2201 4.0042 11.1027C4.01113 11.0227 4.02019 10.9438 4.02873 10.8638C4.03939 10.7619 4.04952 10.66 4.06232 10.5582C4.07352 10.4728 4.08631 10.3875 4.09911 10.3027C4.11297 10.2088 4.12684 10.1155 4.14283 10.0221C4.15776 9.93517 4.17376 9.84877 4.19082 9.76236C4.20789 9.67169 4.22602 9.58155 4.24521 9.49194C4.26387 9.40607 4.28307 9.32073 4.30333 9.23592C4.32413 9.14685 4.34652 9.05831 4.36892 8.9703C4.39025 8.88709 4.41264 8.80389 4.4361 8.72121C4.46116 8.63161 4.48782 8.542 4.51502 8.45346C4.53901 8.37505 4.56301 8.29718 4.58807 8.21984C4.61899 8.1249 4.65205 8.03103 4.68511 7.93715C4.70964 7.86781 4.73364 7.79901 4.75923 7.73074C4.79922 7.6246 4.84081 7.51952 4.88347 7.41551C4.90533 7.36164 4.92666 7.30724 4.94905 7.2539C5.00611 7.12002 5.0653 6.98775 5.12608 6.85654C5.13675 6.83413 5.14581 6.81173 5.15648 6.78933C6.29862 4.38114 8.17607 2.49726 10.4401 1.53879C10.4972 1.51478 10.5553 1.49345 10.6134 1.47051C10.6982 1.43691 10.7824 1.40224 10.8688 1.37131C10.9744 1.3329 11.0816 1.29823 11.1887 1.2641C11.2271 1.25183 11.265 1.2385 11.3039 1.22676C11.4292 1.18836 11.5567 1.15369 11.6841 1.12115C11.7044 1.11635 11.7251 1.10995 11.7454 1.10515C11.8824 1.07102 12.0206 1.04061 12.1597 1.01288C12.172 1.01021 12.1837 1.00808 12.1954 1.00541C12.3383 0.977676 12.4828 0.953674 12.6289 0.932873C12.6513 0.929673 12.6737 0.925939 12.6961 0.923272L12.8593 0.900337C13.1856 0.863534 13.5162 0.843266 13.8511 0.843266C19.3069 0.843266 23.7459 5.94446 23.7459 12.2154C23.7459 18.4862 19.3069 23.5864 13.8511 23.5864Z" fill="#049EDD"/>
<path d="M6.34248 12.2158C6.34248 11.9507 6.35314 11.6845 6.37341 11.4243C6.39153 11.1928 6.21877 10.9896 5.98682 10.9709C5.75381 10.9538 5.55225 11.1261 5.53359 11.3576C5.5112 11.6392 5.5 11.9283 5.5 12.2158V12.2249C5.5 12.4574 5.68876 12.6414 5.92124 12.6414C6.15372 12.6414 6.34248 12.4483 6.34248 12.2158Z" fill="#049EDD"/>
<path d="M21.0661 9.81146C21.1141 10.0029 21.2852 10.1299 21.474 10.1299C21.5081 10.1299 21.5428 10.1256 21.5769 10.1171C21.8019 10.06 21.9389 9.83173 21.8824 9.60558C21.8115 9.32449 21.7289 9.04394 21.635 8.77138C21.5598 8.55163 21.3204 8.43322 21.1002 8.5095C20.8805 8.5847 20.7627 8.82472 20.8384 9.04447C20.9248 9.29462 21.001 9.55278 21.0661 9.81146Z" fill="#049EDD"/>
<path d="M19.3337 18.1183C19.1652 18.3258 18.9871 18.5237 18.8042 18.7088C18.6405 18.8741 18.6415 19.1403 18.8068 19.3046C18.889 19.3856 18.9961 19.4267 19.1033 19.4267C19.2115 19.4267 19.3203 19.3851 19.4024 19.3019C19.6051 19.0976 19.8018 18.8784 19.9874 18.6501C20.1345 18.4693 20.1063 18.2042 19.9261 18.0575C19.7458 17.9103 19.4808 17.9381 19.3337 18.1183Z" fill="#049EDD"/>
<path d="M6.63215 14.6011C6.57616 14.3755 6.34688 14.2374 6.12186 14.2939C5.89631 14.3499 5.75874 14.5787 5.81473 14.8044C5.88458 15.0854 5.96723 15.366 6.06001 15.6391C6.11973 15.814 6.28343 15.9244 6.45832 15.9244C6.50311 15.9244 6.5495 15.917 6.59429 15.9015C6.81398 15.8263 6.93182 15.5873 6.85717 15.3671C6.77239 15.1174 6.69667 14.8593 6.63215 14.6011Z" fill="#049EDD"/>
<path d="M18.0021 3.97989C17.7562 3.81934 17.4992 3.6716 17.239 3.54039C17.0311 3.43531 16.7783 3.51959 16.6733 3.72654C16.5682 3.93402 16.652 4.18791 16.8594 4.29245C17.0924 4.40979 17.3217 4.54207 17.5419 4.68608C17.6128 4.73248 17.6928 4.75435 17.7712 4.75435C17.9087 4.75435 18.0436 4.68715 18.1247 4.56287C18.2516 4.36872 18.1967 4.10737 18.0021 3.97989Z" fill="#049EDD"/>
<path d="M16.9048 20.1128C16.6707 20.2328 16.4292 20.34 16.1866 20.4318C15.969 20.5134 15.8592 20.7566 15.9413 20.9742C16.0047 21.1433 16.1647 21.2473 16.3353 21.2473C16.3844 21.2473 16.4345 21.2382 16.4841 21.2201C16.7566 21.1172 17.0275 20.9972 17.2898 20.8627C17.4967 20.7566 17.5788 20.5027 17.4722 20.2958C17.3655 20.0888 17.1117 20.0067 16.9048 20.1128Z" fill="#049EDD"/>
<path d="M20.4744 6.43567C20.3107 6.19352 20.1348 5.9583 19.9508 5.73535C19.8031 5.55614 19.5376 5.53 19.3579 5.67828C19.1787 5.82603 19.1526 6.09165 19.3008 6.27139C19.4677 6.47408 19.6277 6.68849 19.7764 6.90824C19.8575 7.02879 19.9903 7.09332 20.1257 7.09332C20.2067 7.09332 20.2889 7.06986 20.3614 7.02078C20.5544 6.88957 20.6051 6.62769 20.4744 6.43567Z" fill="#049EDD"/>
<path d="M21.7809 11.7793C21.5485 11.7793 21.3597 11.9814 21.3597 12.214C21.3597 12.4722 21.3496 12.733 21.3298 12.9879C21.3123 13.2199 21.485 13.4226 21.717 13.4402C21.7282 13.4413 21.7388 13.4413 21.75 13.4413C21.9676 13.4413 22.1526 13.2738 22.1691 13.0525C22.1905 12.7751 22.2017 12.493 22.2017 12.2129V12.1857C22.2017 11.9542 22.0134 11.7793 21.7809 11.7793Z" fill="#049EDD"/>
<path d="M21.3884 15.0709C21.1676 14.9967 20.9293 15.1157 20.8552 15.336C20.7698 15.5883 20.6739 15.8389 20.5683 16.0811C20.4755 16.2944 20.5731 16.5425 20.7864 16.6353C20.8413 16.6593 20.8983 16.6705 20.9543 16.6705C21.117 16.6705 21.2716 16.5755 21.3404 16.4171C21.4556 16.1531 21.5606 15.8795 21.6534 15.6043C21.7275 15.384 21.6091 15.145 21.3884 15.0709Z" fill="#049EDD"/>
<path d="M14.7134 2.77768C14.4281 2.74461 14.1381 2.72754 13.8507 2.72754H13.8331C13.6006 2.72754 13.4209 2.91635 13.4209 3.14891C13.4209 3.38146 13.6182 3.57027 13.8507 3.57027C14.1055 3.57027 14.3631 3.58521 14.6164 3.61454C14.6329 3.61667 14.6494 3.61774 14.6654 3.61774C14.876 3.61774 15.0584 3.45986 15.0829 3.24491C15.1101 3.01289 14.9448 2.80435 14.7134 2.77768Z" fill="#049EDD"/>
<path d="M7.91513 17.509C7.78503 17.3159 7.52322 17.2653 7.33073 17.3954C7.1377 17.5255 7.08705 17.7869 7.21715 17.98C7.38032 18.2221 7.55628 18.4579 7.73864 18.6814C7.82182 18.7827 7.94286 18.8355 8.06443 18.8355C8.15828 18.8355 8.25319 18.8046 8.33157 18.74C8.51127 18.5923 8.53739 18.3272 8.39023 18.1469C8.22386 17.9448 8.0639 17.7298 7.91513 17.509Z" fill="#049EDD"/>
<path d="M6.9233 7.77745C6.71001 7.68465 6.46207 7.78119 6.36875 7.99454C6.25305 8.25963 6.14747 8.53271 6.05416 8.80633C5.97951 9.02662 6.09735 9.2661 6.31757 9.34078C6.36236 9.35571 6.40821 9.36318 6.45247 9.36318C6.6279 9.36318 6.79159 9.25224 6.85131 9.07729C6.93663 8.82607 7.03367 8.57538 7.13978 8.33163C7.23416 8.11881 7.13658 7.87026 6.9233 7.77745Z" fill="#049EDD"/>
<path d="M13.851 20.8594C13.5892 20.8594 13.3258 20.8439 13.0688 20.813C12.8395 20.7885 12.6283 20.9501 12.6006 21.1816C12.5734 21.4125 12.7376 21.6221 12.9691 21.6499C13.2597 21.6845 13.5567 21.7021 13.8515 21.7021H13.8878C14.1203 21.7021 14.2909 21.5133 14.2909 21.2808C14.2909 21.0482 14.0835 20.8594 13.851 20.8594Z" fill="#049EDD"/>
<path d="M8.31235 5.11431C8.10973 5.3186 7.91244 5.53728 7.72688 5.76503C7.57971 5.94531 7.60637 6.2104 7.7866 6.35761C7.86498 6.42162 7.95936 6.45255 8.05267 6.45255C8.17478 6.45255 8.29582 6.39975 8.379 6.29787C8.54803 6.09092 8.72612 5.89251 8.91008 5.70796C9.07378 5.54261 9.07325 5.27646 8.90848 5.11218C8.74319 4.94844 8.47711 4.95004 8.31235 5.11431Z" fill="#049EDD"/>
<path d="M11.2365 3.20266C10.9635 3.30507 10.692 3.42455 10.4297 3.55843C10.2223 3.6635 10.1402 3.91792 10.2457 4.12487C10.3199 4.27101 10.4676 4.35475 10.6211 4.35475C10.6856 4.35475 10.7507 4.33982 10.812 4.30888C11.0461 4.18994 11.2882 4.08273 11.5313 3.99153C11.7489 3.90992 11.8598 3.66723 11.7782 3.44962C11.6966 3.23147 11.4535 3.12106 11.2365 3.20266Z" fill="#049EDD"/>
<path d="M10.8276 20.1288C10.5962 20.0115 10.3664 19.8781 10.1461 19.7336C9.95098 19.6066 9.69077 19.661 9.5628 19.8552C9.4359 20.0499 9.48975 20.3107 9.68437 20.4382C9.93072 20.5993 10.1872 20.7481 10.4458 20.8798C10.5071 20.9107 10.5722 20.9251 10.6362 20.9251C10.7897 20.9251 10.9374 20.8409 11.0121 20.6947C11.1177 20.4878 11.0345 20.2344 10.8276 20.1288Z" fill="#049EDD"/>
</svg>
