<svg width="13" height="16" viewBox="0 0 13 16" fill="none" xmlns="http://www.w3.org/2000/svg">
<path d="M12.9565 12.6206L10.7206 8.72675C10.9472 8.62178 11.0832 8.38229 11.068 8.11273L10.9018 6.73485L11.8534 5.74629C12.065 5.53661 12.0801 5.17711 11.8686 4.92258L10.9169 3.90421L11.1133 2.51131C11.1436 2.21168 10.9321 1.91231 10.6299 1.85243L9.25515 1.58287L8.59054 0.369848C8.45458 0.0852545 8.12228 -0.0344938 7.82004 0.0852545H7.80488L6.5358 0.669219L5.29705 0.0702223C5.1611 -0.00468413 4.99482 -0.0197164 4.84396 0.0253804C4.69284 0.0702223 4.57205 0.175193 4.49649 0.309974L3.81672 1.523L2.44201 1.76275C2.12487 1.82262 1.91336 2.10722 1.94343 2.43665L2.10971 3.81452L1.15803 4.80308C0.946517 5.01277 0.931354 5.37227 1.14287 5.6268L2.09455 6.64517L1.8982 8.03807C1.86787 8.30763 2.03415 8.56216 2.2909 8.66713L0.0398125 12.6206C-0.0205831 12.7106 -0.00541991 12.8303 0.0398125 12.9202C0.100208 13.0102 0.19093 13.0701 0.296558 13.0701H2.71366L3.81646 14.972C3.87686 15.062 3.96758 15.1218 4.07321 15.1218C4.17909 15.1218 4.28472 15.062 4.32995 14.972L6.49031 11.3176L8.65068 15.0169C8.71107 15.1068 8.80179 15.1667 8.90742 15.1667C9.01331 15.1667 9.11893 15.1068 9.16417 15.0169L10.267 13.0698H12.6841C12.7897 13.0698 12.8956 13.0099 12.9408 12.92C13.0169 12.8303 13.0169 12.7106 12.9565 12.6206ZM4.08863 14.2232L3.15185 12.6206C3.09146 12.5307 3.00074 12.4708 2.89511 12.4708H0.810306L2.89511 8.81644L3.75632 8.96625L4.42093 10.1793C4.55689 10.4639 4.88919 10.5836 5.19142 10.4639H5.20659L5.82596 10.1793L6.1282 10.7034L4.08863 14.2232ZM4.96475 9.92475C4.94959 9.92475 4.94959 9.92475 4.94959 9.92475L4.28498 8.68166C4.19426 8.53184 4.04314 8.4121 3.86195 8.39706L2.47208 8.14253L2.66843 6.76466C2.69876 6.58504 2.63836 6.39013 2.51731 6.27038L1.5808 5.25201L2.53248 4.26345C2.66843 4.12867 2.72883 3.94905 2.69876 3.76917L2.53248 2.40633C2.53248 2.40633 2.53248 2.3913 2.54764 2.37627L3.92235 2.13652C4.08863 2.10645 4.25465 2.00174 4.34537 1.83689L5.02514 0.623867L6.2639 1.22286C6.43018 1.3128 6.64169 1.3128 6.80771 1.22286L8.06163 0.653677C8.07679 0.653677 8.07679 0.653677 8.07679 0.653677L8.7414 1.89677C8.83212 2.04658 8.98324 2.16633 9.14926 2.18136L10.524 2.45092L10.3276 3.82879C10.2973 4.00841 10.3579 4.20332 10.4787 4.32307L11.4304 5.34144L10.4636 6.33C10.3276 6.46478 10.2672 6.64441 10.2973 6.82428L10.4636 8.20215L9.10403 8.42687C8.93775 8.45694 8.77172 8.56165 8.681 8.7265L8.00123 9.93952L6.76248 9.34053C6.5962 9.25059 6.38469 9.25059 6.21866 9.34053L4.96475 9.92475ZM10.1012 12.4708C9.99531 12.4708 9.88968 12.5307 9.84445 12.6206L8.90768 14.268L6.77764 10.6137C6.76248 10.5688 6.74732 10.5388 6.71725 10.5087L6.38494 9.92475L6.49083 9.8799L7.72958 10.4789C7.8203 10.5237 7.91077 10.5388 8.00149 10.5388C8.213 10.5388 8.42451 10.4341 8.53014 10.2392L9.20991 9.02612L10.1164 8.86128L12.186 12.4708H10.1012Z" fill="#049EDD"/>
<path d="M9.51237 5.28137C9.51237 3.63394 8.15283 2.28613 6.49105 2.28613C4.82927 2.28613 3.46973 3.63394 3.46973 5.28137C3.46973 6.9288 4.82927 8.27686 6.49105 8.27686C8.15257 8.27661 9.51237 6.9288 9.51237 5.28137ZM6.49079 7.67761C5.16132 7.67761 4.07368 6.59937 4.07368 5.28137C4.07368 3.96337 5.16132 2.88513 6.49079 2.88513C7.82027 2.88513 8.9079 3.96337 8.9079 5.28137C8.9079 6.59937 7.82027 7.67761 6.49079 7.67761Z" fill="#049EDD"/>
</svg>
