<svg width="12" height="14" viewBox="0 0 12 14" fill="none" xmlns="http://www.w3.org/2000/svg">
    <defs>
        <linearGradient id="paint0_linear" x1="8.41628" y1="2.05079" x2="1.17356" y2="12.9987" gradientUnits="userSpaceOnUse">
            <stop stop-color="#1699D6"/>
            <stop offset="1" stop-color="#B1419C"/>
        </linearGradient>
    </defs>
<path fill-rule="evenodd" clip-rule="evenodd" d="M3.97821 3.87724C3.97821 3.22904 4.22585 2.77328 4.57782 2.47188C4.94027 2.1615 5.44182 1.99215 5.96536 1.99025C6.48864 1.98835 6.99762 2.15397 7.37285 2.46623C7.73687 2.76917 7.99995 3.22944 8.02164 3.88514V5.31235H3.97821V3.87724ZM2.97821 5.31235V3.87724C2.97821 2.94317 3.34888 2.2077 3.92739 1.71231C4.49543 1.22589 5.23655 0.992886 5.96174 0.990257C6.6872 0.987627 7.43301 1.21532 8.01252 1.69758C8.60189 2.18806 8.9929 2.92127 9.02141 3.86209L9.02164 3.86966V3.87724V5.31235H9.8105C10.3628 5.31235 10.8105 5.76006 10.8105 6.31235V12.0092C10.8105 12.5615 10.3628 13.0092 9.8105 13.0092H2.18945C1.63717 13.0092 1.18945 12.5615 1.18945 12.0092V6.31235C1.18945 5.76006 1.63717 5.31235 2.18945 5.31235H2.97821ZM9.8105 6.31235V12.0092L2.18945 12.0092L2.18945 6.31235H3.32746H8.67249H9.8105Z" fill="url(#paint0_linear)"/>
</svg>
