<svg width="12" height="12" viewBox="0 0 12 12" fill="none" xmlns="http://www.w3.org/2000/svg">
<g clip-path="url(#clip0)">
<path d="M6 0C2.6916 0 0 2.6916 0 6C0 9.3084 2.6916 12 6 12C9.3084 12 12 9.3084 12 6C12 2.6916 9.3084 0 6 0ZM6 10.7233C3.3956 10.7233 1.27657 8.60453 1.27657 6C1.27657 3.39547 3.3956 1.2767 6 1.2767C8.60441 1.2767 10.7234 3.39547 10.7234 6C10.7234 8.60453 8.60441 10.7233 6 10.7233Z" fill="#BDBDBD" stroke="white" stroke-width="0.5"/>
<path d="M9.12686 5.81618H6.43044V2.57411C6.43044 2.30128 6.20924 2.08008 5.93641 2.08008C5.66358 2.08008 5.44238 2.30128 5.44238 2.57411V6.31021C5.44238 6.58304 5.66358 6.80424 5.93641 6.80424H9.12686C9.39969 6.80424 9.62089 6.58304 9.62089 6.31021C9.62089 6.03739 9.39969 5.81618 9.12686 5.81618Z" fill="#BDBDBD" stroke="white" stroke-width="0.2"/>
</g>
<defs>
<clipPath id="clip0">
<rect width="12" height="12" fill="white"/>
</clipPath>
</defs>
</svg>
