<svg width="12" height="10" viewBox="0 0 12 10" fill="none" xmlns="http://www.w3.org/2000/svg">
<path d="M11.5262 3.90559L11.5278 3.90452C11.5692 3.87625 11.6098 3.84745 11.6498 3.81812V8.19635V8.47467C11.6498 8.79497 11.3856 9.05966 11.063 9.05966H10.9283H1.07146H0.937037C0.614439 9.05966 0.350218 8.79497 0.350218 8.47467V8.19614V7.35364L0.35 7.35386V3.81498C0.392983 3.84606 0.436729 3.87643 0.481231 3.90607L0.622082 4.00165L0.622073 4.00167L0.624125 4.00303C1.3366 4.48674 1.94567 4.90367 2.45252 5.25437L2.44031 5.26656L2.78432 5.5057L3.56253 6.04669L3.80261 6.21358L3.80637 6.20983C4.05842 6.39513 4.26696 6.54266 4.43076 6.6507C4.61484 6.77275 4.84809 6.88939 5.12264 7.00318C5.41852 7.12604 5.70995 7.19367 5.99346 7.19367H6.00022H6.00697C6.29063 7.19367 6.58203 7.12575 6.87756 7.00328L6.87766 7.00324C7.15232 6.88932 7.3853 6.77253 7.56921 6.65101C7.73444 6.54189 7.94592 6.39216 8.20166 6.20424C8.2745 6.15169 8.3516 6.09636 8.43116 6.03945L9.2129 5.50798L9.56306 5.26993L9.54853 5.25543C10.114 4.86423 10.7732 4.4144 11.5262 3.90559Z" stroke="white" stroke-width="0.7"/>
<path d="M1.35369 2.61436L1.35365 2.61442C1.50358 2.7202 1.95955 3.03645 2.72372 3.56492C3.13611 3.85011 3.49477 4.09883 3.80318 4.31347L1.35369 2.61436ZM1.35369 2.61436L1.34775 2.61035M1.35369 2.61436L1.34775 2.61035M1.34775 2.61035C1.10957 2.44951 0.875741 2.22187 0.648462 1.91875L0.368443 2.12871L0.648618 1.91896C0.428522 1.62497 0.350244 1.39364 0.350244 1.21635C0.350244 0.933813 0.423951 0.725204 0.551242 0.566214L0.551368 0.566058M1.34775 2.61035L0.551368 0.566058M6.34207 5.92823C6.46255 5.88823 6.59088 5.828 6.72704 5.74776C6.86321 5.66753 6.97911 5.59512 7.07541 5.53054M6.34207 5.92823L10.6784 3.02339C9.68256 3.71328 8.92381 4.23893 8.39937 4.60273L8.24297 4.71122C8.01564 4.8689 7.84127 4.98984 7.72181 5.07283C7.70024 5.08784 7.66647 5.11175 7.62159 5.14394C7.57323 5.17829 7.51223 5.22221 7.43706 5.27657C7.29196 5.38116 7.17149 5.46596 7.07541 5.53054M6.34207 5.92823C6.22138 5.96846 6.10983 5.98846 6.00722 5.98846H6.00046H5.99371C5.89087 5.98846 5.77933 5.96824 5.65885 5.92823C5.53837 5.88823 5.41005 5.82778 5.27388 5.74776M6.34207 5.92823L5.27388 5.74776M7.07541 5.53054L6.88016 5.24006C6.97156 5.17862 7.08843 5.09642 7.23218 4.99281C7.30704 4.93867 7.36877 4.89421 7.41828 4.85905C7.46337 4.82671 7.49848 4.80184 7.52195 4.78551L7.52212 4.78539C7.64185 4.70221 7.81664 4.58097 8.04439 4.423L8.19988 4.31515C8.72449 3.95123 9.48348 3.42541 10.4795 2.73541L10.6554 2.61351M7.07541 5.53054L6.88047 5.23985C6.79121 5.29971 6.68132 5.36846 6.54936 5.44622C6.4294 5.5169 6.32375 5.56553 6.23177 5.59607L6.23141 5.59619C6.13838 5.6272 6.06461 5.63846 6.00722 5.63846H6.00046H5.99371C5.9364 5.63846 5.86258 5.6271 5.76915 5.59607C5.67741 5.56561 5.5717 5.51681 5.45121 5.44601C5.31897 5.36821 5.20929 5.2997 5.12107 5.24026L5.12076 5.24006C5.02918 5.1785 4.91218 5.09641 4.7688 4.99285L4.76858 4.99269C4.69322 4.93834 4.63167 4.89403 4.58264 4.85898L4.58215 4.85863C4.57173 4.85121 4.56178 4.84412 4.55236 4.83741C4.52221 4.81592 4.49753 4.79833 4.48034 4.78625L4.4801 4.78608C4.29273 4.65465 4.066 4.49632 3.80322 4.3135L10.6554 2.61351M10.6554 2.61351C10.6555 2.61344 10.6556 2.61338 10.6557 2.61331M10.6554 2.61351L10.6557 2.61331M5.27388 5.74776C5.1375 5.66753 5.02138 5.59512 4.92552 5.53054C4.82944 5.46596 4.70896 5.38138 4.56386 5.27657C4.48848 5.22221 4.42748 5.17829 4.37911 5.14372C4.36818 5.13593 4.35791 5.12861 4.34832 5.12178L5.27388 5.74776ZM10.6557 2.61331C10.9473 2.40998 11.1889 2.16638 11.3833 1.88164L10.6557 2.61331ZM0.551368 0.566058C0.659136 0.431294 0.815092 0.35 1.07149 0.35H10.9283C11.1235 0.35 11.2873 0.416445 11.4366 0.563397C11.583 0.708314 11.6505 0.870643 11.6505 1.06958C11.6505 1.344 11.5666 1.61257 11.3835 1.88137L0.551368 0.566058Z" stroke="white" stroke-width="0.7"/>
</svg>
