<svg width="26" height="24" viewBox="0 0 26 24" fill="none" xmlns="http://www.w3.org/2000/svg">
<path d="M13.0389 18.3887C13.9552 18.3887 14.8432 18.9445 15.5254 19.8797C16.1121 20.6839 16.509 21.7237 16.6083 22.7839H9.46962C9.56886 21.7237 9.96583 20.6839 10.5525 19.8797C11.2347 18.9445 12.1227 18.3887 13.0389 18.3887Z" stroke="#049EDD"/>
<path d="M15.0808 7.44091L11.522 5.27468C11.333 5.15958 11.1076 5.1599 10.9189 5.27468C10.7299 5.38947 10.6172 5.59558 10.6172 5.82547V10.1579C10.6172 10.3878 10.7299 10.5936 10.9189 10.7087C11.0132 10.7663 11.1168 10.795 11.2203 10.795C11.3238 10.795 11.4274 10.7663 11.522 10.7087L15.0808 8.54248C15.2697 8.42738 15.3822 8.22158 15.3822 7.9917C15.3822 7.76181 15.2694 7.55601 15.0808 7.44091ZM14.7924 8.01609L11.2336 10.1823C11.2292 10.1851 11.2203 10.1905 11.207 10.1823C11.1936 10.1742 11.1936 10.1632 11.1936 10.1579V5.82547C11.1936 5.82015 11.1936 5.8092 11.207 5.80107C11.2123 5.79794 11.2167 5.79669 11.2206 5.79669C11.2265 5.79669 11.231 5.79951 11.2336 5.80107L14.7924 7.9673C14.7969 7.9698 14.8058 7.97543 14.8058 7.9917C14.8058 8.00796 14.7969 8.01359 14.7924 8.01609Z" fill="#049EDD" stroke="#049EDD" stroke-width="0.3"/>
<path d="M14.8826 15.3254C14.8826 16.4391 14.0326 17.2962 13.0389 17.2962C12.0453 17.2962 11.1953 16.4391 11.1953 15.3254C11.1953 14.2116 12.0453 13.3545 13.0389 13.3545C14.0326 13.3545 14.8826 14.2116 14.8826 15.3254Z" stroke="#049EDD"/>
<path d="M23.4425 1.00152H4.94007C4.94007 1.00152 4.85107 0.968993 4.85107 1.40687C4.85107 1.78219 4.94007 1.78344 4.94007 1.78344H23.4425C23.8923 1.78344 24.2584 2.1694 24.2584 2.64355V13.3402C24.2584 13.8144 23.8923 14.2003 23.4425 14.2003H15.5347C15.6344 14.4452 15.7027 14.7079 15.7338 14.9822H23.4425C24.3014 14.9822 25 14.2457 25 13.3402V2.64355C25 1.73809 24.3014 1.00152 23.4425 1.00152Z" fill="#049EDD" stroke="#049EDD" stroke-width="0.3"/>
<path d="M1.74165 13.3406V2.64398C1.74165 2.16983 2.10773 1.78387 2.55747 1.78387H2.98199C2.98199 1.78387 3.10066 1.75134 3.10066 1.38197C3.10066 1.0007 2.98199 1.00195 2.98199 1.00195H2.55747C1.69864 1.00195 1 1.73852 1 2.64398V13.3406C1 14.2461 1.69864 14.9827 2.55747 14.9827H10.3439C10.3751 14.7084 10.4433 14.4456 10.543 14.2008H2.55747C2.10773 14.2008 1.74165 13.8148 1.74165 13.3406Z" fill="#049EDD" stroke="#049EDD" stroke-width="0.3"/>
<path d="M4.10953 1.75059C4.28976 1.75059 4.43586 1.59655 4.43586 1.40654C4.43586 1.21653 4.28976 1.0625 4.10953 1.0625C3.9293 1.0625 3.7832 1.21653 3.7832 1.40654C3.7832 1.59655 3.9293 1.75059 4.10953 1.75059Z" fill="#049EDD"/>
<path d="M10.2206 1H2.65576V1.78192H10.2206V1Z" fill="#049EDD" stroke="#049EDD" stroke-width="0.3"/>
</svg>
