<svg width="385" height="351" viewBox="0 0 385 351" fill="none" xmlns="http://www.w3.org/2000/svg">
<rect y="162.529" width="330.519" height="40.2573" rx="15" transform="rotate(-29.455 0 162.529)" fill="#F2F2F2" fill-opacity="0.5"/>
<rect x="8.70166" y="249.824" width="346.711" height="40.2573" rx="15" transform="rotate(-29.455 8.70166 249.824)" fill="#F2F2F2" fill-opacity="0.5"/>
<rect x="56.335" y="315.352" width="353.815" height="40.2573" rx="15" transform="rotate(-29.455 56.335 315.352)" fill="#F2F2F2" fill-opacity="0.5"/>
<path fill-rule="evenodd" clip-rule="evenodd" d="M236.814 75.0137C231.254 79.5445 229.598 87.552 233.244 94.0081L238.288 102.94C242.362 110.153 251.512 112.698 258.726 108.625L314.38 77.1942C314.33 77.2233 314.28 77.2522 314.229 77.2808L67.1908 216.793C73.0109 212.313 74.8034 204.12 71.087 197.54L66.043 188.608C62.1999 181.803 53.8389 179.152 46.8481 182.295L236.814 75.0137Z" fill="#F2F2F2" fill-opacity="0.5"/>
<path fill-rule="evenodd" clip-rule="evenodd" d="M244.717 179.954C240.696 172.835 243.123 163.83 250.121 159.679L41.5826 277.449C34.8521 281.25 32.1856 289.47 35.1677 296.413C35.3839 296.919 35.6301 297.418 35.9067 297.907L40.9506 306.839C45.0243 314.052 54.1744 316.598 61.3879 312.524L92.1823 295.133C92.4275 294.995 92.6673 294.85 92.9016 294.7L353.844 147.336C353.939 147.283 354.032 147.229 354.125 147.174L270.198 194.571C262.984 198.644 253.834 196.099 249.761 188.886L244.717 179.954ZM92.9016 294.7C99.5611 290.44 101.803 281.664 97.8673 274.696L92.8234 265.764C88.7497 258.551 79.5996 256.006 72.3862 260.079L41.5917 277.47C34.8682 281.267 32.2002 289.475 35.1677 296.413C35.3817 296.911 35.6248 297.403 35.8976 297.886L40.9415 306.818C45.0152 314.031 54.1653 316.576 61.3787 312.503L92.9016 294.7Z" fill="#F2F2F2" fill-opacity="0.5"/>
<ellipse cx="192.744" cy="176.251" rx="116.331" ry="115.55" fill="white"/>
<circle cx="193.525" cy="176.252" r="99.9352" fill="#D02D91"/>
<path d="M328.547 161.221C328.865 164.086 329.092 166.978 329.227 169.894C328.677 169.918 328.249 170.382 328.271 170.932C328.339 172.696 328.374 174.469 328.374 176.25C328.374 178.031 328.339 179.803 328.271 181.567C328.249 182.118 328.677 182.582 329.227 182.605C329.092 185.521 328.865 188.414 328.547 191.279C328 191.216 327.505 191.608 327.441 192.155C327.022 195.694 326.466 199.191 325.778 202.64C325.67 203.18 326.02 203.706 326.56 203.815C325.968 206.669 325.286 209.49 324.518 212.275C323.988 212.127 323.437 212.435 323.286 212.965C322.315 216.385 321.212 219.749 319.982 223.053C319.79 223.569 320.052 224.144 320.567 224.338C319.532 227.056 318.412 229.733 317.209 232.366C316.71 232.135 316.117 232.352 315.884 232.851C314.385 236.069 312.763 239.218 311.023 242.292C310.751 242.772 310.919 243.38 311.397 243.653C309.948 246.17 308.42 248.636 306.817 251.048C306.359 250.742 305.74 250.863 305.431 251.32C303.448 254.257 301.351 257.113 299.147 259.882C298.803 260.313 298.874 260.94 299.303 261.284C297.479 263.541 295.585 265.738 293.622 267.873C293.218 267.499 292.587 267.522 292.212 267.925C289.796 270.514 287.28 273.008 284.669 275.402C284.263 275.775 284.235 276.405 284.606 276.813C282.455 278.756 280.242 280.632 277.97 282.437C277.629 282.005 277.002 281.929 276.568 282.269C273.783 284.449 270.91 286.523 267.955 288.484C267.496 288.789 267.37 289.407 267.673 289.867C265.248 291.451 262.771 292.96 260.242 294.391C259.973 293.911 259.365 293.739 258.884 294.007C255.798 295.724 252.638 297.324 249.409 298.802C248.908 299.032 248.687 299.623 248.915 300.125C246.275 301.31 243.591 302.414 240.866 303.434C240.675 302.917 240.102 302.652 239.584 302.842C236.274 304.053 232.904 305.139 229.479 306.095C228.948 306.243 228.638 306.792 228.784 307.323C225.996 308.079 223.172 308.75 220.316 309.332C220.209 308.792 219.684 308.44 219.143 308.546C215.692 309.223 212.193 309.77 208.652 310.182C208.105 310.245 207.712 310.739 207.774 311.287C204.908 311.598 202.016 311.822 199.1 311.955C199.077 311.405 198.613 310.976 198.062 310.997C196.298 311.065 194.525 311.099 192.744 311.099C190.963 311.099 189.19 311.065 187.426 310.997C186.875 310.976 186.411 311.405 186.388 311.955C183.472 311.822 180.58 311.598 177.714 311.287C177.776 310.739 177.383 310.245 176.836 310.182C173.295 309.77 169.796 309.223 166.344 308.546C165.804 308.44 165.279 308.792 165.171 309.332C162.315 308.75 159.492 308.079 156.704 307.323C156.85 306.792 156.54 306.243 156.009 306.095C152.584 305.139 149.213 304.053 145.904 302.842C145.386 302.652 144.813 302.917 144.622 303.434C141.897 302.414 139.213 301.31 136.573 300.125C136.801 299.623 136.58 299.032 136.079 298.802C132.85 297.324 129.69 295.724 126.604 294.007C126.122 293.739 125.515 293.911 125.246 294.391C122.717 292.96 120.239 291.451 117.815 289.867C118.118 289.407 117.992 288.789 117.533 288.484C114.578 286.523 111.705 284.449 108.92 282.269C108.486 281.929 107.859 282.005 107.518 282.437C105.246 280.632 103.033 278.756 100.882 276.813C101.253 276.405 101.224 275.775 100.818 275.402C98.2074 273.008 95.6913 270.514 93.2762 267.925C92.9003 267.522 92.2695 267.499 91.8655 267.873C89.9031 265.738 88.0084 263.541 86.1846 261.284C86.6141 260.94 86.6844 260.313 86.3412 259.881C84.1373 257.113 82.0403 254.257 80.0565 251.32C79.7481 250.863 79.1286 250.742 78.6712 251.048C77.0679 248.636 75.54 246.17 74.0907 243.653C74.5689 243.38 74.7366 242.772 74.4651 242.292C72.7249 239.218 71.1024 236.069 69.6037 232.851C69.3711 232.352 68.7783 232.135 68.2784 232.366C67.0761 229.733 65.9557 227.056 64.9206 224.338C65.4359 224.144 65.6977 223.569 65.5054 223.053C64.2757 219.749 63.1724 216.385 62.2013 212.965C62.0508 212.435 61.5 212.127 60.9698 212.275C60.2013 209.49 59.5198 206.669 58.9283 203.815C59.4678 203.706 59.8175 203.18 59.7096 202.64C59.0213 199.191 58.4654 195.694 58.0472 192.155C57.9825 191.608 57.4874 191.216 56.9404 191.279C56.6233 188.414 56.3957 185.521 56.2607 182.605C56.8108 182.582 57.2387 182.118 57.2173 181.567C57.1485 179.803 57.1138 178.031 57.1138 176.25C57.1138 174.469 57.1485 172.696 57.2173 170.932C57.2387 170.382 56.8108 169.918 56.2607 169.894C56.3957 166.978 56.6232 164.086 56.9404 161.221C57.4874 161.283 57.9825 160.892 58.0472 160.345C58.4654 156.806 59.0213 153.309 59.7096 149.86C59.8175 149.319 59.4678 148.794 58.9283 148.684C59.5198 145.831 60.2013 143.01 60.9698 140.224C61.5 140.373 62.0508 140.065 62.2013 139.535C63.1724 136.115 64.2757 132.75 65.5054 129.447C65.6977 128.93 65.4359 128.356 64.9206 128.162C65.9557 125.443 67.0761 122.766 68.2784 120.134C68.7783 120.365 69.3711 120.148 69.6037 119.648C71.1024 116.431 72.7249 113.282 74.4651 110.207C74.7366 109.728 74.5689 109.119 74.0907 108.846C75.54 106.33 77.0679 103.863 78.6712 101.451C79.1286 101.758 79.7481 101.637 80.0565 101.18C82.0403 98.2421 84.1373 95.3861 86.3412 92.6181C86.6844 92.187 86.6141 91.5597 86.1846 91.2152C88.0084 88.9587 89.9031 86.7614 91.8655 84.6265C92.2695 85.0007 92.9003 84.9779 93.2762 84.5749C95.6913 81.9858 98.2074 79.4912 100.818 77.0972C101.224 76.7247 101.253 76.0941 100.882 75.687C103.033 73.7437 105.246 71.8676 107.518 70.0622C107.859 70.4946 108.486 70.5701 108.92 70.2305C111.705 68.0506 114.578 65.977 117.533 64.0156C117.992 63.7108 118.118 63.0923 117.815 62.6324C120.239 61.0488 122.717 59.5397 125.246 58.1086C125.515 58.5888 126.122 58.7609 126.604 58.493C129.69 56.776 132.85 55.1754 136.079 53.6972C136.58 53.4678 136.801 52.8765 136.573 52.375C139.213 51.19 141.897 50.0858 144.622 49.0659C144.813 49.5822 145.386 49.8473 145.904 49.6579C149.213 48.447 152.584 47.3607 156.009 46.4048C156.54 46.2566 156.85 45.7071 156.704 45.1763C159.492 44.4202 162.315 43.7497 165.171 43.1679C165.279 43.7078 165.804 44.0592 166.344 43.9531C169.796 43.2761 173.295 42.7293 176.836 42.3181C177.383 42.2545 177.775 41.7601 177.714 41.213C180.58 40.9012 183.472 40.6775 186.388 40.5448C186.411 41.0949 186.875 41.5233 187.425 41.5021C189.19 41.4345 190.963 41.4004 192.744 41.4004C194.525 41.4004 196.298 41.4345 198.062 41.5021C198.613 41.5233 199.077 41.0949 199.1 40.5448C202.016 40.6775 204.908 40.9012 207.774 41.213C207.712 41.7601 208.105 42.2545 208.652 42.3181C212.193 42.7293 215.692 43.2761 219.143 43.9531C219.684 44.0592 220.209 43.7078 220.316 43.1679C223.172 43.7497 225.996 44.4202 228.784 45.1763C228.638 45.7071 228.948 46.2566 229.479 46.4048C232.904 47.3607 236.274 48.447 239.584 49.6579C240.102 49.8473 240.674 49.5822 240.866 49.0658C243.591 50.0858 246.275 51.19 248.915 52.375C248.687 52.8765 248.908 53.4678 249.409 53.6972C252.638 55.1754 255.798 56.776 258.884 58.493C259.365 58.7609 259.973 58.5888 260.242 58.1086C262.771 59.5397 265.248 61.0488 267.673 62.6325C267.37 63.0923 267.496 63.7108 267.955 64.0156C270.91 65.977 273.783 68.0506 276.568 70.2305C277.002 70.5701 277.629 70.4946 277.97 70.0622C280.242 71.8676 282.455 73.7437 284.606 75.687C284.235 76.0941 284.263 76.7247 284.669 77.0972C287.28 79.4912 289.796 81.9858 292.212 84.5749C292.587 84.9779 293.218 85.0007 293.622 84.6266C295.585 86.7614 297.479 88.9587 299.303 91.2152C298.874 91.5597 298.803 92.187 299.147 92.6181C301.351 95.3861 303.448 98.2421 305.431 101.18C305.74 101.637 306.359 101.758 306.817 101.451C308.42 103.863 309.948 106.33 311.397 108.846C310.919 109.119 310.751 109.728 311.023 110.207C312.763 113.282 314.385 116.431 315.884 119.648C316.117 120.148 316.71 120.365 317.209 120.134C318.412 122.766 319.532 125.443 320.567 128.162C320.052 128.356 319.79 128.93 319.982 129.447C321.212 132.75 322.315 136.115 323.286 139.535C323.437 140.065 323.988 140.373 324.518 140.224C325.286 143.01 325.968 145.83 326.56 148.684C326.02 148.794 325.67 149.319 325.778 149.86C326.466 153.309 327.022 156.806 327.441 160.345C327.505 160.892 328 161.283 328.547 161.221Z" stroke="#D02D91" stroke-width="2" stroke-linecap="round" stroke-dasharray="10.55 10.55"/>
<path d="M151.364 134.09L235.685 218.41" stroke="white" stroke-width="8" stroke-linecap="round"/>
<path d="M151.364 218.41L235.685 134.09" stroke="white" stroke-width="8" stroke-linecap="round"/>
</svg>
