<svg width="12" height="12" viewBox="0 0 12 12" fill="none" xmlns="http://www.w3.org/2000/svg">
    <defs>
        <linearGradient id="paint0_linear" x1="9.375" y1="1.125" x2="-6.482e-07" y2="12" gradientUnits="userSpaceOnUse">
            <stop stop-color="#049EDD"/>
            <stop offset="1" stop-color="#B23F9B"/>
        </linearGradient>
    </defs>
<path fill-rule="evenodd" clip-rule="evenodd" d="M0 6C0 2.68352 2.68397 0 6 0C9.31648 0 12 2.68397 12 6C12 9.31648 9.31601 12 6 12H0.46875C0.209859 12 0 11.7901 0 11.5312V6ZM0.9375 11.0625H6C8.79827 11.0625 11.0625 8.7979 11.0625 6C11.0625 3.20173 8.7979 0.9375 6 0.9375C3.20173 0.9375 0.9375 3.2021 0.9375 6V11.0625ZM5.92264 3.28125C4.81974 3.28125 4.31323 3.9348 4.31323 4.37597C4.31323 4.6946 4.58281 4.84165 4.8034 4.84165C4.9892 4.84165 5.06486 4.73007 5.15246 4.60089C5.27285 4.42336 5.41578 4.21259 5.89812 4.21259C6.30661 4.21259 6.6334 4.39233 6.6334 4.76813C6.6334 5.12913 6.32709 5.36429 6.06805 5.56317C6.01051 5.60734 5.9553 5.64973 5.9063 5.6913C5.6694 5.89554 5.35894 6.23051 5.35894 6.93309C5.35894 7.3579 5.47329 7.48045 5.80826 7.48045C6.20858 7.48045 6.29026 7.30073 6.29026 7.14551C6.29026 6.72068 6.29846 6.47559 6.74778 6.12431C6.96835 5.95275 7.66278 5.39721 7.66278 4.62926C7.66278 3.8613 6.96835 3.28125 5.92264 3.28125ZM5.81595 8.04419C5.47285 8.04419 5.19507 8.33013 5.19507 8.67325C5.19507 9.0082 5.46467 9.30231 5.81595 9.30231C6.16723 9.30231 6.44501 9.00822 6.44501 8.67325C6.44501 8.33013 6.1591 8.04419 5.81595 8.04419Z" fill="url(#paint0_linear)"/>
</svg>
