<svg width="24" height="24" viewBox="0 0 24 24" fill="none" xmlns="http://www.w3.org/2000/svg">
<mask id="path-1-inside-1" fill="white">
<path fill-rule="evenodd" clip-rule="evenodd" d="M18.844 5.77445C17.104 3.46264 14.43 2 11.4491 2C6.27831 2 2 6.42812 2 12C2 17.5719 6.27831 22 11.4491 22C15.2699 22 18.5934 19.5927 20.079 16.0793C20.294 15.5706 20.8808 15.3326 21.3894 15.5477C21.8981 15.7628 22.1361 16.3495 21.921 16.8582C20.1523 21.0413 16.1473 24 11.4491 24C5.07816 24 0 18.5784 0 12C0 5.42162 5.07816 0 11.4491 0C15.1451 0 18.4162 1.83369 20.5017 4.65205L22.8218 3.08125C23.2329 2.86722 23.4411 3.0986 23.4647 3.51154L23.9996 10.3829C24.0111 10.8864 23.7917 11.1015 23.2863 10.9547L16.411 8.30397C15.9213 8.08698 15.891 7.79944 16.2046 7.56143L18.844 5.77445Z"/>
</mask>
<path fill-rule="evenodd" clip-rule="evenodd" d="M18.844 5.77445C17.104 3.46264 14.43 2 11.4491 2C6.27831 2 2 6.42812 2 12C2 17.5719 6.27831 22 11.4491 22C15.2699 22 18.5934 19.5927 20.079 16.0793C20.294 15.5706 20.8808 15.3326 21.3894 15.5477C21.8981 15.7628 22.1361 16.3495 21.921 16.8582C20.1523 21.0413 16.1473 24 11.4491 24C5.07816 24 0 18.5784 0 12C0 5.42162 5.07816 0 11.4491 0C15.1451 0 18.4162 1.83369 20.5017 4.65205L22.8218 3.08125C23.2329 2.86722 23.4411 3.0986 23.4647 3.51154L23.9996 10.3829C24.0111 10.8864 23.7917 11.1015 23.2863 10.9547L16.411 8.30397C15.9213 8.08698 15.891 7.79944 16.2046 7.56143L18.844 5.77445Z" fill="#049EDD"/>
<path d="M18.844 5.77445L21.2409 3.97039L23.1376 6.49037L20.5259 8.25862L18.844 5.77445ZM20.079 16.0793L22.8421 17.2476L22.8421 17.2476L20.079 16.0793ZM21.3894 15.5477L20.2211 18.3108H20.2211L21.3894 15.5477ZM21.921 16.8582L19.1579 15.6898H19.1579L21.921 16.8582ZM20.5017 4.65205L22.1837 7.13622L19.8014 8.74912L18.0902 6.43653L20.5017 4.65205ZM22.8218 3.08125L21.1398 0.597079L21.2831 0.500098L21.4365 0.420223L22.8218 3.08125ZM23.4647 3.51154L20.4738 3.74434L20.4714 3.71348L20.4696 3.68257L23.4647 3.51154ZM23.9996 10.3829L26.9905 10.1501L26.9969 10.2321L26.9988 10.3144L23.9996 10.3829ZM23.2863 10.9547L22.4491 13.8355L22.3264 13.7998L22.2071 13.7538L23.2863 10.9547ZM16.411 8.30397L15.3319 11.1031L15.2631 11.0766L15.1958 11.0468L16.411 8.30397ZM16.2046 7.56143L14.3909 5.17176L14.4555 5.12273L14.5227 5.07725L16.2046 7.56143ZM11.4491 -1C15.4463 -1 18.9801 0.966628 21.2409 3.97039L16.447 7.57851C15.2278 5.95866 13.4136 5 11.4491 5V-1ZM-1 12C-1 4.91375 4.48247 -1 11.4491 -1V5C8.07415 5 5 7.94249 5 12H-1ZM11.4491 25C4.48247 25 -1 19.0863 -1 12H5C5 16.0575 8.07415 19 11.4491 19V25ZM22.8421 17.2476C20.9311 21.7672 16.5844 25 11.4491 25V19C13.9554 19 16.2557 17.4182 17.3158 14.911L22.8421 17.2476ZM20.2211 18.3108C21.2385 18.741 22.4119 18.265 22.8421 17.2476L17.3158 14.911C18.1762 12.8762 20.5231 11.9242 22.5578 12.7846L20.2211 18.3108ZM19.1579 15.6898C18.7277 16.7072 19.2037 17.8807 20.2211 18.3108L22.5578 12.7846C24.5925 13.6449 25.5445 15.9918 24.6842 18.0265L19.1579 15.6898ZM11.4491 21C14.8298 21 17.8133 18.8698 19.1579 15.6898L24.6842 18.0265C22.4913 23.2128 17.4649 27 11.4491 27V21ZM3 12C3 17.0725 6.88202 21 11.4491 21V27C3.2743 27 -3 20.0843 -3 12H3ZM11.4491 3C6.88202 3 3 6.92754 3 12H-3C-3 3.91569 3.2743 -3 11.4491 -3V3ZM18.0902 6.43653C16.5228 4.31831 14.1167 3 11.4491 3V-3C16.1736 -3 20.3097 -0.650926 22.9133 2.86756L18.0902 6.43653ZM18.8198 2.16787L21.1398 0.597079L24.5037 5.56543L22.1837 7.13622L18.8198 2.16787ZM21.4365 0.420223C22.1525 0.0475171 23.7039 -0.415657 25.1298 0.692751C26.2749 1.58291 26.4319 2.85197 26.4598 3.34051L20.4696 3.68257C20.4739 3.75818 20.5151 4.70508 21.4474 5.42981C22.6604 6.3728 23.9022 5.90096 24.207 5.74229L21.4365 0.420223ZM26.4557 3.27874L26.9905 10.1501L21.0086 10.6157L20.4738 3.74434L26.4557 3.27874ZM26.9988 10.3144C27.0104 10.8231 26.9605 12.2023 25.7713 13.2057C24.4963 14.2813 23.0405 14.0073 22.4491 13.8355L24.1235 8.07385C24.0375 8.04887 22.9441 7.74079 21.9023 8.61973C20.9462 9.42637 21.0002 10.4462 21.0004 10.4515L26.9988 10.3144ZM22.2071 13.7538L15.3319 11.1031L17.4902 5.5048L24.3655 8.1555L22.2071 13.7538ZM15.1958 11.0468C14.7349 10.8426 13.4437 10.1835 13.0828 8.61235C12.6589 6.7674 13.8668 5.56955 14.3909 5.17176L18.0183 9.9511C18.2289 9.79132 19.2951 8.85624 18.9304 7.26882C18.7737 6.58691 18.4036 6.14583 18.1543 5.91757C17.9102 5.694 17.6979 5.59285 17.6263 5.56113L15.1958 11.0468ZM14.5227 5.07725L17.162 3.29028L20.5259 8.25862L17.8866 10.0456L14.5227 5.07725Z" fill="#049EDD" mask="url(#path-1-inside-1)"/>
<path d="M8.7627 12.1543L9.21387 8.17969H13.5967V9.47412H10.4868L10.2935 11.1553C10.6623 10.9583 11.0544 10.8599 11.4697 10.8599C12.2145 10.8599 12.7982 11.0908 13.2207 11.5527C13.6432 12.0146 13.8545 12.661 13.8545 13.4917C13.8545 13.9966 13.7471 14.4495 13.5322 14.8506C13.321 15.248 13.0166 15.5578 12.6191 15.7798C12.2217 15.9982 11.7526 16.1074 11.2119 16.1074C10.7393 16.1074 10.3006 16.0125 9.896 15.8228C9.49137 15.6294 9.1709 15.359 8.93457 15.0117C8.70182 14.6644 8.57829 14.2687 8.56396 13.8247H10.1001C10.1323 14.1506 10.2451 14.4048 10.4385 14.5874C10.6354 14.7664 10.8914 14.856 11.2065 14.856C11.5575 14.856 11.8278 14.7306 12.0176 14.48C12.2074 14.2257 12.3022 13.8677 12.3022 13.4058C12.3022 12.9618 12.193 12.6216 11.9746 12.3853C11.7562 12.1489 11.4465 12.0308 11.0454 12.0308C10.6766 12.0308 10.3776 12.1274 10.1484 12.3208L9.99805 12.4604L8.7627 12.1543Z" fill="#049EDD"/>
</svg>
