<svg width="16" height="16" viewBox="0 0 16 16" fill="none" xmlns="http://www.w3.org/2000/svg">
<path d="M8.687 0C8.40551 0 8.12856 0.0209607 7.85546 0.0579913C7.57083 0.0199127 7.30052 0 7.0323 0C5.00217 0 3.1711 0.985153 1.88625 2.55546C1.87332 2.56699 1.86389 2.58096 1.85342 2.59459C1.44376 3.10183 1.09207 3.66987 0.807443 4.28437C0.800109 4.29799 0.793823 4.31127 0.788584 4.32559C0.59266 4.75493 0.428867 5.20629 0.30314 5.67651C0.290568 5.70306 0.285329 5.73205 0.281488 5.7621C0.0995334 6.47301 0 7.22341 0 8C0 9.21502 0.240626 10.3665 0.668096 11.3988C0.671938 11.41 0.67543 11.4204 0.680669 11.4309C0.937011 12.0426 1.25971 12.6117 1.63829 13.1259C1.64806 13.1392 1.6561 13.1532 1.66762 13.1647C2.05109 13.6793 2.49043 14.1373 2.97483 14.5279C2.98845 14.5429 3.00521 14.5544 3.02232 14.5663C4.16085 15.469 5.54279 16 7.0323 16C7.30052 16 7.57083 15.9801 7.85546 15.942C8.12856 15.979 8.40551 16 8.687 16C12.5646 16 15.7193 12.4112 15.7193 8C15.7193 3.58882 12.5646 0 8.687 0ZM5.77469 0.721048C5.68353 0.768559 5.59308 0.818166 5.50402 0.869869C5.45408 0.898865 5.40379 0.926812 5.3549 0.957205C5.27842 1.00402 5.20368 1.05362 5.12929 1.10358H4.59844C5.00147 0.914935 5.4223 0.766114 5.8613 0.673886C5.83196 0.68821 5.80402 0.706026 5.77469 0.721048ZM2.99508 12.6896H2.00604C1.76296 12.3459 1.54678 11.9766 1.35924 11.586H2.40382C2.44713 11.6838 2.49148 11.7806 2.53828 11.876C2.55853 11.9172 2.57949 11.9577 2.60044 11.9986C2.65702 12.1093 2.71534 12.2183 2.77646 12.3259C2.79916 12.3658 2.82081 12.4066 2.84421 12.4461C2.89276 12.5286 2.94375 12.6093 2.99508 12.6896ZM1.23212 4.68961H2.28752C2.23933 4.81013 2.19358 4.93205 2.15027 5.05572C2.1384 5.08996 2.12617 5.12384 2.11465 5.15808C2.07484 5.27686 2.03782 5.39633 2.00289 5.51721H0.925836C1.01349 5.23284 1.11617 4.95686 1.23212 4.68961ZM0.55145 8C0.55145 7.81415 0.561229 7.63074 0.573103 7.44838H1.67251C1.67216 7.45293 1.67216 7.45712 1.67181 7.46166C1.66168 7.63983 1.65435 7.81904 1.65435 8C1.65435 8.09258 1.65749 8.1841 1.66029 8.27598H0.562277C0.559133 8.18375 0.55145 8.09293 0.55145 8ZM1.69207 8.8276C1.70255 8.94358 1.71617 9.05921 1.73083 9.1738C1.73188 9.18218 1.73258 9.19057 1.73363 9.1993C1.75388 9.35266 1.77903 9.50463 1.80662 9.6552H0.719085C0.665302 9.38445 0.622695 9.10882 0.595454 8.8276H1.69207ZM1.8632 6.06882C1.85586 6.10131 1.84992 6.1345 1.84329 6.16699C1.83596 6.20332 1.82827 6.23965 1.82094 6.27598C1.78741 6.44891 1.75738 6.62358 1.73398 6.8007C1.73293 6.80908 1.73223 6.81747 1.73118 6.8262C1.72804 6.84961 1.72594 6.87301 1.7228 6.89642H0.628632C0.664953 6.61555 0.711053 6.33852 0.774265 6.06882H1.8632ZM1.9292 10.2068C1.93758 10.2403 1.94562 10.2746 1.9547 10.3081C1.95784 10.3203 1.96063 10.3329 1.96413 10.3452C2.00953 10.5132 2.06052 10.6784 2.11535 10.8416C2.12687 10.8762 2.1391 10.9097 2.15097 10.9439C2.1611 10.9743 2.17123 11.0047 2.18205 11.0344H1.11897C1.01454 10.7665 0.924439 10.4901 0.847955 10.2068H1.9292ZM2.84386 3.55424C2.82081 3.59371 2.79846 3.63459 2.77611 3.67441C2.71499 3.78166 2.65632 3.891 2.60009 4.00175C2.57949 4.04262 2.55818 4.08279 2.53793 4.12437C2.53583 4.12891 2.53339 4.13345 2.53094 4.13799H1.49719C1.70604 3.74428 1.94632 3.37607 2.21313 3.03441H3.17913C3.14561 3.08262 3.11173 3.13083 3.0789 3.17974C2.99753 3.30201 2.91895 3.42672 2.84386 3.55424ZM3.64921 1.6552H4.4109C4.34245 1.71493 4.274 1.77502 4.20764 1.8379C4.15212 1.89031 4.09833 1.9448 4.04455 1.99895C3.99007 2.0538 3.93594 2.10969 3.88285 2.16629C3.83186 2.22079 3.78087 2.27459 3.73128 2.33083C3.68728 2.38044 3.64502 2.43214 3.60206 2.48314H2.69124C2.9874 2.17467 3.3073 1.89694 3.64921 1.6552ZM2.43351 13.2412H3.37995C3.41103 13.2821 3.44211 13.323 3.47389 13.3628C3.55701 13.4676 3.64292 13.5696 3.73093 13.6692C3.78017 13.7251 3.83151 13.7792 3.8825 13.8337C3.93559 13.8907 3.98972 13.9462 4.04455 14.001C4.06655 14.0231 4.08751 14.0468 4.10986 14.0685H3.28076C2.97762 13.8211 2.69439 13.5441 2.43351 13.2412ZM5.8613 15.3265C5.22882 15.1934 4.63127 14.9488 4.07703 14.6208H4.74408C4.77935 14.648 4.81567 14.6739 4.85129 14.7001C4.90822 14.7427 4.9655 14.7853 5.02382 14.8259C5.13208 14.9013 5.24279 14.974 5.3549 15.0428C5.40414 15.0728 5.45408 15.1011 5.50402 15.1301C5.59308 15.1818 5.68318 15.2314 5.77469 15.279C5.80402 15.294 5.83196 15.3118 5.8613 15.3265ZM8.687 15.4484C8.46768 15.4484 8.25115 15.4355 8.03776 15.411L7.93089 15.396C7.91588 15.3939 7.90156 15.3914 7.88689 15.3897C7.79155 15.3761 7.6969 15.3603 7.60296 15.3422C7.59492 15.3404 7.58724 15.339 7.57956 15.3373C7.48841 15.3195 7.39795 15.2992 7.3082 15.2769C7.29458 15.2737 7.28131 15.2695 7.26769 15.266C7.18422 15.2444 7.10075 15.222 7.01868 15.1969C6.99353 15.1892 6.96839 15.1804 6.94324 15.1724C6.87305 15.15 6.80285 15.127 6.7337 15.1022C6.67747 15.0819 6.62194 15.0592 6.56641 15.0372C6.5287 15.0222 6.49028 15.0082 6.45291 14.9925C4.97004 14.3651 3.74036 13.1308 2.99229 11.5535C2.9853 11.5392 2.97902 11.5242 2.97238 11.5095C2.93222 11.4236 2.89345 11.3369 2.85644 11.2493C2.84142 11.2143 2.8278 11.1787 2.81348 11.1434C2.78554 11.0749 2.75795 11.0065 2.73211 10.9369C2.71534 10.8922 2.69963 10.8468 2.68356 10.8014C2.66191 10.7403 2.64026 10.6788 2.62 10.6166C2.60359 10.5659 2.58787 10.5146 2.57215 10.4636C2.55434 10.4052 2.53688 10.3469 2.52047 10.2882C2.5051 10.2344 2.49043 10.1799 2.47646 10.1254C2.46144 10.0678 2.44713 10.0094 2.43351 9.95144C2.42023 9.89555 2.40766 9.84 2.39544 9.78376C2.38287 9.72507 2.37134 9.66603 2.35982 9.60664C2.34899 9.55004 2.33816 9.49345 2.32838 9.43651C2.31791 9.37537 2.30883 9.31424 2.29975 9.25275C2.29136 9.19686 2.28298 9.14166 2.27565 9.08541C2.26727 9.01904 2.26063 8.95231 2.25365 8.88559C2.24806 8.83354 2.24212 8.78148 2.23758 8.72908C2.23095 8.65223 2.22641 8.57502 2.22221 8.49747C2.21977 8.4538 2.21628 8.41083 2.21418 8.36716C2.20929 8.24594 2.20615 8.12367 2.20615 8.0007C2.20615 7.87773 2.20929 7.75546 2.21418 7.63389C2.21628 7.59022 2.21977 7.5469 2.22221 7.50358C2.22675 7.42638 2.23095 7.34882 2.23758 7.27197C2.24212 7.21956 2.24806 7.16786 2.25365 7.11546C2.26063 7.04873 2.26727 6.98201 2.27565 6.91528C2.28298 6.85939 2.29136 6.80349 2.29975 6.74795C2.30883 6.68646 2.31791 6.62533 2.32838 6.56419C2.33816 6.50725 2.34864 6.45065 2.35982 6.39406C2.37099 6.33467 2.38287 6.27563 2.39544 6.21694C2.40766 6.1607 2.42023 6.1048 2.43351 6.04926C2.44713 5.99092 2.46179 5.93293 2.47646 5.87528C2.49043 5.82079 2.5051 5.76629 2.52047 5.71214C2.53688 5.65345 2.55434 5.59476 2.57215 5.53677C2.58787 5.48541 2.60359 5.43441 2.62 5.38376C2.64026 5.32157 2.66191 5.26009 2.68356 5.1986C2.69963 5.15319 2.71534 5.10812 2.73211 5.06341C2.7583 4.99389 2.78554 4.92507 2.81348 4.85694C2.8278 4.82166 2.84177 4.78603 2.85644 4.75109C2.8938 4.66341 2.93257 4.57677 2.97238 4.49083C2.97937 4.47616 2.9853 4.46148 2.99229 4.44681C3.74036 2.86952 4.97004 1.63563 6.45291 1.00786C6.49028 0.99214 6.52835 0.978166 6.56641 0.963144C6.62194 0.941135 6.67712 0.918428 6.7337 0.898166C6.80285 0.873013 6.87305 0.850306 6.94324 0.827948C6.96839 0.819913 6.99318 0.811179 7.01868 0.803493C7.10075 0.778341 7.18422 0.755633 7.26769 0.734323C7.28096 0.731179 7.29458 0.726987 7.30785 0.723843C7.3976 0.701485 7.48806 0.681572 7.57921 0.663406C7.58724 0.661659 7.59492 0.660262 7.60261 0.658515C7.6962 0.640349 7.79085 0.624629 7.88654 0.611004C7.90121 0.608908 7.91588 0.606463 7.93054 0.604716L8.03741 0.589694C8.25115 0.565589 8.46768 0.552314 8.687 0.552314C12.2604 0.552314 15.1678 3.89345 15.1678 8.0007C15.1678 12.1079 12.2604 15.4484 8.687 15.4484Z" fill="url(#paint0_linear)"/>
<path d="M3.76908 8.0007C3.76908 7.82708 3.77607 7.65276 3.78934 7.48228C3.80121 7.33066 3.68806 7.19756 3.53614 7.18533C3.38352 7.17416 3.25151 7.28699 3.23929 7.43861C3.22462 7.62306 3.21729 7.81241 3.21729 8.0007V8.00664C3.21729 8.15896 3.34092 8.27948 3.49318 8.27948C3.64545 8.27948 3.76908 8.15302 3.76908 8.0007Z" fill="url(#paint1_linear)"/>
<path d="M13.4127 6.42652C13.4441 6.55193 13.5562 6.63508 13.6799 6.63508C13.7022 6.63508 13.7249 6.63228 13.7473 6.62669C13.8946 6.58931 13.9844 6.43979 13.9474 6.29167C13.9009 6.10757 13.8468 5.92381 13.7853 5.7453C13.7361 5.60137 13.5793 5.52381 13.435 5.57377C13.2912 5.62303 13.214 5.78023 13.2636 5.92416C13.3201 6.088 13.3701 6.25709 13.4127 6.42652Z" fill="url(#paint2_linear)"/>
<path d="M12.2783 11.8674C12.1679 12.0033 12.0513 12.1329 11.9315 12.2542C11.8243 12.3625 11.825 12.5368 11.9332 12.6444C11.987 12.6975 12.0572 12.7244 12.1274 12.7244C12.1983 12.7244 12.2696 12.6971 12.3233 12.6426C12.4561 12.5088 12.5849 12.3653 12.7065 12.2157C12.8029 12.0973 12.7843 11.9237 12.6663 11.8276C12.5483 11.7312 12.3747 11.7494 12.2783 11.8674Z" fill="url(#paint3_linear)"/>
<path d="M3.9586 9.56401C3.92193 9.41624 3.77176 9.32576 3.62438 9.36279C3.47665 9.39947 3.38655 9.54934 3.42322 9.69711C3.46897 9.88121 3.5231 10.065 3.58387 10.2438C3.62298 10.3584 3.7302 10.4307 3.84475 10.4307C3.87409 10.4307 3.90447 10.4258 3.93381 10.4157C4.07769 10.3665 4.15488 10.2099 4.10598 10.0657C4.05045 9.90218 4.00086 9.73309 3.9586 9.56401Z" fill="url(#paint4_linear)"/>
<path d="M11.4054 2.60755C11.2444 2.5024 11.076 2.40563 10.9056 2.31969C10.7694 2.25087 10.6039 2.30607 10.5351 2.44161C10.4663 2.57751 10.5211 2.7438 10.657 2.81227C10.8096 2.88912 10.9598 2.97576 11.104 3.07008C11.1504 3.10048 11.2028 3.1148 11.2542 3.1148C11.3443 3.1148 11.4326 3.07078 11.4857 2.98939C11.5688 2.86222 11.5329 2.69104 11.4054 2.60755Z" fill="url(#paint5_linear)"/>
<path d="M10.688 13.174C10.5347 13.2526 10.3765 13.3228 10.2175 13.3829C10.0751 13.4363 10.0031 13.5956 10.0569 13.7381C10.0985 13.8489 10.2032 13.917 10.315 13.917C10.3471 13.917 10.3799 13.9111 10.4124 13.8992C10.5909 13.8318 10.7683 13.7532 10.9401 13.6651C11.0756 13.5956 11.1294 13.4293 11.0596 13.2938C10.9897 13.1582 10.8235 13.1044 10.688 13.174Z" fill="url(#paint6_linear)"/>
<path d="M13.0251 4.21438C12.9178 4.05578 12.8026 3.90172 12.6821 3.75569C12.5854 3.63831 12.4114 3.6212 12.2938 3.71831C12.1764 3.81508 12.1593 3.98906 12.2564 4.10679C12.3657 4.23954 12.4705 4.37997 12.5679 4.5239C12.621 4.60286 12.7079 4.64513 12.7967 4.64513C12.8497 4.64513 12.9035 4.62975 12.951 4.59761C13.0774 4.51168 13.1106 4.34015 13.0251 4.21438Z" fill="url(#paint7_linear)"/>
<path d="M13.8812 7.71582C13.729 7.71582 13.6053 7.84822 13.6053 8.00054C13.6053 8.16962 13.5987 8.34045 13.5858 8.50744C13.5742 8.6594 13.6874 8.79215 13.8393 8.80368C13.8467 8.80438 13.8536 8.80438 13.861 8.80438C14.0035 8.80438 14.1246 8.69469 14.1355 8.54971C14.1494 8.36805 14.1568 8.18324 14.1568 7.99984V7.98202C14.1568 7.83041 14.0335 7.71582 13.8812 7.71582Z" fill="url(#paint8_linear)"/>
<path d="M13.6246 9.87089C13.48 9.82233 13.3239 9.90023 13.2753 10.0445C13.2194 10.2098 13.1566 10.3739 13.0874 10.5325C13.0267 10.6723 13.0906 10.8347 13.2303 10.8955C13.2662 10.9112 13.3036 10.9186 13.3403 10.9186C13.4468 10.9186 13.5481 10.8564 13.5931 10.7526C13.6686 10.5797 13.7374 10.4005 13.7981 10.2202C13.8467 10.076 13.7691 9.91945 13.6246 9.87089Z" fill="url(#paint9_linear)"/>
<path d="M9.25183 1.81995C9.06499 1.79829 8.875 1.78711 8.68676 1.78711H8.67524C8.52297 1.78711 8.40527 1.91078 8.40527 2.06309C8.40527 2.21541 8.53449 2.33907 8.68676 2.33907C8.8537 2.33907 9.02238 2.34886 9.18827 2.36807C9.1991 2.36947 9.20992 2.37017 9.2204 2.37017C9.35835 2.37017 9.47779 2.26676 9.49386 2.12597C9.51167 1.97401 9.4034 1.83742 9.25183 1.81995Z" fill="url(#paint10_linear)"/>
<path d="M4.79883 11.4664C4.71362 11.3399 4.54214 11.3067 4.41607 11.392C4.28964 11.4772 4.25646 11.6484 4.34168 11.7749C4.44855 11.9335 4.5638 12.0879 4.68324 12.2343C4.73772 12.3006 4.817 12.3352 4.89662 12.3352C4.95809 12.3352 5.02025 12.315 5.07159 12.2727C5.18929 12.1759 5.2064 12.0023 5.11001 11.8842C5.00105 11.7518 4.89627 11.611 4.79883 11.4664Z" fill="url(#paint11_linear)"/>
<path d="M4.14937 5.09341C4.00968 5.03263 3.84728 5.09586 3.78617 5.2356C3.71038 5.40922 3.64123 5.58808 3.58011 5.7673C3.53122 5.91158 3.6084 6.06843 3.75264 6.11734C3.78197 6.12712 3.81201 6.13201 3.841 6.13201C3.9559 6.13201 4.06311 6.05935 4.10223 5.94476C4.15811 5.78022 4.22167 5.61603 4.29117 5.45638C4.35298 5.31699 4.28907 5.1542 4.14937 5.09341Z" fill="url(#paint12_linear)"/>
<path d="M8.68662 13.6629C8.51514 13.6629 8.34262 13.6527 8.17428 13.6325C8.02411 13.6164 7.88581 13.7223 7.86765 13.8739C7.84984 14.0251 7.95741 14.1624 8.10898 14.1806C8.29931 14.2033 8.49384 14.2148 8.68697 14.2148H8.71072C8.86299 14.2148 8.97474 14.0912 8.97474 13.9388C8.97474 13.7865 8.83889 13.6629 8.68662 13.6629Z" fill="url(#paint13_linear)"/>
<path d="M5.059 3.34982C4.92629 3.48362 4.79707 3.62685 4.67553 3.77602C4.57914 3.8941 4.5966 4.06773 4.71465 4.16415C4.76598 4.20607 4.8278 4.22633 4.88892 4.22633C4.96889 4.22633 5.04817 4.19175 5.10265 4.12502C5.21336 3.98947 5.33001 3.85952 5.45049 3.73864C5.55771 3.63035 5.55736 3.45602 5.44945 3.34843C5.34118 3.24118 5.16691 3.24223 5.059 3.34982Z" fill="url(#paint14_linear)"/>
<path d="M6.97396 2.09866C6.79515 2.16574 6.61739 2.24399 6.44556 2.33168C6.30971 2.4005 6.25592 2.56713 6.32507 2.70268C6.37362 2.7984 6.47036 2.85325 6.57094 2.85325C6.6132 2.85325 6.6558 2.84347 6.69597 2.8232C6.84928 2.7453 7.00784 2.67508 7.16709 2.61534C7.30958 2.56189 7.38222 2.40294 7.32879 2.26041C7.27536 2.11753 7.1161 2.04521 6.97396 2.09866Z" fill="url(#paint15_linear)"/>
<path d="M6.70735 13.1846C6.55578 13.1078 6.40526 13.0204 6.26102 12.9258C6.1332 12.8426 5.96277 12.8782 5.87896 13.0054C5.79584 13.1329 5.83111 13.3037 5.95858 13.3872C6.11993 13.4927 6.28792 13.5902 6.4573 13.6765C6.49746 13.6968 6.54007 13.7062 6.58197 13.7062C6.68256 13.7062 6.7793 13.651 6.82819 13.5553C6.89734 13.4197 6.84286 13.2538 6.70735 13.1846Z" fill="url(#paint16_linear)"/>
<defs>
<linearGradient id="paint0_linear" x1="2.31945" y1="17.3192" x2="9.41785" y2="5.38814" gradientUnits="userSpaceOnUse">
<stop stop-color="#D02E90"/>
<stop offset="0.1043" stop-color="#C73394"/>
<stop offset="0.2778" stop-color="#AD429D"/>
<stop offset="0.4992" stop-color="#845AAD"/>
<stop offset="0.7568" stop-color="#4B7AC2"/>
<stop offset="0.9944" stop-color="#109CD8"/>
</linearGradient>
<linearGradient id="paint1_linear" x1="-1.01715" y1="15.3347" x2="6.08122" y2="3.40368" gradientUnits="userSpaceOnUse">
<stop stop-color="#D02E90"/>
<stop offset="0.1043" stop-color="#C73394"/>
<stop offset="0.2778" stop-color="#AD429D"/>
<stop offset="0.4992" stop-color="#845AAD"/>
<stop offset="0.7568" stop-color="#4B7AC2"/>
<stop offset="0.9944" stop-color="#109CD8"/>
</linearGradient>
<linearGradient id="paint2_linear" x1="5.72486" y1="19.346" x2="12.8233" y2="7.41493" gradientUnits="userSpaceOnUse">
<stop stop-color="#D02E90"/>
<stop offset="0.1043" stop-color="#C73394"/>
<stop offset="0.2778" stop-color="#AD429D"/>
<stop offset="0.4992" stop-color="#845AAD"/>
<stop offset="0.7568" stop-color="#4B7AC2"/>
<stop offset="0.9944" stop-color="#109CD8"/>
</linearGradient>
<linearGradient id="paint3_linear" x1="7.47053" y1="20.384" x2="14.5689" y2="8.45294" gradientUnits="userSpaceOnUse">
<stop stop-color="#D02E90"/>
<stop offset="0.1043" stop-color="#C73394"/>
<stop offset="0.2778" stop-color="#AD429D"/>
<stop offset="0.4992" stop-color="#845AAD"/>
<stop offset="0.7568" stop-color="#4B7AC2"/>
<stop offset="0.9944" stop-color="#109CD8"/>
</linearGradient>
<linearGradient id="paint4_linear" x1="0.127574" y1="16.0154" x2="7.22597" y2="4.08431" gradientUnits="userSpaceOnUse">
<stop stop-color="#D02E90"/>
<stop offset="0.1043" stop-color="#C73394"/>
<stop offset="0.2778" stop-color="#AD429D"/>
<stop offset="0.4992" stop-color="#845AAD"/>
<stop offset="0.7568" stop-color="#4B7AC2"/>
<stop offset="0.9944" stop-color="#109CD8"/>
</linearGradient>
<linearGradient id="paint5_linear" x1="2.32449" y1="17.3236" x2="9.42289" y2="5.39251" gradientUnits="userSpaceOnUse">
<stop stop-color="#D02E90"/>
<stop offset="0.1043" stop-color="#C73394"/>
<stop offset="0.2778" stop-color="#AD429D"/>
<stop offset="0.4992" stop-color="#845AAD"/>
<stop offset="0.7568" stop-color="#4B7AC2"/>
<stop offset="0.9944" stop-color="#109CD8"/>
</linearGradient>
<linearGradient id="paint6_linear" x1="6.74555" y1="19.9531" x2="13.844" y2="8.022" gradientUnits="userSpaceOnUse">
<stop stop-color="#D02E90"/>
<stop offset="0.1043" stop-color="#C73394"/>
<stop offset="0.2778" stop-color="#AD429D"/>
<stop offset="0.4992" stop-color="#845AAD"/>
<stop offset="0.7568" stop-color="#4B7AC2"/>
<stop offset="0.9944" stop-color="#109CD8"/>
</linearGradient>
<linearGradient id="paint7_linear" x1="4.15387" y1="18.4104" x2="11.2523" y2="6.47932" gradientUnits="userSpaceOnUse">
<stop stop-color="#D02E90"/>
<stop offset="0.1043" stop-color="#C73394"/>
<stop offset="0.2778" stop-color="#AD429D"/>
<stop offset="0.4992" stop-color="#845AAD"/>
<stop offset="0.7568" stop-color="#4B7AC2"/>
<stop offset="0.9944" stop-color="#109CD8"/>
</linearGradient>
<linearGradient id="paint8_linear" x1="6.87479" y1="20.0298" x2="13.9732" y2="8.09867" gradientUnits="userSpaceOnUse">
<stop stop-color="#D02E90"/>
<stop offset="0.1043" stop-color="#C73394"/>
<stop offset="0.2778" stop-color="#AD429D"/>
<stop offset="0.4992" stop-color="#845AAD"/>
<stop offset="0.7568" stop-color="#4B7AC2"/>
<stop offset="0.9944" stop-color="#109CD8"/>
</linearGradient>
<linearGradient id="paint9_linear" x1="7.48842" y1="20.3942" x2="14.5868" y2="8.46313" gradientUnits="userSpaceOnUse">
<stop stop-color="#D02E90"/>
<stop offset="0.1043" stop-color="#C73394"/>
<stop offset="0.2778" stop-color="#AD429D"/>
<stop offset="0.4992" stop-color="#845AAD"/>
<stop offset="0.7568" stop-color="#4B7AC2"/>
<stop offset="0.9944" stop-color="#109CD8"/>
</linearGradient>
<linearGradient id="paint10_linear" x1="0.522904" y1="16.2511" x2="7.62129" y2="4.31998" gradientUnits="userSpaceOnUse">
<stop stop-color="#D02E90"/>
<stop offset="0.1043" stop-color="#C73394"/>
<stop offset="0.2778" stop-color="#AD429D"/>
<stop offset="0.4992" stop-color="#845AAD"/>
<stop offset="0.7568" stop-color="#4B7AC2"/>
<stop offset="0.9944" stop-color="#109CD8"/>
</linearGradient>
<linearGradient id="paint11_linear" x1="1.69628" y1="16.9482" x2="8.79467" y2="5.01713" gradientUnits="userSpaceOnUse">
<stop stop-color="#D02E90"/>
<stop offset="0.1043" stop-color="#C73394"/>
<stop offset="0.2778" stop-color="#AD429D"/>
<stop offset="0.4992" stop-color="#845AAD"/>
<stop offset="0.7568" stop-color="#4B7AC2"/>
<stop offset="0.9944" stop-color="#109CD8"/>
</linearGradient>
<linearGradient id="paint12_linear" x1="-1.63002" y1="14.9693" x2="5.46836" y2="3.03819" gradientUnits="userSpaceOnUse">
<stop stop-color="#D02E90"/>
<stop offset="0.1043" stop-color="#C73394"/>
<stop offset="0.2778" stop-color="#AD429D"/>
<stop offset="0.4992" stop-color="#845AAD"/>
<stop offset="0.7568" stop-color="#4B7AC2"/>
<stop offset="0.9944" stop-color="#109CD8"/>
</linearGradient>
<linearGradient id="paint13_linear" x1="5.33492" y1="19.1145" x2="12.4333" y2="7.18344" gradientUnits="userSpaceOnUse">
<stop stop-color="#D02E90"/>
<stop offset="0.1043" stop-color="#C73394"/>
<stop offset="0.2778" stop-color="#AD429D"/>
<stop offset="0.4992" stop-color="#845AAD"/>
<stop offset="0.7568" stop-color="#4B7AC2"/>
<stop offset="0.9944" stop-color="#109CD8"/>
</linearGradient>
<linearGradient id="paint14_linear" x1="-1.60892" y1="14.9833" x2="5.48948" y2="3.05223" gradientUnits="userSpaceOnUse">
<stop stop-color="#D02E90"/>
<stop offset="0.1043" stop-color="#C73394"/>
<stop offset="0.2778" stop-color="#AD429D"/>
<stop offset="0.4992" stop-color="#845AAD"/>
<stop offset="0.7568" stop-color="#4B7AC2"/>
<stop offset="0.9944" stop-color="#109CD8"/>
</linearGradient>
<linearGradient id="paint15_linear" x1="-0.879755" y1="15.4176" x2="6.21864" y2="3.48653" gradientUnits="userSpaceOnUse">
<stop stop-color="#D02E90"/>
<stop offset="0.1043" stop-color="#C73394"/>
<stop offset="0.2778" stop-color="#AD429D"/>
<stop offset="0.4992" stop-color="#845AAD"/>
<stop offset="0.7568" stop-color="#4B7AC2"/>
<stop offset="0.9944" stop-color="#109CD8"/>
</linearGradient>
<linearGradient id="paint16_linear" x1="3.52539" y1="18.0374" x2="10.6238" y2="6.10633" gradientUnits="userSpaceOnUse">
<stop stop-color="#D02E90"/>
<stop offset="0.1043" stop-color="#C73394"/>
<stop offset="0.2778" stop-color="#AD429D"/>
<stop offset="0.4992" stop-color="#845AAD"/>
<stop offset="0.7568" stop-color="#4B7AC2"/>
<stop offset="0.9944" stop-color="#109CD8"/>
</linearGradient>
</defs>
</svg>
