<svg width="16" height="16" viewBox="0 0 16 16" fill="none" xmlns="http://www.w3.org/2000/svg">
<g clip-path="url(#clip0)">
<path d="M10.0117 0.50712H10.0117C10.0127 -0.0356674 10.4312 -0.5 11.0077 -0.5H15.5002C16.0554 -0.5 16.5002 -0.0551425 16.5002 0.5C16.5002 0.501258 16.5002 0.502508 16.5002 0.503749C16.5002 0.504992 16.5002 0.506242 16.5002 0.5075V0.508388L16.4922 5.0115C16.4922 5.01163 16.4922 5.01176 16.4922 5.01189L16.4922 5.01239L15.9922 5.0115C15.9922 5.2955 15.7762 5.511 15.4922 5.5115L10.0117 0.50712ZM10.0117 0.50712V0.508C10.0117 1.07265 10.4526 1.5 11.0077 1.5H14.4992L10.0117 0.50712ZM16.4906 0.59836C16.4908 0.597277 16.4911 0.595783 16.4914 0.594143L16.4907 0.598008L16.4906 0.59836ZM16.4906 0.59836C16.4903 0.599669 16.4902 0.600375 16.4903 0.600006L16.4904 0.599448L16.4906 0.59836Z" fill="white" stroke="white" stroke-linecap="square"/>
<path d="M-0.5 5.004V5.00311L-0.492 0.5C-0.492 0.499832 -0.492 0.499664 -0.492 0.499496L-0.491999 0.499112L0.008 0.5L-0.5 5.004ZM-0.5 5.004C-0.5 5.57972 -0.0362999 6 0.508 6C1.07244 6 1.49969 5.55943 1.5 5.00461L-0.5 5.004ZM1.507 1.5L1.5 5.004L1.507 1.5ZM1.507 1.5H5.008C5.56814 1.5 6.008 1.06014 6.008 0.5L6.008 0.499119C6.00701 -0.0598486 5.56813 -0.5 5.008 -0.5H0.5155C0.514234 -0.5 0.512976 -0.499995 0.511727 -0.499986L1.507 1.5ZM0.604193 -0.490747L0.603487 -0.490882C0.603726 -0.490836 0.603962 -0.490791 0.604193 -0.490747ZM0.604193 -0.490747C0.605274 -0.49054 0.606244 -0.49035 0.606921 -0.490217M0.604193 -0.490747L0.606391 -0.490322L0.606921 -0.490217M0.606921 -0.490217C0.607701 -0.490063 0.608091 -0.489984 0.607808 -0.49004L0.607396 -0.490123L0.606921 -0.490217Z" fill="white" stroke="white" stroke-linecap="square"/>
<path d="M-0.490339 15.4014C-0.490553 15.4025 -0.490853 15.4041 -0.491172 15.4058L-0.490434 15.4019L-0.490339 15.4014ZM-0.490339 15.4014C-0.490098 15.4002 -0.489966 15.3996 -0.490037 15.3999L-0.490149 15.4005L-0.490339 15.4014ZM5.9885 15.4929V15.492C5.9885 14.9273 5.54761 14.5 4.9925 14.5H1.5V11C1.5 10.4399 1.06014 10 0.5 10C-0.0601424 10 -0.5 10.4399 -0.5 11V15.4925C-0.5 15.4938 -0.499995 15.495 -0.499986 15.4963C-0.499995 15.4975 -0.5 15.4987 -0.5 15.5C-0.5 16.0551 -0.0551425 16.5 0.5 16.5H4.9925C5.56901 16.5 5.98754 16.0357 5.9885 15.4929Z" fill="white" stroke="white" stroke-linecap="square"/>
<path d="M15.4963 16.4992C15.495 16.4992 15.4938 16.4992 15.4925 16.4992H11C10.4399 16.4992 10 16.0594 10 15.4992C10 14.9391 10.4399 14.4992 11 14.4992H14.5V11.007V11.0067H15L15.4963 16.4992ZM15.4963 16.4992C15.4975 16.4992 15.4987 16.4992 15.5 16.4992C15.5108 16.4992 15.5215 16.4991 15.5322 16.4987" fill="white" stroke="white" stroke-linecap="square"/>
</g>
<defs>
<clipPath id="clip0">
<rect width="16" height="16" fill="white"/>
</clipPath>
</defs>
</svg>
