<svg width="16" height="16" viewBox="0 0 16 16" fill="none" xmlns="http://www.w3.org/2000/svg">
<defs>
        <linearGradient id="paint0_linear" x1="9.88776" y1="-6.00101e-08" x2="1.97305" y2="16.1121" gradientUnits="userSpaceOnUse">
            <stop stop-color="#049EDD"/>
            <stop offset="1" stop-color="#B1409C"/>
        </linearGradient>
        <linearGradient id="paint1_linear" x1="9.88776" y1="-6.00101e-08" x2="1.97305" y2="16.1121" gradientUnits="userSpaceOnUse">
            <stop stop-color="#049EDD"/>
            <stop offset="1" stop-color="#B1409C"/>
        </linearGradient>
        <linearGradient id="paint2_linear" x1="9.88776" y1="-6.00101e-08" x2="1.97305" y2="16.1121" gradientUnits="userSpaceOnUse">
            <stop stop-color="#049EDD"/>
            <stop offset="1" stop-color="#B1409C"/>
        </linearGradient>
        <linearGradient id="paint3_linear" x1="9.88776" y1="-6.00101e-08" x2="1.97305" y2="16.1121" gradientUnits="userSpaceOnUse">
            <stop stop-color="#049EDD"/>
            <stop offset="1" stop-color="#B1409C"/>
        </linearGradient>
        <linearGradient id="paint4_linear" x1="9.88776" y1="-6.00101e-08" x2="1.97305" y2="16.1121" gradientUnits="userSpaceOnUse">
            <stop stop-color="#049EDD"/>
            <stop offset="1" stop-color="#B1409C"/>
        </linearGradient>
        <linearGradient id="paint5_linear" x1="9.88776" y1="-6.00101e-08" x2="1.97305" y2="16.1121" gradientUnits="userSpaceOnUse">
            <stop stop-color="#049EDD"/>
            <stop offset="1" stop-color="#B1409C"/>
        </linearGradient>
        <linearGradient id="paint6_linear" x1="9.88776" y1="-6.00101e-08" x2="1.97305" y2="16.1121" gradientUnits="userSpaceOnUse">
            <stop stop-color="#049EDD"/>
            <stop offset="1" stop-color="#B1409C"/>
        </linearGradient>
        <linearGradient id="paint7_linear" x1="9.88776" y1="-6.00101e-08" x2="1.97305" y2="16.1121" gradientUnits="userSpaceOnUse">
            <stop stop-color="#049EDD"/>
            <stop offset="1" stop-color="#B1409C"/>
        </linearGradient>
        <linearGradient id="paint8_linear" x1="9.88776" y1="-6.00101e-08" x2="1.97305" y2="16.1121" gradientUnits="userSpaceOnUse">
            <stop stop-color="#049EDD"/>
            <stop offset="1" stop-color="#B1409C"/>
        </linearGradient>
        <linearGradient id="paint9_linear" x1="9.88776" y1="-6.00101e-08" x2="1.97305" y2="16.1121" gradientUnits="userSpaceOnUse">
            <stop stop-color="#049EDD"/>
            <stop offset="1" stop-color="#B1409C"/>
        </linearGradient>
        <linearGradient id="paint10_linear" x1="9.88776" y1="-6.00101e-08" x2="1.97305" y2="16.1121" gradientUnits="userSpaceOnUse">
            <stop stop-color="#049EDD"/>
            <stop offset="1" stop-color="#B1409C"/>
        </linearGradient>
        <linearGradient id="paint11_linear" x1="9.88776" y1="-6.00101e-08" x2="1.97305" y2="16.1121" gradientUnits="userSpaceOnUse">
            <stop stop-color="#049EDD"/>
            <stop offset="1" stop-color="#B1409C"/>
        </linearGradient>
        <linearGradient id="paint12_linear" x1="9.88776" y1="-6.00101e-08" x2="1.97305" y2="16.1121" gradientUnits="userSpaceOnUse">
            <stop stop-color="#049EDD"/>
            <stop offset="1" stop-color="#B1409C"/>
        </linearGradient>
        <linearGradient id="paint13_linear" x1="9.88776" y1="-6.00101e-08" x2="1.97305" y2="16.1121" gradientUnits="userSpaceOnUse">
            <stop stop-color="#049EDD"/>
            <stop offset="1" stop-color="#B1409C"/>
        </linearGradient>
        <linearGradient id="paint14_linear" x1="9.88776" y1="-6.00101e-08" x2="1.97305" y2="16.1121" gradientUnits="userSpaceOnUse">
            <stop stop-color="#049EDD"/>
            <stop offset="1" stop-color="#B1409C"/>
        </linearGradient>
        <linearGradient id="paint15_linear" x1="9.88776" y1="-6.00101e-08" x2="1.97305" y2="16.1121" gradientUnits="userSpaceOnUse">
            <stop stop-color="#049EDD"/>
            <stop offset="1" stop-color="#B1409C"/>
        </linearGradient>
        <linearGradient id="paint16_linear" x1="9.88776" y1="-6.00101e-08" x2="1.97305" y2="16.1121" gradientUnits="userSpaceOnUse">
            <stop stop-color="#049EDD"/>
            <stop offset="1" stop-color="#B1409C"/>
        </linearGradient>
    </defs>
<path d="M8.84212 0C8.55561 0 8.27372 0.0209607 7.99573 0.0579913C7.70602 0.0199127 7.43088 0 7.15788 0C5.09149 0 3.22773 0.985153 1.91993 2.55546C1.90678 2.56699 1.89718 2.58096 1.88651 2.59458C1.46954 3.10183 1.11158 3.66987 0.821862 4.28437C0.814397 4.29799 0.807998 4.31127 0.802666 4.32559C0.603244 4.75493 0.436525 5.20629 0.308554 5.67651C0.295756 5.70306 0.290424 5.73205 0.286514 5.7621C0.101311 6.47301 0 7.22341 0 8C0 9.21502 0.244923 10.3665 0.680027 11.3988C0.683937 11.41 0.687492 11.4204 0.692824 11.4309C0.953743 12.0426 1.2822 12.6117 1.66754 13.1259C1.67749 13.1392 1.68567 13.1532 1.6974 13.1647C2.08771 13.6793 2.5349 14.1373 3.02795 14.5279C3.04181 14.5429 3.05888 14.5544 3.07629 14.5663C4.23515 15.469 5.64177 16 7.15788 16C7.43088 16 7.70602 15.9801 7.99573 15.942C8.27372 15.979 8.55561 16 8.84212 16C12.789 16 16 12.4112 16 8C16 3.58882 12.789 0 8.84212 0ZM5.8778 0.721048C5.78503 0.768559 5.69296 0.818166 5.60231 0.869869C5.55148 0.898865 5.50029 0.926812 5.45052 0.957205C5.37267 1.00402 5.2966 1.05362 5.22088 1.10358H4.68056C5.09078 0.914935 5.51913 0.766114 5.96596 0.673887C5.9361 0.68821 5.90766 0.706026 5.8778 0.721048ZM3.04857 12.6896H2.04186C1.79445 12.3459 1.57441 11.9766 1.38351 11.586H2.44674C2.49082 11.6838 2.53597 11.7806 2.5836 11.876C2.60422 11.9172 2.62555 11.9577 2.64688 11.9986C2.70447 12.1093 2.76383 12.2183 2.82604 12.3259C2.84914 12.3658 2.87118 12.4066 2.895 12.4461C2.94441 12.5286 2.99631 12.6093 3.04857 12.6896ZM1.25412 4.68961H2.32837C2.27932 4.81013 2.23275 4.93205 2.18867 5.05572C2.17658 5.08996 2.16414 5.12384 2.15241 5.15808C2.11189 5.27686 2.07421 5.39633 2.03866 5.51721H0.942368C1.03159 5.23284 1.1361 4.95686 1.25412 4.68961ZM0.561297 8C0.561297 7.81415 0.571251 7.63074 0.583337 7.44838H1.70238C1.70202 7.45293 1.70202 7.45712 1.70167 7.46166C1.69136 7.63983 1.68389 7.81904 1.68389 8C1.68389 8.09258 1.68709 8.18411 1.68994 8.27598H0.572317C0.569118 8.18376 0.561297 8.09293 0.561297 8ZM1.72228 8.8276C1.73295 8.94358 1.74681 9.05921 1.76174 9.1738C1.76281 9.18218 1.76352 9.19057 1.76459 9.1993C1.7852 9.35266 1.8108 9.50463 1.83888 9.6552H0.731926C0.677183 9.38445 0.633815 9.10882 0.606087 8.8276H1.72228ZM1.89647 6.06882C1.889 6.10131 1.88296 6.1345 1.87621 6.16699C1.86874 6.20332 1.86092 6.23965 1.85345 6.27598C1.81933 6.44891 1.78876 6.62358 1.76494 6.8007C1.76387 6.80908 1.76316 6.81747 1.7621 6.8262C1.7589 6.84961 1.75677 6.87301 1.75357 6.89642H0.639858C0.676827 6.61555 0.72375 6.33852 0.788091 6.06882H1.89647ZM1.96365 10.2068C1.97218 10.2403 1.98036 10.2746 1.9896 10.3081C1.9928 10.3204 1.99565 10.3329 1.9992 10.3452C2.04541 10.5132 2.09731 10.6784 2.15312 10.8416C2.16485 10.8762 2.17729 10.9097 2.18938 10.9439C2.19969 10.9743 2.21 11.0047 2.22102 11.0344H1.13895C1.03266 10.7665 0.940946 10.4901 0.863097 10.2068H1.96365ZM2.89465 3.55424C2.87118 3.59371 2.84843 3.63459 2.82568 3.67441C2.76347 3.78166 2.70375 3.891 2.64652 4.00175C2.62555 4.04262 2.60387 4.08279 2.58325 4.12437C2.58111 4.12891 2.57863 4.13345 2.57614 4.13799H1.52393C1.7365 3.74428 1.98107 3.37607 2.25265 3.03441H3.2359C3.20178 3.08262 3.1673 3.13083 3.13388 3.17974C3.05106 3.30201 2.97107 3.42672 2.89465 3.55424ZM3.71437 1.6552H4.48967C4.42 1.71493 4.35032 1.77502 4.28278 1.8379C4.22626 1.89031 4.17152 1.9448 4.11677 1.99895C4.06132 2.0538 4.00622 2.10969 3.95219 2.16629C3.90029 2.22079 3.84839 2.27459 3.79791 2.33083C3.75312 2.38044 3.71011 2.43214 3.66638 2.48314H2.7393C3.04075 2.17467 3.36636 1.89694 3.71437 1.6552ZM2.47696 13.2412H3.4403C3.47194 13.2821 3.50358 13.323 3.53593 13.3628C3.62053 13.4676 3.70798 13.5696 3.79756 13.6692C3.84768 13.7251 3.89993 13.7792 3.95183 13.8337C4.00587 13.8907 4.06096 13.9462 4.11677 14.001C4.13917 14.0231 4.1605 14.0468 4.18325 14.0685H3.33935C3.03079 13.8211 2.7425 13.5441 2.47696 13.2412ZM5.96596 15.3265C5.32219 15.1934 4.71397 14.9488 4.14983 14.6208H4.82879C4.8647 14.648 4.90167 14.6739 4.93792 14.7001C4.99587 14.7427 5.05417 14.7853 5.11353 14.8259C5.22373 14.9013 5.33641 14.974 5.45052 15.0428C5.50064 15.0728 5.55148 15.1011 5.60231 15.1301C5.69296 15.1818 5.78467 15.2314 5.8778 15.279C5.90766 15.294 5.9361 15.3118 5.96596 15.3265ZM8.84212 15.4484C8.61888 15.4484 8.39849 15.4355 8.18129 15.411L8.07252 15.396C8.05723 15.3939 8.04266 15.3914 8.02773 15.3897C7.93068 15.3761 7.83435 15.3604 7.73872 15.3422C7.73055 15.3404 7.72273 15.339 7.71491 15.3373C7.62213 15.3195 7.53006 15.2992 7.4387 15.2769C7.42484 15.2737 7.41133 15.2695 7.39747 15.266C7.31251 15.2444 7.22755 15.222 7.14401 15.1969C7.11842 15.1892 7.09282 15.1804 7.06723 15.1724C6.99578 15.15 6.92433 15.127 6.85394 15.1022C6.79671 15.0819 6.74019 15.0592 6.68367 15.0372C6.64528 15.0222 6.60618 15.0082 6.56814 14.9925C5.05879 14.3651 3.80715 13.1308 3.04572 11.5535C3.03861 11.5392 3.03221 11.5242 3.02546 11.5095C2.98458 11.4236 2.94512 11.3369 2.90744 11.2493C2.89216 11.2143 2.87829 11.1787 2.86372 11.1434C2.83528 11.0749 2.8072 11.0065 2.78089 10.9369C2.76383 10.8922 2.74783 10.8468 2.73148 10.8014C2.70944 10.7403 2.6874 10.6788 2.66678 10.6166C2.65008 10.5659 2.63408 10.5146 2.61808 10.4636C2.59996 10.4052 2.58218 10.3469 2.56547 10.2882C2.54983 10.2344 2.5349 10.1799 2.52068 10.1254C2.5054 10.0678 2.49082 10.0094 2.47696 9.95144C2.46345 9.89555 2.45066 9.84 2.43821 9.78376C2.42542 9.72507 2.41369 9.66603 2.40195 9.60664C2.39094 9.55004 2.37992 9.49345 2.36996 9.43651C2.3593 9.37537 2.35006 9.31424 2.34081 9.25275C2.33228 9.19686 2.32375 9.14166 2.31629 9.08542C2.30775 9.01904 2.301 8.95231 2.29389 8.88559C2.2882 8.83354 2.28216 8.78149 2.27754 8.72908C2.27078 8.65223 2.26616 8.57502 2.2619 8.49747C2.25941 8.4538 2.25585 8.41083 2.25372 8.36716C2.24874 8.24594 2.24555 8.12367 2.24555 8.0007C2.24555 7.87773 2.24874 7.75546 2.25372 7.63389C2.25585 7.59022 2.25941 7.5469 2.2619 7.50358C2.26652 7.42638 2.27078 7.34882 2.27754 7.27197C2.28216 7.21956 2.2882 7.16786 2.29389 7.11546C2.301 7.04873 2.30775 6.98201 2.31629 6.91528C2.32375 6.85939 2.33228 6.80349 2.34081 6.74795C2.35006 6.68646 2.3593 6.62533 2.36996 6.56419C2.37992 6.50725 2.39058 6.45066 2.40195 6.39406C2.41333 6.33467 2.42542 6.27563 2.43821 6.21694C2.45066 6.1607 2.46345 6.1048 2.47696 6.04926C2.49082 5.99092 2.50575 5.93293 2.52068 5.87528C2.5349 5.82079 2.54983 5.76629 2.56547 5.71214C2.58218 5.65345 2.59996 5.59476 2.61808 5.53677C2.63408 5.48542 2.65008 5.43441 2.66678 5.38376C2.6874 5.32157 2.70944 5.26009 2.73148 5.1986C2.74783 5.15319 2.76383 5.10812 2.78089 5.06341C2.80755 4.99389 2.83528 4.92507 2.86372 4.85694C2.87829 4.82166 2.89251 4.78603 2.90744 4.75109C2.94548 4.66341 2.98494 4.57677 3.02546 4.49083C3.03257 4.47616 3.03861 4.46148 3.04572 4.44681C3.80715 2.86952 5.05879 1.63563 6.56814 1.00786C6.60618 0.99214 6.64492 0.978166 6.68367 0.963144C6.74019 0.941135 6.79636 0.918428 6.85394 0.898166C6.92433 0.873013 6.99578 0.850306 7.06723 0.827948C7.09282 0.819913 7.11806 0.811179 7.14401 0.803493C7.22755 0.778341 7.31251 0.755633 7.39747 0.734323C7.41098 0.731179 7.42484 0.726987 7.43835 0.723843C7.5297 0.701485 7.62177 0.681572 7.71455 0.663406C7.72273 0.661659 7.73055 0.660262 7.73837 0.658515C7.83364 0.640349 7.92997 0.624629 8.02737 0.611004C8.0423 0.608908 8.05723 0.606463 8.07216 0.604716L8.18094 0.589694C8.39849 0.56559 8.61888 0.552314 8.84212 0.552314C12.4794 0.552314 15.4387 3.89345 15.4387 8.0007C15.4387 12.1079 12.4794 15.4484 8.84212 15.4484Z" fill="url(#paint0_linear)"/>
<path d="M3.83646 8.00131C3.83646 7.82769 3.84357 7.65337 3.85708 7.48289C3.86917 7.33127 3.75399 7.19817 3.59936 7.18594C3.44402 7.17476 3.30965 7.2876 3.2972 7.43922C3.28227 7.62367 3.27481 7.81302 3.27481 8.00131V8.00725C3.27481 8.15957 3.40065 8.28009 3.55564 8.28009C3.71062 8.28009 3.83646 8.15363 3.83646 8.00131Z" fill="url(#paint1_linear)"/>
<path d="M13.6521 6.42656C13.6841 6.55197 13.7982 6.63512 13.9241 6.63512C13.9468 6.63512 13.9699 6.63232 13.9927 6.62673C14.1427 6.58935 14.234 6.43983 14.1964 6.29171C14.1491 6.10761 14.094 5.92385 14.0314 5.74533C13.9813 5.6014 13.8217 5.52385 13.6749 5.57381C13.5284 5.62306 13.4499 5.78027 13.5003 5.9242C13.5579 6.08804 13.6088 6.25712 13.6521 6.42656Z" fill="url(#paint2_linear)"/>
<path d="M12.4969 11.8667C12.3846 12.0026 12.2659 12.1322 12.1439 12.2534C12.0348 12.3617 12.0355 12.536 12.1457 12.6436C12.2005 12.6967 12.2719 12.7236 12.3434 12.7236C12.4155 12.7236 12.488 12.6964 12.5428 12.6419C12.6779 12.5081 12.809 12.3645 12.9327 12.215C13.0308 12.0965 13.012 11.9229 12.8919 11.8268C12.7717 11.7304 12.595 11.7486 12.4969 11.8667Z" fill="url(#paint3_linear)"/>
<path d="M4.02924 9.56379C3.99192 9.41601 3.83906 9.32553 3.68905 9.36256C3.53868 9.39924 3.44697 9.54911 3.4843 9.69689C3.53086 9.88099 3.58596 10.0647 3.64782 10.2436C3.68763 10.3582 3.79676 10.4305 3.91336 10.4305C3.94322 10.4305 3.97414 10.4256 4.004 10.4155C4.15046 10.3662 4.22902 10.2097 4.17925 10.0654C4.12273 9.90195 4.07225 9.73287 4.02924 9.56379Z" fill="url(#paint4_linear)"/>
<path d="M11.6091 2.60681C11.4452 2.50165 11.2739 2.40489 11.1004 2.31895C10.9618 2.25013 10.7933 2.30532 10.7232 2.44087C10.6532 2.57676 10.709 2.74305 10.8473 2.81152C11.0027 2.88838 11.1555 2.97502 11.3023 3.06934C11.3496 3.09973 11.4029 3.11406 11.4552 3.11406C11.5469 3.11406 11.6368 3.07004 11.6909 2.98864C11.7755 2.86148 11.7388 2.6903 11.6091 2.60681Z" fill="url(#paint5_linear)"/>
<path d="M10.8779 13.1738C10.7218 13.2524 10.5608 13.3226 10.3991 13.3827C10.254 13.4362 10.1808 13.5955 10.2355 13.738C10.2778 13.8487 10.3845 13.9169 10.4982 13.9169C10.5309 13.9169 10.5644 13.9109 10.5974 13.899C10.7791 13.8316 10.9596 13.753 11.1345 13.665C11.2725 13.5955 11.3272 13.4292 11.2561 13.2936C11.185 13.1581 11.0158 13.1043 10.8779 13.1738Z" fill="url(#paint6_linear)"/>
<path d="M13.2574 4.21505C13.1483 4.05645 13.031 3.90239 12.9084 3.75636C12.8099 3.63898 12.6329 3.62186 12.5131 3.71898C12.3936 3.81575 12.3762 3.98972 12.475 4.10745C12.5863 4.2402 12.6929 4.38064 12.7921 4.52457C12.8461 4.60352 12.9347 4.64579 13.0249 4.64579C13.079 4.64579 13.1337 4.63042 13.1821 4.59828C13.3108 4.51234 13.3445 4.34081 13.2574 4.21505Z" fill="url(#paint7_linear)"/>
<path d="M14.1283 7.71473C13.9733 7.71473 13.8475 7.84713 13.8475 7.99944C13.8475 8.16853 13.8407 8.33936 13.8276 8.50634C13.8158 8.65831 13.931 8.79106 14.0856 8.80259C14.0931 8.80329 14.1002 8.80329 14.1077 8.80329C14.2527 8.80329 14.3761 8.69359 14.3871 8.54861C14.4013 8.36695 14.4088 8.18215 14.4088 7.99874V7.98093C14.4088 7.82931 14.2833 7.71473 14.1283 7.71473Z" fill="url(#paint8_linear)"/>
<path d="M13.8667 9.87119C13.7195 9.82263 13.5606 9.90053 13.5112 10.0448C13.4543 10.2101 13.3903 10.3742 13.3199 10.5328C13.2581 10.6726 13.3231 10.835 13.4653 10.8958C13.5019 10.9115 13.54 10.9189 13.5773 10.9189C13.6857 10.9189 13.7888 10.8567 13.8347 10.7529C13.9114 10.58 13.9815 10.4008 14.0433 10.2205C14.0927 10.0763 14.0138 9.91974 13.8667 9.87119Z" fill="url(#paint9_linear)"/>
<path d="M9.41686 1.81966C9.22668 1.798 9.0333 1.78682 8.8417 1.78682H8.82996C8.67498 1.78682 8.55518 1.91049 8.55518 2.0628C8.55518 2.21512 8.68671 2.33878 8.8417 2.33878C9.01161 2.33878 9.18331 2.34857 9.35216 2.36778C9.36318 2.36918 9.3742 2.36988 9.38486 2.36988C9.52528 2.36988 9.64685 2.26647 9.6632 2.12568C9.68133 1.97372 9.57113 1.83712 9.41686 1.81966Z" fill="url(#paint10_linear)"/>
<path d="M4.88441 11.4674C4.79768 11.341 4.62314 11.3078 4.49481 11.393C4.36613 11.4783 4.33236 11.6494 4.4191 11.7759C4.52787 11.9345 4.64518 12.0889 4.76675 12.2353C4.82221 12.3017 4.9029 12.3363 4.98395 12.3363C5.04651 12.3363 5.10979 12.316 5.16204 12.2737C5.28184 12.177 5.29926 12.0033 5.20114 11.8852C5.09024 11.7528 4.98359 11.6121 4.88441 11.4674Z" fill="url(#paint11_linear)"/>
<path d="M4.22356 5.09442C4.08137 5.03363 3.91607 5.09686 3.85386 5.2366C3.77672 5.41022 3.70634 5.58909 3.64413 5.7683C3.59437 5.91258 3.67293 6.06944 3.81974 6.11835C3.8496 6.12813 3.88017 6.13302 3.90967 6.13302C4.02662 6.13302 4.13576 6.06035 4.17557 5.94577C4.23245 5.78123 4.29714 5.61704 4.36788 5.45739C4.4308 5.318 4.36575 5.1552 4.22356 5.09442Z" fill="url(#paint12_linear)"/>
<path d="M8.84181 13.6627C8.66727 13.6627 8.49167 13.6526 8.32033 13.6323C8.16747 13.6163 8.0267 13.7221 8.00822 13.8737C7.99009 14.025 8.09957 14.1623 8.25385 14.1805C8.44759 14.2032 8.64559 14.2147 8.84217 14.2147H8.86634C9.02133 14.2147 9.13508 14.091 9.13508 13.9387C9.13508 13.7864 8.9968 13.6627 8.84181 13.6627Z" fill="url(#paint13_linear)"/>
<path d="M5.1493 3.34952C5.01422 3.48332 4.88269 3.62655 4.75898 3.77572C4.66087 3.8938 4.67865 4.06743 4.7988 4.16385C4.85105 4.20577 4.91397 4.22603 4.97618 4.22603C5.05758 4.22603 5.13828 4.19145 5.19373 4.12472C5.30642 3.98917 5.42515 3.85922 5.54779 3.73834C5.65692 3.63005 5.65656 3.45572 5.54672 3.34813C5.43652 3.24088 5.25914 3.24193 5.1493 3.34952Z" fill="url(#paint14_linear)"/>
<path d="M7.09915 2.0979C6.91714 2.16497 6.7362 2.24323 6.56131 2.33091C6.42303 2.39973 6.36829 2.56637 6.43867 2.70192C6.48808 2.79764 6.58655 2.85248 6.68893 2.85248C6.73194 2.85248 6.77531 2.8427 6.81619 2.82244C6.97224 2.74454 7.13363 2.67432 7.29572 2.61458C7.44076 2.56113 7.5147 2.40218 7.46031 2.25965C7.40592 2.11676 7.24383 2.04445 7.09915 2.0979Z" fill="url(#paint15_linear)"/>
<path d="M6.82628 13.184C6.672 13.1072 6.51879 13.0198 6.37198 12.9252C6.24188 12.842 6.0684 12.8776 5.98309 13.0048C5.89849 13.1323 5.93439 13.3031 6.06414 13.3866C6.22837 13.4921 6.39935 13.5896 6.57176 13.6759C6.61264 13.6962 6.65601 13.7056 6.69866 13.7056C6.80104 13.7056 6.89951 13.6504 6.94927 13.5547C7.01966 13.4191 6.9642 13.2532 6.82628 13.184Z" fill="url(#paint16_linear)"/>
</svg>
