<svg width="16" height="16" viewBox="0 0 16 16" fill="none" xmlns="http://www.w3.org/2000/svg">
<defs>
    <linearGradient id="paint0_linear" x1="12.5" y1="0.999999" x2="4.5" y2="15" gradientUnits="userSpaceOnUse">
        <stop stop-color="#109CD8"/>
        <stop offset="1" stop-color="#B33F9B"/>
    </linearGradient>
    <linearGradient id="paint1_linear" x1="9.71359" y1="0.000976808" x2="9.71359" y2="16.001" gradientUnits="userSpaceOnUse">
        <stop stop-color="#109CD8"/>
        <stop offset="1" stop-color="#AF429D"/>
    </linearGradient>
</defs>
<path d="M8 16C3.59449 16 0 12.4155 0 8C0 3.58448 3.59449 0 8 0C12.4055 0 16 3.59449 16 8C16 12.4055 12.4155 16 8 16ZM8 0.941176C4.10513 0.941176 0.941176 4.10513 0.941176 8C0.941176 11.8949 4.10513 15.0588 8 15.0588C11.8949 15.0588 15.0588 11.8949 15.0588 8C15.0588 4.10513 11.8949 0.941176 8 0.941176Z" fill="url(#paint0_linear)"/>
<path fill-rule="evenodd" clip-rule="evenodd" d="M7.99921 3.97754C8.25954 3.97754 8.4698 4.1878 8.4698 4.44813V4.72848V8.13125H11.8838H12.1641C12.4244 8.13125 12.6347 8.34151 12.6347 8.60184C12.6347 8.86216 12.4244 9.07243 12.1641 9.07243L11.8838 9.08244H8.03742C8.02482 9.08342 8.01208 9.08392 7.99921 9.08392C7.98671 9.08392 7.97433 9.08342 7.96209 9.08244H7.9088V9.07501C7.79695 9.0527 7.6996 8.99001 7.63172 8.90463C7.5849 8.8475 7.55188 8.77926 7.53708 8.70345H7.52862V8.62913C7.52842 8.6234 7.52832 8.61764 7.52832 8.61185C7.52832 8.60606 7.52842 8.6003 7.52862 8.59456V4.72848V4.44813C7.52862 4.1878 7.73889 3.97754 7.99921 3.97754Z" fill="url(#paint1_linear)"/>
</svg>
