<svg width="16" height="16" viewBox="0 0 16 16" fill="none" xmlns="http://www.w3.org/2000/svg">
<defs>
        <linearGradient id="paint0_linear" x1="0.122295" y1="15.1554" x2="12.7461" y2="4.84704" gradientUnits="userSpaceOnUse">
            <stop stop-color="#D02E90"/>
            <stop offset="0.1043" stop-color="#C73394"/>
            <stop offset="0.2778" stop-color="#AD429D"/>
            <stop offset="0.4992" stop-color="#845AAD"/>
            <stop offset="0.7568" stop-color="#4B7AC2"/>
            <stop offset="0.9944" stop-color="#109CD8"/>
        </linearGradient>
        <linearGradient id="paint1_linear" x1="-1.43334" y1="13.2494" x2="11.1905" y2="2.94101" gradientUnits="userSpaceOnUse">
            <stop stop-color="#D02E90"/>
            <stop offset="0.1043" stop-color="#C73394"/>
            <stop offset="0.2778" stop-color="#AD429D"/>
            <stop offset="0.4992" stop-color="#845AAD"/>
            <stop offset="0.7568" stop-color="#4B7AC2"/>
            <stop offset="0.9944" stop-color="#109CD8"/>
        </linearGradient>
    </defs>
<path d="M14.9542 13.3141L12.5954 9.20624C12.8345 9.09551 12.9779 8.84285 12.9619 8.55848L12.7865 7.1049L13.7905 6.06202C14.0136 5.84082 14.0296 5.46156 13.8065 5.19305L12.8025 4.11872L13.0096 2.64929C13.0416 2.3332 12.8185 2.01738 12.4997 1.95422L11.0494 1.66984L10.3483 0.390169C10.2049 0.0899388 9.85429 -0.0363891 9.53544 0.0899388H9.51944L8.18062 0.705989L6.8738 0.0740806C6.73037 -0.0049415 6.55495 -0.0207997 6.3958 0.0267749C6.23638 0.0740807 6.10895 0.184819 6.02924 0.327005L5.31211 1.60668L3.86186 1.8596C3.52729 1.92277 3.30415 2.223 3.33588 2.57054L3.51129 4.02411L2.50731 5.06699C2.28418 5.2882 2.26818 5.66745 2.49132 5.93596L3.4953 7.01029L3.28816 8.47972C3.25616 8.7641 3.43158 9.03261 3.70244 9.14335L1.32764 13.3141C1.26393 13.4089 1.27993 13.5353 1.32764 13.6301C1.39136 13.725 1.48707 13.7882 1.5985 13.7882H4.14844L5.31184 15.7947C5.37556 15.8895 5.47126 15.9527 5.5827 15.9527C5.6944 15.9527 5.80583 15.8895 5.85355 15.7947L8.13264 11.9395L10.4117 15.842C10.4754 15.9368 10.5711 16 10.6826 16C10.7943 16 10.9057 15.9368 10.9534 15.842L12.1168 13.7879H14.6668C14.7782 13.7879 14.8899 13.7248 14.9376 13.6299C15.0179 13.5353 15.0179 13.4089 14.9542 13.3141ZM5.59896 15.0047L4.61071 13.3141C4.54699 13.2192 4.45129 13.156 4.33985 13.156H2.14048L4.33985 9.30086L5.2484 9.4589L5.94953 10.7386C6.09295 11.0388 6.44352 11.1651 6.76236 11.0388H6.77836L7.43178 10.7386L7.75062 11.2915L5.59896 15.0047ZM6.52323 10.4701C6.50724 10.4701 6.50724 10.4701 6.50724 10.4701L5.8061 9.15867C5.7104 9.00063 5.55097 8.8743 5.35983 8.85844L3.89358 8.58993L4.10072 7.13635C4.13271 6.94686 4.069 6.74124 3.9413 6.61491L2.95332 5.54059L3.9573 4.49771C4.10072 4.35552 4.16444 4.16603 4.13271 3.97627L3.9573 2.53855C3.9573 2.53855 3.9573 2.52269 3.97329 2.50683L5.42354 2.25391C5.59896 2.22219 5.77411 2.11172 5.86982 1.93782L6.58695 0.658146L7.89377 1.29005C8.06919 1.38493 8.29233 1.38493 8.46748 1.29005L9.7903 0.689593C9.8063 0.689593 9.8063 0.689593 9.8063 0.689593L10.5074 2.00098C10.6031 2.15903 10.7626 2.28536 10.9377 2.30121L12.388 2.58559L12.1808 4.03916C12.1488 4.22866 12.2128 4.43427 12.3402 4.5606L13.3442 5.63493L12.3242 6.6778C12.1808 6.81999 12.1171 7.00948 12.1488 7.19924L12.3242 8.65282L10.89 8.88989C10.7146 8.9216 10.5394 9.03207 10.4437 9.20598L9.72658 10.4857L8.41976 9.85374C8.24434 9.75886 8.0212 9.75886 7.84606 9.85374L6.52323 10.4701ZM11.942 13.156C11.8303 13.156 11.7188 13.2192 11.6711 13.3141L10.6828 15.052L8.43575 11.1968C8.41976 11.1495 8.40376 11.1178 8.37204 11.0861L8.02147 10.4701L8.13318 10.4228L9.44 11.0547C9.53571 11.102 9.63115 11.1178 9.72686 11.1178C9.94999 11.1178 10.1731 11.0074 10.2846 10.8017L11.0017 9.52206L11.958 9.34816L14.1413 13.156H11.942Z" fill="url(#paint0_linear)"/>
<path d="M11.321 5.57192C11.321 3.83397 9.88675 2.41211 8.13365 2.41211C6.38055 2.41211 4.94629 3.83397 4.94629 5.57192C4.94629 7.30987 6.38055 8.732 8.13365 8.732C9.88648 8.73173 11.321 7.30987 11.321 5.57192ZM8.13338 8.09982C6.73084 8.09982 5.58344 6.96233 5.58344 5.57192C5.58344 4.18151 6.73084 3.04402 8.13338 3.04402C9.53591 3.04402 10.6833 4.18151 10.6833 5.57192C10.6833 6.96233 9.53591 8.09982 8.13338 8.09982Z" fill="url(#paint1_linear)"/>
</svg>
