<svg width="15" height="15" viewBox="0 0 15 15" fill="none" xmlns="http://www.w3.org/2000/svg">
<path d="M7.5 15C3.36984 15 0 11.6395 0 7.5C0 3.36045 3.36984 0 7.5 0C11.6302 0 15 3.36984 15 7.5C15 11.6302 11.6395 15 7.5 15ZM7.5 0.882353C3.84856 0.882353 0.882353 3.84856 0.882353 7.5C0.882353 11.1514 3.84856 14.1176 7.5 14.1176C11.1514 14.1176 14.1176 11.1514 14.1176 7.5C14.1176 3.84856 11.1514 0.882353 7.5 0.882353Z" fill="#109CD8"/>
<path d="M7.94143 3.09743C7.94143 2.85337 7.74431 2.65625 7.50026 2.65625C7.2562 2.65625 7.05908 2.85337 7.05908 3.09743V3.36026V7.00231V7.08679H7.06847C7.10602 7.28391 7.28436 7.44348 7.50026 7.44348C7.71615 7.44348 7.8945 7.2933 7.93205 7.08679H7.94143V7.00231V3.36026V3.09743Z" fill="#109CD8"/>
<path d="M11.4051 7.43411C11.6492 7.43411 11.8463 7.23699 11.8463 6.99293C11.8463 6.74888 11.6492 6.55176 11.4051 6.55176H11.1423H7.50026H7.41578V6.56114C7.20927 6.60808 7.05908 6.78643 7.05908 7.00232C7.05908 7.21822 7.20927 7.38718 7.41578 7.43411V7.4435H7.50026H11.1423L11.4051 7.43411Z" fill="#109CD8"/>
</svg>
