<svg width="9" height="12" viewBox="0 0 9 12" fill="none" xmlns="http://www.w3.org/2000/svg">
<path d="M8.0925 12H0.9075C0.405 12 0 11.5 0 10.8828V5.69531C0 5.125 0.3525 4.64844 0.81 4.58594V3.875C0.81 2.85938 1.1775 1.89844 1.8525 1.17188C2.5275 0.4375 3.435 0.015625 4.395 0C4.4475 0 4.5525 0 4.605 0C5.565 0.015625 6.4725 0.429688 7.1475 1.17188C7.8225 1.90625 8.19 2.86719 8.19 3.875V4.59375C8.6475 4.64844 9 5.125 9 5.69531V10.8828C9 11.5 8.595 12 8.0925 12ZM0.9075 5.23438C0.7725 5.23438 0.63 5.42188 0.63 5.69531V10.8828C0.63 11.1016 0.75 11.3438 0.9075 11.3438H8.0925C8.2275 11.3438 8.37 11.1484 8.37 10.8828V5.69531C8.37 5.42188 8.22 5.23438 8.0925 5.23438H7.5675V3.875C7.5675 2.13281 6.2325 0.6875 4.5975 0.65625C4.5525 0.65625 4.455 0.65625 4.41 0.65625C2.7675 0.6875 1.4325 2.13281 1.4325 3.875V5.23438H0.9075ZM4.86 10.5078H4.1475C3.8025 10.5078 3.5175 10.2109 3.5175 9.85156V8.40625C3.345 8.1875 3.255 7.90625 3.255 7.60938C3.255 6.9375 3.765 6.36719 4.395 6.33594C4.455 6.33594 4.56 6.33594 4.62 6.33594C5.25 6.35937 5.76 6.92969 5.76 7.60938C5.76 7.90625 5.67 8.17969 5.4975 8.40625V9.85156C5.49 10.2188 5.205 10.5078 4.86 10.5078ZM4.1475 9.85938H4.86L4.8675 9.85156V8.14844L4.9575 8.05469C5.07 7.94531 5.13 7.78906 5.13 7.61719C5.13 7.28906 4.89 7.00781 4.59 7C4.545 7 4.455 7 4.4175 7C4.1175 7.01562 3.8775 7.28906 3.8775 7.61719C3.8775 7.78906 3.9375 7.94531 4.05 8.05469L4.14 8.14844L4.1475 9.85938C4.14 9.85156 4.14 9.85938 4.1475 9.85938ZM6.795 5.23438H2.205V3.875C2.205 2.54688 3.2325 1.46875 4.5 1.46875C5.7675 1.46875 6.795 2.54688 6.795 3.875V5.23438ZM2.835 4.58594H6.1725V3.875C6.1725 3.40625 6 2.96875 5.685 2.63281C5.3625 2.30469 4.9425 2.11719 4.5 2.11719C4.0575 2.11719 3.6375 2.30469 3.3225 2.63281C3.0075 2.96875 2.835 3.40625 2.835 3.875V4.58594Z" fill="white"/>
</svg>
