<svg width="13" height="14" viewBox="0 0 13 14" fill="none" xmlns="http://www.w3.org/2000/svg">
<path d="M7.18423 0C6.95143 0 6.72239 0.0183406 6.49653 0.0507424C6.26114 0.0174236 6.03759 0 5.81577 0C4.13684 0 2.62253 0.862009 1.55994 2.23603C1.54926 2.24611 1.54146 2.25834 1.53279 2.27026C1.194 2.7141 0.903155 3.21114 0.667763 3.74882C0.661697 3.76074 0.656499 3.77236 0.652166 3.78489C0.490136 4.16057 0.354677 4.5555 0.2507 4.96694C0.240302 4.99017 0.23597 5.01555 0.232793 5.04183C0.0823151 5.66389 0 6.32048 0 7C0 8.06314 0.199 9.07065 0.552522 9.97393C0.555699 9.98371 0.558587 9.99288 0.562919 10.0021C0.774917 10.5373 1.04179 11.0352 1.35488 11.4852C1.36296 11.4968 1.36961 11.509 1.37914 11.5191C1.69627 11.9694 2.05961 12.3701 2.46021 12.7119C2.47147 12.725 2.48534 12.7351 2.49949 12.7455C3.44106 13.5354 4.58394 14 5.81577 14C6.03759 14 6.26114 13.9826 6.49653 13.9493C6.72239 13.9817 6.95143 14 7.18423 14C10.391 14 13 10.8598 13 7C13 3.14022 10.391 0 7.18423 0ZM4.77572 0.630917C4.70033 0.672489 4.62553 0.715895 4.55188 0.761135C4.51058 0.786507 4.46898 0.810961 4.42855 0.837555C4.3653 0.878515 4.30349 0.921921 4.24197 0.965633H3.80295C4.13626 0.800568 4.48429 0.670349 4.84734 0.589651C4.82308 0.602183 4.79998 0.617773 4.77572 0.630917ZM2.47696 11.1034H1.65901C1.45799 10.8026 1.2792 10.4795 1.12411 10.1378H1.98798C2.02379 10.2234 2.06048 10.308 2.09918 10.3915C2.11593 10.4276 2.13326 10.463 2.15059 10.4988C2.19738 10.5957 2.24561 10.691 2.29616 10.7852C2.31493 10.82 2.33284 10.8558 2.35219 10.8903C2.39234 10.9625 2.4345 11.0331 2.47696 11.1034ZM1.01897 4.10341H1.8918C1.85194 4.20886 1.81411 4.31555 1.77829 4.42376C1.76847 4.45371 1.75836 4.48336 1.74883 4.51332C1.71591 4.61725 1.68529 4.72179 1.65641 4.82755H0.765674C0.838169 4.57873 0.923084 4.33725 1.01897 4.10341ZM0.456054 7C0.456054 6.83738 0.464141 6.6769 0.473961 6.51734H1.38318C1.38289 6.52131 1.38289 6.52498 1.3826 6.52895C1.37423 6.68485 1.36816 6.84166 1.36816 7C1.36816 7.081 1.37076 7.16109 1.37307 7.24148H0.465008C0.462408 7.16079 0.456054 7.08131 0.456054 7ZM1.39936 7.72415C1.40802 7.82563 1.41928 7.92681 1.43142 8.02707C1.43228 8.03441 1.43286 8.04175 1.43373 8.04939C1.45048 8.18358 1.47127 8.31655 1.49409 8.4483H0.59469C0.550211 8.2114 0.514974 7.97022 0.492446 7.72415H1.39936ZM1.54088 5.31022C1.53481 5.33865 1.5299 5.36769 1.52442 5.39611C1.51835 5.4279 1.512 5.45969 1.50593 5.49148C1.4782 5.64279 1.45337 5.79563 1.43401 5.95061C1.43315 5.95795 1.43257 5.96528 1.4317 5.97293C1.4291 5.99341 1.42737 6.01389 1.42477 6.03437H0.519884C0.549922 5.7886 0.588047 5.5462 0.640324 5.31022H1.54088ZM1.59547 8.93096C1.6024 8.96031 1.60904 8.99026 1.61655 9.01961C1.61915 9.03031 1.62146 9.04131 1.62435 9.05201C1.6619 9.19904 1.70407 9.34362 1.74941 9.48637C1.75894 9.51664 1.76905 9.54598 1.77887 9.57594C1.78725 9.60253 1.79562 9.62913 1.80458 9.65511H0.925394C0.839036 9.42065 0.764519 9.17886 0.701266 8.93096H1.59547ZM2.3519 3.10996C2.33284 3.1445 2.31435 3.18026 2.29587 3.21511C2.24532 3.30895 2.1968 3.40463 2.1503 3.50153C2.13326 3.53729 2.11564 3.57245 2.09889 3.60882C2.09716 3.61279 2.09513 3.61677 2.09311 3.62074H1.23819C1.41091 3.27624 1.60962 2.95406 1.83028 2.65511H2.62917C2.60144 2.69729 2.57343 2.73948 2.54628 2.78227C2.47898 2.88926 2.414 2.99838 2.3519 3.10996ZM3.01793 1.4483H3.64786C3.59125 1.50057 3.53464 1.55314 3.47976 1.60817C3.43384 1.65402 3.38936 1.7017 3.34488 1.74908C3.29982 1.79707 3.25505 1.84598 3.21115 1.8955C3.16898 1.94319 3.12682 1.99026 3.0858 2.03948C3.04941 2.08288 3.01446 2.12812 2.97894 2.17275H2.22568C2.47061 1.90284 2.73517 1.65983 3.01793 1.4483ZM2.01253 11.5861H2.79525C2.82095 11.6218 2.84666 11.6576 2.87294 11.6924C2.94168 11.7841 3.01273 11.8734 3.08551 11.9605C3.12624 12.0094 3.1687 12.0568 3.21086 12.1045C3.25477 12.1543 3.29953 12.2029 3.34488 12.2509C3.36307 12.2702 3.3804 12.291 3.39889 12.3099H2.71322C2.46252 12.0935 2.22828 11.8511 2.01253 11.5861ZM4.84734 13.4107C4.32428 13.2942 3.8301 13.0802 3.37174 12.7932H3.92339C3.95257 12.817 3.9826 12.8397 4.01206 12.8626C4.05914 12.8999 4.10651 12.9372 4.15474 12.9726C4.24428 13.0386 4.33584 13.1022 4.42855 13.1624C4.46927 13.1887 4.51058 13.2135 4.55188 13.2389C4.62553 13.2841 4.70004 13.3275 4.77572 13.3691C4.79998 13.3822 4.82308 13.3978 4.84734 13.4107ZM7.18423 13.5173C7.00284 13.5173 6.82377 13.506 6.6473 13.4846L6.55892 13.4715C6.5465 13.4697 6.53466 13.4675 6.52253 13.466C6.44368 13.4541 6.36541 13.4403 6.28771 13.4244C6.28107 13.4229 6.27472 13.4217 6.26836 13.4201C6.19298 13.4045 6.11817 13.3868 6.04395 13.3672C6.03268 13.3645 6.02171 13.3608 6.01044 13.3578C5.94141 13.3388 5.87238 13.3193 5.80451 13.2972C5.78371 13.2905 5.76292 13.2829 5.74212 13.2759C5.68407 13.2563 5.62602 13.2361 5.56883 13.2144C5.52233 13.1967 5.47641 13.1768 5.43048 13.1576C5.39929 13.1444 5.36752 13.1322 5.33661 13.1184C4.11026 12.5694 3.09331 11.4895 2.47465 10.1093C2.46887 10.0968 2.46367 10.0837 2.45819 10.0708C2.42497 9.99563 2.39291 9.91983 2.3623 9.8431C2.34988 9.81253 2.33861 9.78135 2.32677 9.75048C2.30367 9.69057 2.28085 9.63066 2.25948 9.56983C2.24561 9.5307 2.23261 9.49096 2.21933 9.45122C2.20142 9.39773 2.18351 9.34393 2.16676 9.28952C2.15319 9.2452 2.14019 9.20026 2.12719 9.15563C2.11246 9.10458 2.09802 9.05354 2.08445 9.00218C2.07174 8.95511 2.05961 8.90742 2.04806 8.85974C2.03564 8.8093 2.02379 8.75825 2.01253 8.70751C2.00156 8.6586 1.99116 8.61 1.98105 8.56079C1.97065 8.50943 1.96112 8.45777 1.95159 8.40581C1.94263 8.35629 1.93368 8.30677 1.92559 8.25694C1.91693 8.20345 1.90942 8.14996 1.90191 8.09616C1.89498 8.04725 1.88805 7.99895 1.88198 7.94974C1.87505 7.89166 1.86956 7.83328 1.86379 7.77489C1.85916 7.72934 1.85425 7.6838 1.8505 7.63795C1.84501 7.5707 1.84126 7.50314 1.83779 7.43528C1.83577 7.39707 1.83288 7.35948 1.83115 7.32127C1.82711 7.2152 1.82451 7.10821 1.82451 7.00061C1.82451 6.89301 1.82711 6.78603 1.83115 6.67965C1.83288 6.64144 1.83577 6.60354 1.83779 6.56563C1.84155 6.49808 1.84501 6.43022 1.8505 6.36297C1.85425 6.31712 1.85916 6.27188 1.86379 6.22603C1.86956 6.16764 1.87505 6.10926 1.88198 6.05087C1.88805 6.00197 1.89498 5.95306 1.90191 5.90445C1.90942 5.85066 1.91693 5.79716 1.92559 5.74367C1.93368 5.69384 1.94235 5.64432 1.95159 5.5948C1.96083 5.54284 1.97065 5.49118 1.98105 5.43983C1.99116 5.39061 2.00156 5.3417 2.01253 5.2931C2.02379 5.24205 2.03593 5.19131 2.04806 5.14087C2.05961 5.09319 2.07174 5.0455 2.08445 4.99812C2.09802 4.94677 2.11246 4.89541 2.12719 4.84467C2.14019 4.79974 2.15319 4.75511 2.16676 4.71079C2.18351 4.65638 2.20142 4.60258 2.21933 4.54878C2.23261 4.50904 2.24561 4.46961 2.25948 4.43048C2.28114 4.36965 2.30367 4.30943 2.32677 4.24983C2.33861 4.21895 2.35017 4.18777 2.3623 4.15721C2.3932 4.08048 2.42526 4.00467 2.45819 3.92948C2.46396 3.91664 2.46887 3.9038 2.47465 3.89096C3.09331 2.51083 4.11026 1.43118 5.33661 0.881878C5.36752 0.868122 5.399 0.855895 5.43048 0.842751C5.47641 0.823493 5.52204 0.803624 5.56883 0.785895C5.62602 0.763886 5.68407 0.744017 5.74212 0.724454C5.76292 0.717424 5.78343 0.709782 5.80451 0.703057C5.87238 0.681048 5.94141 0.661179 6.01044 0.642533C6.02142 0.639782 6.03268 0.636114 6.04366 0.633362C6.11788 0.613799 6.19269 0.596376 6.26807 0.58048C6.27472 0.578952 6.28107 0.577729 6.28743 0.576201C6.36483 0.560306 6.4431 0.54655 6.52224 0.534629C6.53437 0.532795 6.5465 0.530655 6.55863 0.529127L6.64701 0.515983C6.82377 0.494891 7.00284 0.483275 7.18423 0.483275C10.1395 0.483275 12.5439 3.40677 12.5439 7.00061C12.5439 10.5945 10.1395 13.5173 7.18423 13.5173Z" fill="url(#paint0_linear)"/>
<path d="M3.11748 7.00025C3.11748 6.84833 3.12325 6.6958 3.13423 6.54663C3.14405 6.41396 3.05047 6.2975 2.92483 6.2868C2.79861 6.27702 2.68944 6.37575 2.67933 6.50842C2.6672 6.66981 2.66113 6.83549 2.66113 7.00025V7.00545C2.66113 7.13872 2.76338 7.24418 2.8893 7.24418C3.01523 7.24418 3.11748 7.13352 3.11748 7.00025Z" fill="#049EDD"/>
<path d="M11.0928 5.62272C11.1188 5.73245 11.2115 5.80521 11.3137 5.80521C11.3322 5.80521 11.351 5.80276 11.3695 5.79787C11.4914 5.76516 11.5656 5.63433 11.535 5.50473C11.4966 5.34363 11.4518 5.18285 11.401 5.02665C11.3602 4.90071 11.2306 4.83285 11.1113 4.87656C10.9923 4.91966 10.9285 5.05721 10.9695 5.18315C11.0163 5.32652 11.0576 5.47446 11.0928 5.62272Z" fill="#049EDD"/>
<path d="M10.1542 10.383C10.0629 10.5019 9.96644 10.6153 9.86738 10.7214C9.77871 10.8162 9.77928 10.9687 9.86882 11.0629C9.9133 11.1093 9.97135 11.1329 10.0294 11.1329C10.088 11.1329 10.147 11.109 10.1914 11.0613C10.3012 10.9443 10.4078 10.8186 10.5083 10.6878C10.588 10.5842 10.5727 10.4322 10.4751 10.3482C10.3774 10.2638 10.2339 10.2797 10.1542 10.383Z" fill="#049EDD"/>
<path d="M3.27375 8.3679C3.24342 8.2386 3.11923 8.15943 2.99735 8.19183C2.87517 8.22392 2.80066 8.35506 2.83098 8.48436C2.86882 8.64545 2.91359 8.80624 2.96384 8.96275C2.99619 9.06301 3.08486 9.12628 3.17959 9.12628C3.20385 9.12628 3.22898 9.122 3.25324 9.11314C3.37224 9.07004 3.43607 8.9331 3.39563 8.80685C3.34971 8.66379 3.3087 8.51585 3.27375 8.3679Z" fill="#049EDD"/>
<path d="M9.43231 2.28075C9.29916 2.18874 9.15994 2.10407 9.019 2.02888C8.90636 1.96866 8.76945 2.01695 8.71256 2.13556C8.65566 2.25446 8.701 2.39997 8.81336 2.45988C8.93957 2.52713 9.06377 2.60294 9.18305 2.68547C9.22146 2.71206 9.26479 2.7246 9.30725 2.7246C9.38176 2.7246 9.45484 2.68608 9.49874 2.61486C9.56748 2.50359 9.53773 2.35381 9.43231 2.28075Z" fill="url(#paint1_linear)"/>
<path d="M8.83841 11.5266C8.71162 11.5954 8.58078 11.6568 8.44937 11.7094C8.33153 11.7562 8.27203 11.8956 8.31651 12.0203C8.35088 12.1172 8.43753 12.1768 8.52995 12.1768C8.55652 12.1768 8.58367 12.1716 8.61053 12.1612C8.75812 12.1022 8.90484 12.0334 9.04695 11.9564C9.15901 11.8956 9.20349 11.75 9.14572 11.6314C9.08796 11.5128 8.95048 11.4658 8.83841 11.5266Z" fill="#049EDD"/>
<path d="M10.7718 3.68746C10.6831 3.54869 10.5878 3.41388 10.4882 3.28611C10.4082 3.1834 10.2643 3.16843 10.167 3.2534C10.07 3.33808 10.0558 3.4903 10.1361 3.59332C10.2265 3.70947 10.3132 3.83235 10.3937 3.95829C10.4376 4.02738 10.5096 4.06436 10.5829 4.06436C10.6268 4.06436 10.6713 4.05091 10.7106 4.02279C10.8151 3.94759 10.8426 3.79751 10.7718 3.68746Z" fill="url(#paint2_linear)"/>
<path d="M11.4799 6.75098C11.3539 6.75098 11.2517 6.86683 11.2517 7.0001C11.2517 7.14805 11.2462 7.29753 11.2355 7.44364C11.226 7.57661 11.3196 7.69277 11.4452 7.70286C11.4513 7.70347 11.4571 7.70347 11.4631 7.70347C11.581 7.70347 11.6812 7.60748 11.6901 7.48063C11.7017 7.32168 11.7078 7.15997 11.7078 6.99949V6.9839C11.7078 6.85124 11.6058 6.75098 11.4799 6.75098Z" fill="#049EDD"/>
<path d="M11.2669 8.63666C11.1474 8.59417 11.0182 8.66234 10.9781 8.78858C10.9319 8.93317 10.8799 9.07683 10.8227 9.21561C10.7725 9.33788 10.8253 9.48002 10.9408 9.53321C10.9706 9.54697 11.0015 9.55338 11.0318 9.55338C11.1199 9.55338 11.2037 9.49897 11.2409 9.40819C11.3033 9.25688 11.3602 9.10007 11.4105 8.94234C11.4506 8.81609 11.3865 8.67915 11.2669 8.63666Z" fill="#049EDD"/>
<path d="M7.65129 1.59221C7.49676 1.57326 7.33964 1.56348 7.18397 1.56348H7.17443C7.04851 1.56348 6.95117 1.67169 6.95117 1.80496C6.95117 1.93824 7.05804 2.04645 7.18397 2.04645C7.32202 2.04645 7.46153 2.055 7.59872 2.07182C7.60767 2.07304 7.61663 2.07365 7.62529 2.07365C7.73938 2.07365 7.83815 1.98317 7.85144 1.85998C7.86617 1.72701 7.77664 1.60749 7.65129 1.59221Z" fill="url(#paint3_linear)"/>
<path d="M3.9689 10.0342C3.89843 9.92354 3.75662 9.8945 3.65235 9.96909C3.5478 10.0437 3.52036 10.1935 3.59083 10.3041C3.67921 10.4429 3.77452 10.578 3.8733 10.7061C3.91836 10.7642 3.98392 10.7944 4.04977 10.7944C4.10061 10.7944 4.15202 10.7767 4.19447 10.7397C4.29181 10.655 4.30596 10.5031 4.22625 10.3998C4.13613 10.2839 4.04948 10.1607 3.9689 10.0342Z" fill="#049EDD"/>
<path d="M3.43166 4.45771C3.31613 4.40452 3.18182 4.45985 3.13128 4.58212C3.06861 4.73404 3.01142 4.89055 2.96087 5.04736C2.92044 5.17361 2.98427 5.31085 3.10355 5.35365C3.12781 5.36221 3.15265 5.36649 3.17663 5.36649C3.27165 5.36649 3.36032 5.30291 3.39267 5.20265C3.43888 5.05867 3.49144 4.915 3.54892 4.77531C3.60004 4.65334 3.54719 4.5109 3.43166 4.45771Z" fill="#049EDD"/>
<path d="M7.18426 11.9548C7.04245 11.9548 6.89977 11.9459 6.76055 11.9282C6.63636 11.9141 6.52198 12.0067 6.50697 12.1394C6.49224 12.2717 6.58119 12.3919 6.70654 12.4078C6.86395 12.4276 7.02483 12.4377 7.18455 12.4377H7.20419C7.33012 12.4377 7.42254 12.3295 7.42254 12.1962C7.42254 12.063 7.31019 11.9548 7.18426 11.9548Z" fill="#049EDD"/>
<path d="M4.18453 2.93049C4.07478 3.04756 3.96791 3.17289 3.8674 3.30341C3.78768 3.40673 3.80213 3.55865 3.89975 3.64302C3.94221 3.6797 3.99333 3.69743 4.04387 3.69743C4.11001 3.69743 4.17558 3.66717 4.22063 3.60878C4.31219 3.49018 4.40866 3.37647 4.5083 3.2707C4.59697 3.17594 4.59668 3.02341 4.50743 2.92926C4.4179 2.83542 4.27378 2.83634 4.18453 2.93049Z" fill="#049EDD"/>
<path d="M5.76812 1.83474C5.62024 1.89343 5.47323 1.9619 5.33112 2.03863C5.21877 2.09885 5.17429 2.24466 5.23148 2.36326C5.27163 2.44701 5.35163 2.495 5.43481 2.495C5.46976 2.495 5.505 2.48645 5.53821 2.46872C5.66501 2.40055 5.79613 2.33911 5.92784 2.28684C6.04568 2.24007 6.10575 2.10099 6.06156 1.97627C6.01737 1.85125 5.88567 1.78797 5.76812 1.83474Z" fill="url(#paint4_linear)"/>
<path d="M5.54699 11.5353C5.42164 11.4681 5.29716 11.3917 5.17787 11.3088C5.07216 11.2361 4.93122 11.2672 4.8619 11.3785C4.79316 11.4901 4.82233 11.6396 4.92775 11.7126C5.06119 11.8049 5.20011 11.8902 5.34019 11.9657C5.37341 11.9834 5.40864 11.9917 5.4433 11.9917C5.52648 11.9917 5.60649 11.9434 5.64692 11.8596C5.70411 11.741 5.65905 11.5958 5.54699 11.5353Z" fill="url(#paint5_linear)"/>
<defs>
<linearGradient id="paint0_linear" x1="1.91821" y1="15.1543" x2="8.29077" y2="5.0307" gradientUnits="userSpaceOnUse">
<stop offset="0.9944" stop-color="#109CD8"/>
</linearGradient>
<linearGradient id="paint1_linear" x1="1.92233" y1="15.1573" x2="8.29489" y2="5.03366" gradientUnits="userSpaceOnUse">
<stop stop-color="#D02E90"/>
<stop offset="0.1043" stop-color="#C73394"/>
<stop offset="0.2778" stop-color="#AD429D"/>
<stop offset="0.4992" stop-color="#845AAD"/>
<stop offset="0.7568" stop-color="#4B7AC2"/>
<stop offset="0.9944" stop-color="#109CD8"/>
</linearGradient>
<linearGradient id="paint2_linear" x1="3.43526" y1="16.109" x2="9.80781" y2="5.98536" gradientUnits="userSpaceOnUse">
<stop stop-color="#D02E90"/>
<stop offset="0.1043" stop-color="#C73394"/>
<stop offset="0.2778" stop-color="#AD429D"/>
<stop offset="0.4992" stop-color="#845AAD"/>
<stop offset="0.7568" stop-color="#4B7AC2"/>
<stop offset="0.9944" stop-color="#109CD8"/>
</linearGradient>
<linearGradient id="paint3_linear" x1="0.432381" y1="14.2194" x2="6.80493" y2="4.09581" gradientUnits="userSpaceOnUse">
<stop stop-color="#D02E90"/>
<stop offset="0.1043" stop-color="#C73394"/>
<stop offset="0.2778" stop-color="#AD429D"/>
<stop offset="0.4992" stop-color="#845AAD"/>
<stop offset="0.7568" stop-color="#4B7AC2"/>
<stop offset="0.9944" stop-color="#109CD8"/>
</linearGradient>
<linearGradient id="paint4_linear" x1="-0.726979" y1="13.4888" x2="5.64558" y2="3.3652" gradientUnits="userSpaceOnUse">
<stop stop-color="#D02E90"/>
<stop offset="0.1043" stop-color="#C73394"/>
<stop offset="0.2778" stop-color="#AD429D"/>
<stop offset="0.4992" stop-color="#845AAD"/>
<stop offset="0.7568" stop-color="#4B7AC2"/>
<stop offset="0.9944" stop-color="#109CD8"/>
</linearGradient>
<linearGradient id="paint5_linear" x1="2.91548" y1="15.7815" x2="9.28804" y2="5.65789" gradientUnits="userSpaceOnUse">
<stop offset="1" stop-color="#109CD8"/>
</linearGradient>
</defs>
</svg>
