<svg width="12" height="14" viewBox="0 0 12 14" fill="none" xmlns="http://www.w3.org/2000/svg">
    <defs>
        <linearGradient id="paint0_linear" x1="10" y1="1" x2="2.5" y2="13" gradientUnits="userSpaceOnUse">
            <stop stop-color="#049EDD"/>
            <stop offset="1" stop-color="#B33F9B"/>
        </linearGradient>
        <linearGradient id="paint1_linear" x1="2.5" y1="12.5" x2="10" y2="1" gradientUnits="userSpaceOnUse">
            <stop stop-color="#B33F9B"/>
            <stop offset="1" stop-color="#049EDD"/>
        </linearGradient>
    </defs>
<path fill-rule="evenodd" clip-rule="evenodd" d="M1 1.97559C1 1.36495 1.44222 1.03262 1.90877 1.00402L9.13637 1C9.78808 1 10.1784 1.64468 10.1784 2.23338V11.7644C10.1784 12.0858 10.2304 12.3048 10.3808 12.5015C10.5078 12.6676 10.7049 12.8177 11 13H3.58575C3.03159 13 2.46342 12.4744 2.46342 11.7644V2.96666H1V1.97559ZM2.84863 1.54828C2.95059 1.77813 2.94444 1.96001 2.94127 2.05395C2.94081 2.06751 2.94041 2.07926 2.94041 2.08903V11.7644C2.94041 12.1976 3.29361 12.5015 3.58575 12.5015H9.82746C9.73014 12.2689 9.70143 12.0232 9.70143 11.7644V2.23338C9.70143 1.8086 9.42941 1.4985 9.13637 1.4985H2.82534C2.83367 1.51547 2.84142 1.53205 2.84863 1.54828ZM1.60482 1.63606C1.53441 1.70319 1.477 1.80578 1.477 1.97559V2.46816H2.45234V1.97575C2.45234 1.69061 2.23436 1.48638 1.9429 1.50132C1.80321 1.50848 1.68337 1.56116 1.60482 1.63606ZM5.57483 4.37037H7.42669C7.52891 4.37037 7.61187 4.28759 7.61187 4.18519C7.61187 4.08278 7.52891 4 7.42669 4H5.57483C5.47261 4 5.38965 4.08278 5.38965 4.18519C5.38965 4.28759 5.47261 4.37037 5.57483 4.37037ZM4.18519 5.85346H8.81481C8.91704 5.85346 9 5.77068 9 5.66828C9 5.56587 8.91704 5.48309 8.81481 5.48309H4.18519C4.08296 5.48309 4 5.56587 4 5.66828C4 5.77068 4.08296 5.85346 4.18519 5.85346ZM4.18519 6.96358H8.81481C8.91704 6.96358 9 7.04636 9 7.14877C9 7.25118 8.91704 7.33396 8.81481 7.33396H4.18519C4.08296 7.33396 4 7.25118 4 7.14877C4 7.04636 4.08296 6.96358 4.18519 6.96358ZM8.81481 8.44408H4.18519C4.08296 8.44408 4 8.52686 4 8.62926C4 8.73167 4.08296 8.81445 4.18519 8.81445H8.81481C8.91704 8.81445 9 8.73167 9 8.62926C9 8.52686 8.91704 8.44408 8.81481 8.44408Z" fill="url(#paint0_linear)"/>
<path d="M1.90877 1.00402L1.90868 0.853743L1.89959 0.8543L1.90877 1.00402ZM9.13637 1V0.85L9.13629 0.85L9.13637 1ZM10.3808 12.5015L10.2616 12.5926L10.3808 12.5015ZM11 13V13.15H11.5283L11.0788 12.8724L11 13ZM2.46342 2.96666H2.61342V2.81666H2.46342V2.96666ZM1 2.96666H0.85V3.11666H1V2.96666ZM2.94127 2.05395L2.79135 2.04888V2.04888L2.94127 2.05395ZM2.84863 1.54828L2.71151 1.60911L2.71151 1.60911L2.84863 1.54828ZM9.82746 12.5015V12.6515H10.0528L9.96584 12.4436L9.82746 12.5015ZM2.82534 1.4985V1.3485H2.58464L2.69069 1.56459L2.82534 1.4985ZM1.60482 1.63606L1.50131 1.5275L1.50131 1.5275L1.60482 1.63606ZM1.477 2.46816H1.327V2.61816H1.477V2.46816ZM2.45234 2.46816V2.61816H2.60234V2.46816H2.45234ZM1.9429 1.50132L1.95058 1.65112L1.9429 1.50132ZM1.89959 0.8543C1.36749 0.886921 0.85 1.27274 0.85 1.97559H1.15C1.15 1.45715 1.51694 1.17832 1.91794 1.15374L1.89959 0.8543ZM9.13629 0.85L1.90868 0.854019L1.90885 1.15402L9.13645 1.15L9.13629 0.85ZM10.3284 2.23338C10.3284 1.90833 10.2213 1.56753 10.0211 1.30496C9.81895 1.03998 9.51714 0.85 9.13637 0.85V1.15C9.40731 1.15 9.62652 1.28237 9.78252 1.48689C9.94036 1.69385 10.0284 1.96973 10.0284 2.23338H10.3284ZM10.3284 11.7644V2.23338H10.0284V11.7644H10.3284ZM10.5 12.4104C10.3773 12.2499 10.3284 12.0682 10.3284 11.7644H10.0284C10.0284 12.1033 10.0836 12.3597 10.2616 12.5926L10.5 12.4104ZM11.0788 12.8724C10.7862 12.6917 10.6093 12.5534 10.5 12.4104L10.2616 12.5926C10.4063 12.7818 10.6235 12.9438 10.9212 13.1276L11.0788 12.8724ZM3.58575 13.15H11V12.85H3.58575V13.15ZM2.31342 11.7644C2.31342 12.5514 2.94302 13.15 3.58575 13.15V12.85C3.12016 12.85 2.61342 12.3974 2.61342 11.7644H2.31342ZM2.31342 2.96666V11.7644H2.61342V2.96666H2.31342ZM1 3.11666H2.46342V2.81666H1V3.11666ZM0.85 1.97559V2.96666H1.15V1.97559H0.85ZM3.09118 2.05902C3.09459 1.95809 3.10164 1.74871 2.98574 1.48745L2.71151 1.60911C2.79955 1.80755 2.79429 1.96193 2.79135 2.04888L3.09118 2.05902ZM3.09041 2.08903C3.09041 2.08234 3.09069 2.07343 3.09118 2.05902L2.79135 2.04888C2.79092 2.06159 2.79041 2.07617 2.79041 2.08903H3.09041ZM3.09041 11.7644V2.08903H2.79041V11.7644H3.09041ZM3.58575 12.3515C3.48893 12.3515 3.36469 12.2989 3.26178 12.1916C3.16124 12.0868 3.09041 11.9388 3.09041 11.7644H2.79041C2.79041 12.0232 2.89619 12.2438 3.04528 12.3992C3.192 12.5522 3.39042 12.6515 3.58575 12.6515V12.3515ZM9.82746 12.3515H3.58575V12.6515H9.82746V12.3515ZM9.55143 11.7644C9.55143 12.0336 9.58113 12.3014 9.68909 12.5594L9.96584 12.4436C9.87914 12.2364 9.85143 12.0127 9.85143 11.7644H9.55143ZM9.55143 2.23338V11.7644H9.85143V2.23338H9.55143ZM9.13637 1.6485C9.31722 1.6485 9.55143 1.85868 9.55143 2.23338H9.85143C9.85143 1.75852 9.54159 1.3485 9.13637 1.3485V1.6485ZM2.82534 1.6485H9.13637V1.3485H2.82534V1.6485ZM2.98574 1.48745C2.9777 1.46934 2.96913 1.45101 2.96 1.43242L2.69069 1.56459C2.69821 1.57993 2.70514 1.59475 2.71151 1.60911L2.98574 1.48745ZM1.627 1.97559C1.627 1.84508 1.66883 1.78228 1.70833 1.74462L1.50131 1.5275C1.39999 1.6241 1.327 1.76648 1.327 1.97559H1.627ZM1.627 2.46816V1.97559H1.327V2.46816H1.627ZM2.45234 2.31816H1.477V2.61816H2.45234V2.31816ZM2.30234 1.97575V2.46816H2.60234V1.97575H2.30234ZM1.95058 1.65112C2.15893 1.64045 2.30234 1.77909 2.30234 1.97575H2.60234C2.60234 1.60213 2.30978 1.33232 1.93523 1.35152L1.95058 1.65112ZM1.70833 1.74462C1.75821 1.69707 1.84284 1.65664 1.95058 1.65112L1.93523 1.35152C1.76359 1.36031 1.60854 1.42526 1.50131 1.5275L1.70833 1.74462ZM7.42669 4.22037H5.57483V4.52037H7.42669V4.22037ZM7.46187 4.18519C7.46187 4.20465 7.44616 4.22037 7.42669 4.22037V4.52037C7.61165 4.52037 7.76187 4.37053 7.76187 4.18519H7.46187ZM7.42669 4.15C7.44616 4.15 7.46187 4.16572 7.46187 4.18519H7.76187C7.76187 3.99984 7.61165 3.85 7.42669 3.85V4.15ZM5.57483 4.15H7.42669V3.85H5.57483V4.15ZM5.53965 4.18519C5.53965 4.16572 5.55536 4.15 5.57483 4.15V3.85C5.38987 3.85 5.23965 3.99984 5.23965 4.18519H5.53965ZM5.57483 4.22037C5.55536 4.22037 5.53965 4.20465 5.53965 4.18519H5.23965C5.23965 4.37053 5.38987 4.52037 5.57483 4.52037V4.22037ZM8.81481 5.70346H4.18519V6.00346H8.81481V5.70346ZM8.85 5.66828C8.85 5.68774 8.83429 5.70346 8.81481 5.70346V6.00346C8.99978 6.00346 9.15 5.85362 9.15 5.66828H8.85ZM8.81481 5.63309C8.83429 5.63309 8.85 5.64881 8.85 5.66828H9.15C9.15 5.48293 8.99978 5.33309 8.81481 5.33309V5.63309ZM4.18519 5.63309H8.81481V5.33309H4.18519V5.63309ZM4.15 5.66828C4.15 5.64881 4.16571 5.63309 4.18519 5.63309V5.33309C4.00022 5.33309 3.85 5.48293 3.85 5.66828H4.15ZM4.18519 5.70346C4.16571 5.70346 4.15 5.68774 4.15 5.66828H3.85C3.85 5.85362 4.00022 6.00346 4.18519 6.00346V5.70346ZM8.81481 6.81358H4.18519V7.11358H8.81481V6.81358ZM9.15 7.14877C9.15 6.96342 8.99978 6.81358 8.81481 6.81358V7.11358C8.83429 7.11358 8.85 7.1293 8.85 7.14877H9.15ZM8.81481 7.48396C8.99978 7.48396 9.15 7.33412 9.15 7.14877H8.85C8.85 7.16824 8.83429 7.18396 8.81481 7.18396V7.48396ZM4.18519 7.48396H8.81481V7.18396H4.18519V7.48396ZM3.85 7.14877C3.85 7.33412 4.00022 7.48396 4.18519 7.48396V7.18396C4.16571 7.18396 4.15 7.16824 4.15 7.14877H3.85ZM4.18519 6.81358C4.00022 6.81358 3.85 6.96342 3.85 7.14877H4.15C4.15 7.1293 4.16571 7.11358 4.18519 7.11358V6.81358ZM4.18519 8.59408H8.81481V8.29408H4.18519V8.59408ZM4.15 8.62926C4.15 8.6098 4.16571 8.59408 4.18519 8.59408V8.29408C4.00022 8.29408 3.85 8.44391 3.85 8.62926H4.15ZM4.18519 8.66445C4.16571 8.66445 4.15 8.64873 4.15 8.62926H3.85C3.85 8.81461 4.00022 8.96445 4.18519 8.96445V8.66445ZM8.81481 8.66445H4.18519V8.96445H8.81481V8.66445ZM8.85 8.62926C8.85 8.64873 8.83429 8.66445 8.81481 8.66445V8.96445C8.99978 8.96445 9.15 8.81461 9.15 8.62926H8.85ZM8.81481 8.59408C8.83429 8.59408 8.85 8.6098 8.85 8.62926H9.15C9.15 8.44391 8.99978 8.29408 8.81481 8.29408V8.59408Z" fill="url(#paint1_linear)"/>
</svg>
