<svg width="8" height="3" viewBox="0 0 8 3" fill="none" xmlns="http://www.w3.org/2000/svg">
<path d="M7.28906 0.394531C7.28906 1.08203 7.10352 1.64453 6.73242 2.08203C6.36133 2.51562 5.89844 2.73242 5.34375 2.73242C5.05469 2.73242 4.78711 2.67773 4.54102 2.56836C4.29883 2.45898 4.02734 2.27148 3.72656 2.00586C3.42578 1.73633 3.20898 1.57031 3.07617 1.50781C2.94727 1.44141 2.80859 1.4082 2.66016 1.4082C2.39844 1.4082 2.19141 1.50977 2.03906 1.71289C1.89062 1.91602 1.81641 2.18164 1.81641 2.50977H0.685547C0.685547 1.8418 0.863281 1.29492 1.21875 0.869141C1.57422 0.439453 2.04102 0.224609 2.61914 0.224609C2.9082 0.224609 3.18164 0.283203 3.43945 0.400391C3.70117 0.513672 3.97266 0.699219 4.25391 0.957031C4.53906 1.21484 4.74609 1.37695 4.875 1.44336C5.00781 1.50977 5.15039 1.54297 5.30273 1.54297C5.56445 1.54297 5.77734 1.43359 5.94141 1.21484C6.10547 0.996094 6.1875 0.722656 6.1875 0.394531H7.28906Z" fill="white"/>
</svg>
