<svg width="24" height="24" viewBox="0 0 24 24" fill="none" xmlns="http://www.w3.org/2000/svg">
<mask id="path-1-inside-1" fill="white">
<path fill-rule="evenodd" clip-rule="evenodd" d="M5.15603 5.77445C6.896 3.46264 9.57005 2 12.5509 2C17.7217 2 22 6.42812 22 12C22 17.5719 17.7217 22 12.5509 22C8.73009 22 5.40663 19.5927 3.92105 16.0793C3.70596 15.5706 3.11923 15.3326 2.61055 15.5477C2.10187 15.7628 1.86387 16.3495 2.07895 16.8582C3.84769 21.0413 7.85266 24 12.5509 24C18.9218 24 24 18.5784 24 12C24 5.42162 18.9218 0 12.5509 0C8.85487 0 5.58377 1.83369 3.49826 4.65205L1.17823 3.08125C0.767072 2.86722 0.558854 3.0986 0.535273 3.51154L0.000429551 10.3829C-0.0110811 10.8864 0.208287 11.1015 0.713685 10.9547L7.58895 8.30397C8.07871 8.08698 8.10896 7.79944 7.79537 7.56143L5.15603 5.77445Z"/>
</mask>
<path fill-rule="evenodd" clip-rule="evenodd" d="M5.15603 5.77445C6.896 3.46264 9.57005 2 12.5509 2C17.7217 2 22 6.42812 22 12C22 17.5719 17.7217 22 12.5509 22C8.73009 22 5.40663 19.5927 3.92105 16.0793C3.70596 15.5706 3.11923 15.3326 2.61055 15.5477C2.10187 15.7628 1.86387 16.3495 2.07895 16.8582C3.84769 21.0413 7.85266 24 12.5509 24C18.9218 24 24 18.5784 24 12C24 5.42162 18.9218 0 12.5509 0C8.85487 0 5.58377 1.83369 3.49826 4.65205L1.17823 3.08125C0.767072 2.86722 0.558854 3.0986 0.535273 3.51154L0.000429551 10.3829C-0.0110811 10.8864 0.208287 11.1015 0.713685 10.9547L7.58895 8.30397C8.07871 8.08698 8.10896 7.79944 7.79537 7.56143L5.15603 5.77445Z" fill="#049EDD"/>
<path d="M5.15603 5.77445L2.75908 3.97039L0.862423 6.49037L3.4741 8.25862L5.15603 5.77445ZM3.92105 16.0793L1.1579 17.2476L1.1579 17.2476L3.92105 16.0793ZM2.61055 15.5477L3.7789 18.3108H3.7789L2.61055 15.5477ZM2.07895 16.8582L4.8421 15.6898H4.8421L2.07895 16.8582ZM3.49826 4.65205L1.81633 7.13622L4.19856 8.74912L5.90982 6.43653L3.49826 4.65205ZM1.17823 3.08125L2.86015 0.597079L2.71691 0.500098L2.56348 0.420223L1.17823 3.08125ZM0.535273 3.51154L3.52623 3.74434L3.52863 3.71348L3.53039 3.68257L0.535273 3.51154ZM0.000429551 10.3829L-2.99052 10.1501L-2.99691 10.2321L-2.99879 10.3144L0.000429551 10.3829ZM0.713685 10.9547L1.55087 13.8355L1.67362 13.7998L1.79288 13.7538L0.713685 10.9547ZM7.58895 8.30397L8.66814 11.1031L8.73685 11.0766L8.80418 11.0468L7.58895 8.30397ZM7.79537 7.56143L9.60905 5.17176L9.54445 5.12273L9.47729 5.07725L7.79537 7.56143ZM12.5509 -1C8.55366 -1 5.01985 0.966628 2.75908 3.97039L7.55298 7.57851C8.77215 5.95866 10.5864 5 12.5509 5V-1ZM25 12C25 4.91375 19.5175 -1 12.5509 -1V5C15.9259 5 19 7.94249 19 12H25ZM12.5509 25C19.5175 25 25 19.0863 25 12H19C19 16.0575 15.9259 19 12.5509 19V25ZM1.1579 17.2476C3.06893 21.7672 7.41564 25 12.5509 25V19C10.0446 19 7.74433 17.4182 6.68419 14.911L1.1579 17.2476ZM3.7789 18.3108C2.76154 18.741 1.58808 18.265 1.1579 17.2476L6.68419 14.911C5.82384 12.8762 3.47693 11.9242 1.4422 12.7846L3.7789 18.3108ZM4.8421 15.6898C5.27227 16.7072 4.79626 17.8807 3.7789 18.3108L1.4422 12.7846C-0.592521 13.6449 -1.54454 15.9918 -0.684191 18.0265L4.8421 15.6898ZM12.5509 21C9.1702 21 6.18668 18.8698 4.8421 15.6898L-0.684191 18.0265C1.50871 23.2128 6.53513 27 12.5509 27V21ZM21 12C21 17.0725 17.118 21 12.5509 21V27C20.7257 27 27 20.0843 27 12H21ZM12.5509 3C17.118 3 21 6.92754 21 12H27C27 3.91569 20.7257 -3 12.5509 -3V3ZM5.90982 6.43653C7.47725 4.31831 9.88331 3 12.5509 3V-3C7.82642 -3 3.69029 -0.650926 1.0867 2.86756L5.90982 6.43653ZM5.18019 2.16787L2.86015 0.597079L-0.503699 5.56543L1.81633 7.13622L5.18019 2.16787ZM2.56348 0.420223C1.84752 0.0475171 0.296054 -0.415657 -1.1298 0.692751C-2.2749 1.58291 -2.43195 2.85197 -2.45985 3.34051L3.53039 3.68257C3.52608 3.75818 3.48492 4.70508 2.55262 5.42981C1.33956 6.3728 0.0977827 5.90096 -0.207021 5.74229L2.56348 0.420223ZM-2.45568 3.27874L-2.99052 10.1501L2.99138 10.6157L3.52623 3.74434L-2.45568 3.27874ZM-2.99879 10.3144C-3.01042 10.8231 -2.96054 12.2023 -1.77129 13.2057C-0.496334 14.2813 0.959512 14.0073 1.55087 13.8355L-0.123503 8.07385C-0.0375392 8.04887 1.05592 7.74079 2.09773 8.61973C3.05382 9.42637 2.99977 10.4462 2.99965 10.4515L-2.99879 10.3144ZM1.79288 13.7538L8.66814 11.1031L6.50976 5.5048L-0.365509 8.1555L1.79288 13.7538ZM8.80418 11.0468C9.26506 10.8426 10.5563 10.1835 10.9172 8.61235C11.3411 6.7674 10.1332 5.56955 9.60905 5.17176L5.98168 9.9511C5.77115 9.79132 4.70487 8.85624 5.0696 7.26882C5.22627 6.58691 5.59645 6.14583 5.84567 5.91757C6.08976 5.694 6.30211 5.59285 6.37372 5.56113L8.80418 11.0468ZM9.47729 5.07725L6.83795 3.29028L3.4741 8.25862L6.11344 10.0456L9.47729 5.07725Z" fill="#049EDD" mask="url(#path-1-inside-1)"/>
<path d="M9.7627 12.1543L10.2139 8.17969H14.5967V9.47412H11.4868L11.2935 11.1553C11.6623 10.9583 12.0544 10.8599 12.4697 10.8599C13.2145 10.8599 13.7982 11.0908 14.2207 11.5527C14.6432 12.0146 14.8545 12.661 14.8545 13.4917C14.8545 13.9966 14.7471 14.4495 14.5322 14.8506C14.321 15.248 14.0166 15.5578 13.6191 15.7798C13.2217 15.9982 12.7526 16.1074 12.2119 16.1074C11.7393 16.1074 11.3006 16.0125 10.896 15.8228C10.4914 15.6294 10.1709 15.359 9.93457 15.0117C9.70182 14.6644 9.57829 14.2687 9.56396 13.8247H11.1001C11.1323 14.1506 11.2451 14.4048 11.4385 14.5874C11.6354 14.7664 11.8914 14.856 12.2065 14.856C12.5575 14.856 12.8278 14.7306 13.0176 14.48C13.2074 14.2257 13.3022 13.8677 13.3022 13.4058C13.3022 12.9618 13.193 12.6216 12.9746 12.3853C12.7562 12.1489 12.4465 12.0308 12.0454 12.0308C11.6766 12.0308 11.3776 12.1274 11.1484 12.3208L10.998 12.4604L9.7627 12.1543Z" fill="#049EDD"/>
</svg>
