<svg width="19" height="16" viewBox="0 0 19 16" fill="none" xmlns="http://www.w3.org/2000/svg">
<path fill-rule="evenodd" clip-rule="evenodd" d="M1.95385 1.51381C1.95385 1.6414 1.83177 1.82762 1.57693 1.82762C1.32209 1.82762 1.2 1.6414 1.2 1.51381C1.2 1.38622 1.32209 1.2 1.57693 1.2C1.83177 1.2 1.95385 1.38622 1.95385 1.51381ZM2.8174 2.44856C2.52869 2.80116 2.08036 3.02762 1.57693 3.02762C0.706014 3.02762 0 2.34987 0 1.51381C0 0.677757 0.706014 0 1.57693 0C2.23968 0 2.80695 0.392495 3.04025 0.94856H15.1045C17.3039 0.848858 18.7606 2.67864 18.9725 4.48404C19.0818 5.41589 18.8793 6.41209 18.2489 7.23395C17.6133 8.06246 16.6002 8.6398 15.228 8.83495L15.1754 8.84243H15.1224H4.3501C3.36389 8.92088 2.72027 9.28767 2.32735 9.73329C1.92464 10.19 1.73699 10.7838 1.76315 11.3864C1.81525 12.5868 2.69775 13.7363 4.32143 13.7363H16.0343V15.2363H4.32143C1.80503 15.2363 0.347466 13.3616 0.264557 11.4515C0.22321 10.4989 0.519314 9.51577 1.20225 8.74124C1.89146 7.9596 2.92737 7.44332 4.2662 7.34446L4.29378 7.34243H4.32143H15.0675C16.0949 7.18602 16.7099 6.77569 17.0587 6.32098C17.4183 5.85218 17.5533 5.26072 17.4827 4.6589C17.3352 3.40242 16.3699 2.38648 15.1602 2.4476L15.1413 2.44856H15.1224H2.8174Z" fill="#109CD8"/>
<path d="M12.3585 1.51381C12.3585 1.99563 11.9445 2.42762 11.3816 2.42762C10.8187 2.42762 10.4047 1.99563 10.4047 1.51381C10.4047 1.03199 10.8187 0.6 11.3816 0.6C11.9445 0.6 12.3585 1.03199 12.3585 1.51381Z" fill="white" stroke="#109CD8" stroke-width="1.2"/>
<path d="M9.90053 7.92006C9.90053 8.40188 9.48648 8.83387 8.92361 8.83387C8.36073 8.83387 7.94668 8.40188 7.94668 7.92006C7.94668 7.43824 8.36073 7.00625 8.92361 7.00625C9.48648 7.00625 9.90053 7.43824 9.90053 7.92006Z" fill="white" stroke="#109CD8" stroke-width="1.2"/>
<path d="M7.53823 14.3302C7.53823 14.812 7.12418 15.244 6.5613 15.244C5.99843 15.244 5.58438 14.812 5.58438 14.3302C5.58438 13.8484 5.99843 13.4164 6.5613 13.4164C7.12418 13.4164 7.53823 13.8484 7.53823 14.3302Z" fill="white" stroke="#109CD8" stroke-width="1.2"/>
<path d="M18.0333 14.4865C18.0333 14.9683 17.6193 15.4003 17.0564 15.4003C16.4935 15.4003 16.0795 14.9683 16.0795 14.4865C16.0795 14.0046 16.4935 13.5727 17.0564 13.5727C17.6193 13.5727 18.0333 14.0046 18.0333 14.4865Z" fill="white" stroke="#109CD8" stroke-width="1.2"/>
</svg>
