<svg width="247" height="225" viewBox="0 0 247 225" fill="none" xmlns="http://www.w3.org/2000/svg">
<rect x="0.0639648" y="104.213" width="211.67" height="25.7814" rx="12.8907" transform="rotate(-29.455 0.0639648 104.213)" fill="#F2F2F2" fill-opacity="0.5"/>
<rect x="5.63672" y="160.117" width="222.039" height="25.7814" rx="12.8907" transform="rotate(-29.455 5.63672 160.117)" fill="#F2F2F2" fill-opacity="0.5"/>
<rect x="36.1416" y="202.082" width="226.589" height="25.7814" rx="12.8907" transform="rotate(-29.455 36.1416 202.082)" fill="#F2F2F2" fill-opacity="0.5"/>
<path fill-rule="evenodd" clip-rule="evenodd" d="M154.349 46.6855C149.388 50.5437 147.869 57.5556 151.052 63.1917C154.553 69.3908 162.416 71.5782 168.615 68.0773L198.684 51.0963C198.624 51.1319 198.562 51.167 198.501 51.2018L40.417 140.478C45.5838 136.665 47.2114 129.508 43.9736 123.775C40.6459 117.883 33.3767 115.615 27.3418 118.411L154.349 46.6855Z" fill="#F2F2F2" fill-opacity="0.5"/>
<path fill-rule="evenodd" clip-rule="evenodd" d="M158.399 118.233C154.931 112.091 157.046 104.316 163.114 100.768L29.5541 176.194C23.7712 179.46 21.4794 186.522 24.0397 192.488C24.2254 192.922 24.4366 193.35 24.6741 193.771C28.1749 199.97 36.0383 202.157 42.2374 198.656L56.2388 190.749C56.4163 190.649 56.5906 190.545 56.7616 190.438L223.811 96.0984C223.869 96.066 223.926 96.0332 223.983 96L175.963 123.119C169.764 126.619 161.9 124.432 158.399 118.233ZM56.7616 190.438C62.5585 186.799 64.525 179.207 61.1244 173.186C57.6235 166.987 49.7601 164.799 43.561 168.3L29.5597 176.207C23.781 179.471 21.4884 186.525 24.0397 192.488C24.224 192.918 24.4334 193.341 24.6685 193.758C28.1694 199.957 36.0327 202.144 42.2318 198.643L56.7616 190.438Z" fill="#F2F2F2" fill-opacity="0.5"/>
<ellipse cx="122.5" cy="113" rx="74.5" ry="74" fill="white"/>
<circle cx="122" cy="113" r="64" fill="#99E6FF"/>
<path d="M208.515 96.9559C209.089 100.014 209.501 103.129 209.744 106.291C209.195 106.329 208.781 106.804 208.817 107.353C208.938 109.22 209 111.103 209 113C209 114.897 208.938 116.78 208.817 118.647C208.781 119.196 209.195 119.671 209.744 119.709C209.501 122.871 209.089 125.986 208.515 129.044C207.976 128.94 207.452 129.291 207.345 129.83C206.602 133.554 205.617 137.19 204.407 140.724C204.229 141.244 204.505 141.811 205.024 141.992C203.967 144.965 202.753 147.864 201.391 150.679C200.897 150.436 200.3 150.638 200.055 151.13C198.37 154.51 196.469 157.764 194.369 160.875C194.061 161.331 194.179 161.95 194.633 162.26C192.843 164.846 190.917 167.33 188.864 169.704C188.45 169.342 187.821 169.381 187.456 169.793C184.962 172.611 182.285 175.266 179.443 177.738C179.028 178.099 178.983 178.728 179.342 179.145C176.953 181.176 174.452 183.082 171.85 184.852C171.544 184.396 170.926 184.273 170.467 184.577C167.342 186.651 164.074 188.529 160.68 190.191C160.185 190.433 159.98 191.029 160.219 191.524C157.396 192.867 154.49 194.063 151.51 195.104C151.332 194.584 150.767 194.305 150.245 194.481C146.707 195.672 143.065 196.641 139.337 197.372C138.797 197.478 138.445 198 138.547 198.54C135.488 199.104 132.372 199.51 129.21 199.748C129.171 199.2 128.697 198.784 128.148 198.82C126.281 198.939 124.398 199 122.5 199C120.602 199 118.719 198.939 116.852 198.82C116.303 198.784 115.829 199.2 115.79 199.748C112.628 199.51 109.512 199.104 106.453 198.54C106.555 198 106.203 197.478 105.663 197.372C101.935 196.641 98.2935 195.672 94.7547 194.481C94.2331 194.305 93.6681 194.584 93.4899 195.104C90.5098 194.063 87.6035 192.867 84.781 191.524C85.02 191.029 84.8146 190.433 84.3203 190.191C80.9263 188.529 77.6578 186.651 74.5327 184.577C74.0741 184.272 73.4562 184.396 73.1497 184.852C70.548 183.082 68.0474 181.176 65.6582 179.145C66.0167 178.728 65.9718 178.099 65.5566 177.738C62.7152 175.266 60.0381 172.611 57.5436 169.793C57.1788 169.381 56.5499 169.342 56.1363 169.704C54.0831 167.33 52.1565 164.846 50.3669 162.26C50.8207 161.95 50.9393 161.331 50.6313 160.875C48.531 157.764 46.6296 154.51 44.9453 151.13C44.6998 150.638 44.1027 150.436 43.6094 150.679C42.247 147.864 41.0325 144.965 39.976 141.992C40.4949 141.811 40.7709 141.244 40.5927 140.724C39.3832 137.19 38.3984 133.554 37.6555 129.83C37.5478 129.291 37.0244 128.94 36.4848 129.044C35.9114 125.986 35.4989 122.871 35.2563 119.709C35.8046 119.671 36.2192 119.196 36.1835 118.647C36.0618 116.78 36 114.897 36 113C36 111.103 36.0618 109.22 36.1834 107.353C36.2192 106.804 35.8046 106.33 35.2563 106.291C35.4989 103.129 35.9114 100.014 36.4848 96.9559C37.0244 97.0603 37.5478 96.7095 37.6555 96.1698C38.3984 92.4464 39.3832 88.8097 40.5927 85.2764C40.7709 84.7557 40.4949 84.1893 39.976 84.0083C41.0325 81.0351 42.247 78.1361 43.6094 75.3212C44.1027 75.5636 44.6998 75.3622 44.9453 74.8697C46.6296 71.4898 48.531 68.2357 50.6313 65.1253C50.9393 64.6692 50.8207 64.0504 50.3669 63.7402C52.1565 61.1544 54.0831 58.6697 56.1363 56.2963C56.5499 56.6583 57.1788 56.6187 57.5436 56.2066C60.0381 53.3886 62.7153 50.7343 65.5566 48.2618C65.9718 47.9005 66.0167 47.272 65.6582 46.8553C68.0475 44.8236 70.5481 42.9176 73.1497 41.1477C73.4562 41.604 74.0742 41.7275 74.5327 41.4231C77.6578 39.3488 80.9263 37.4714 84.3203 35.8089C84.8146 35.5668 85.02 34.9711 84.781 34.4761C87.6035 33.1333 90.5098 31.9365 93.4899 30.8956C93.6681 31.4156 94.2331 31.6946 94.7547 31.5191C98.2935 30.3284 101.935 29.3592 105.663 28.6281C106.203 28.5221 106.555 27.9999 106.453 27.4599C109.512 26.896 112.628 26.4904 115.79 26.252C115.829 26.8003 116.303 27.2156 116.852 27.1804C118.719 27.0607 120.602 27 122.5 27C124.398 27 126.281 27.0607 128.148 27.1804C128.697 27.2156 129.171 26.8003 129.21 26.252C132.372 26.4904 135.488 26.896 138.547 27.4599C138.445 27.9999 138.797 28.5221 139.337 28.6281C143.065 29.3592 146.707 30.3284 150.245 31.5191C150.767 31.6946 151.332 31.4156 151.51 30.8956C154.49 31.9365 157.396 33.1333 160.219 34.4761C159.98 34.9711 160.185 35.5668 160.68 35.8089C164.074 37.4714 167.342 39.3488 170.467 41.4231C170.926 41.7275 171.544 41.604 171.85 41.1477C174.452 42.9176 176.953 44.8236 179.342 46.8553C178.983 47.272 179.028 47.9006 179.443 48.2619C182.285 50.7343 184.962 53.3886 187.456 56.2066C187.821 56.6187 188.45 56.6583 188.864 56.2963C190.917 58.6697 192.843 61.1544 194.633 63.7402C194.179 64.0504 194.061 64.6692 194.369 65.1254C196.469 68.2357 198.37 71.4899 200.055 74.8697C200.3 75.3622 200.897 75.5636 201.391 75.3212C202.753 78.1361 203.967 81.0351 205.024 84.0083C204.505 84.1893 204.229 84.7557 204.407 85.2764C205.617 88.8097 206.602 92.4464 207.345 96.1698C207.452 96.7095 207.976 97.0604 208.515 96.9559Z" stroke="#109CD8" stroke-width="2" stroke-linecap="round" stroke-dasharray="10.55 10.55"/>
<path d="M95.6072 115.428L110.794 130.665C111.186 131.058 111.823 131.057 112.214 130.662L147.925 94.5713" stroke="white" stroke-width="8" stroke-linecap="round"/>
</svg>
