<svg width="385" height="351" viewBox="0 0 385 351" fill="none" xmlns="http://www.w3.org/2000/svg">
<rect x="0.578613" y="162.529" width="330.519" height="40.2573" rx="15" transform="rotate(-29.455 0.578613 162.529)" fill="#F2F2F2" fill-opacity="0.5"/>
<rect x="9.28027" y="249.824" width="346.711" height="40.2573" rx="15" transform="rotate(-29.455 9.28027 249.824)" fill="#F2F2F2" fill-opacity="0.5"/>
<rect x="56.9136" y="315.352" width="353.815" height="40.2573" rx="15" transform="rotate(-29.455 56.9136 315.352)" fill="#F2F2F2" fill-opacity="0.5"/>
<path fill-rule="evenodd" clip-rule="evenodd" d="M237.394 75.0137C231.833 79.5444 230.177 87.5524 233.823 94.0089L238.867 102.94C242.941 110.154 252.091 112.699 259.304 108.625L314.943 77.2038C314.898 77.2299 314.853 77.2558 314.807 77.2815L67.7689 216.793C73.5891 212.314 75.3816 204.121 71.6651 197.54L66.6212 188.609C62.7781 181.804 54.417 179.153 47.4263 182.295L237.394 75.0137Z" fill="#F2F2F2" fill-opacity="0.5"/>
<path fill-rule="evenodd" clip-rule="evenodd" d="M245.295 179.954C241.275 172.835 243.702 163.829 250.7 159.679L42.1612 277.449C35.4307 281.25 32.7642 289.47 35.7463 296.413C35.9625 296.918 36.2087 297.417 36.4853 297.907L41.5292 306.839C45.603 314.052 54.753 316.597 61.9665 312.524L92.7609 295.133C93.0061 294.994 93.2459 294.85 93.4802 294.7L354.423 147.336C354.517 147.283 354.611 147.229 354.703 147.174L270.777 194.57C263.563 198.644 254.413 196.099 250.339 188.885L245.295 179.954ZM93.4802 294.7C100.14 290.439 102.381 281.664 98.4459 274.696L93.402 265.764C89.3283 258.551 80.1782 256.005 72.9648 260.079L42.1704 277.47C35.4468 281.267 32.7789 289.474 35.7463 296.413C35.9603 296.911 36.2034 297.403 36.4762 297.886L41.5201 306.817C45.5938 314.031 54.7439 316.576 61.9573 312.502L93.4802 294.7Z" fill="#F2F2F2" fill-opacity="0.5"/>
<ellipse cx="191.761" cy="176.251" rx="116.331" ry="115.55" fill="white"/>
<circle cx="190.98" cy="176.252" r="99.9352" fill="#99E6FF"/>
<path d="M327.565 161.221C327.882 164.086 328.109 166.978 328.244 169.894C327.694 169.918 327.266 170.382 327.288 170.932C327.356 172.696 327.391 174.469 327.391 176.25C327.391 178.031 327.356 179.803 327.288 181.567C327.266 182.118 327.694 182.582 328.244 182.605C328.109 185.521 327.882 188.414 327.565 191.279C327.018 191.216 326.522 191.608 326.458 192.155C326.04 195.694 325.484 199.191 324.795 202.64C324.687 203.18 325.037 203.706 325.577 203.815C324.985 206.669 324.304 209.49 323.535 212.275C323.005 212.127 322.454 212.435 322.304 212.965C321.333 216.385 320.229 219.749 318.999 223.053C318.807 223.569 319.069 224.144 319.584 224.338C318.549 227.056 317.429 229.733 316.227 232.366C315.727 232.135 315.134 232.352 314.901 232.851C313.403 236.069 311.78 239.218 310.04 242.292C309.768 242.772 309.936 243.38 310.414 243.653C308.965 246.17 307.437 248.636 305.834 251.048C305.376 250.742 304.757 250.863 304.448 251.32C302.465 254.257 300.368 257.113 298.164 259.882C297.82 260.313 297.891 260.94 298.32 261.284C296.497 263.541 294.602 265.738 292.639 267.873C292.235 267.499 291.605 267.522 291.229 267.925C288.814 270.514 286.297 273.008 283.687 275.402C283.28 275.775 283.252 276.405 283.623 276.813C281.472 278.756 279.259 280.632 276.987 282.437C276.646 282.005 276.019 281.929 275.585 282.269C272.8 284.449 269.927 286.523 266.972 288.484C266.513 288.789 266.387 289.407 266.69 289.867C264.265 291.451 261.788 292.96 259.259 294.391C258.99 293.911 258.383 293.739 257.901 294.007C254.815 295.724 251.655 297.324 248.426 298.802C247.925 299.032 247.704 299.623 247.932 300.125C245.292 301.31 242.608 302.414 239.883 303.434C239.692 302.917 239.119 302.652 238.601 302.842C235.292 304.053 231.921 305.139 228.496 306.095C227.965 306.243 227.655 306.792 227.801 307.323C225.013 308.079 222.189 308.75 219.334 309.332C219.226 308.792 218.701 308.44 218.16 308.546C214.709 309.223 211.21 309.77 207.669 310.182C207.122 310.245 206.729 310.739 206.791 311.287C203.925 311.598 201.033 311.822 198.117 311.955C198.094 311.405 197.63 310.976 197.079 310.997C195.315 311.065 193.542 311.099 191.761 311.099C189.98 311.099 188.207 311.065 186.443 310.997C185.892 310.976 185.428 311.405 185.405 311.955C182.489 311.822 179.597 311.598 176.731 311.287C176.793 310.739 176.4 310.245 175.853 310.182C172.312 309.77 168.813 309.223 165.362 308.546C164.821 308.44 164.296 308.792 164.188 309.332C161.333 308.75 158.509 308.079 155.721 307.323C155.867 306.792 155.557 306.243 155.026 306.095C151.601 305.139 148.23 304.053 144.921 302.842C144.403 302.652 143.83 302.917 143.639 303.434C140.914 302.414 138.23 301.31 135.59 300.125C135.818 299.623 135.597 299.032 135.096 298.802C131.867 297.324 128.707 295.724 125.621 294.007C125.139 293.739 124.532 293.911 124.263 294.391C121.734 292.96 119.256 291.451 116.832 289.867C117.135 289.407 117.009 288.789 116.55 288.484C113.595 286.523 110.722 284.449 107.937 282.269C107.503 281.929 106.876 282.005 106.535 282.437C104.263 280.632 102.05 278.756 99.8991 276.813C100.27 276.405 100.242 275.775 99.8354 275.402C97.2245 273.008 94.7084 270.514 92.2933 267.925C91.9174 267.522 91.2866 267.499 90.8826 267.873C88.9202 265.738 87.0255 263.541 85.2017 261.284C85.6312 260.94 85.7015 260.313 85.3583 259.881C83.1543 257.113 81.0574 254.257 79.0736 251.32C78.7652 250.863 78.1457 250.742 77.6883 251.048C76.085 248.636 74.5571 246.17 73.1078 243.653C73.586 243.38 73.7537 242.772 73.4822 242.292C71.742 239.218 70.1195 236.069 68.6208 232.851C68.3882 232.352 67.7954 232.135 67.2955 232.366C66.0932 229.733 64.9728 227.056 63.9377 224.338C64.453 224.144 64.7148 223.569 64.5225 223.053C63.2928 219.749 62.1894 216.385 61.2184 212.965C61.0679 212.435 60.5171 212.127 59.9869 212.275C59.2184 209.49 58.5369 206.669 57.9454 203.815C58.4849 203.706 58.8346 203.18 58.7267 202.64C58.0384 199.191 57.4824 195.694 57.0643 192.155C56.9996 191.608 56.5045 191.216 55.9575 191.279C55.6403 188.414 55.4128 185.521 55.2777 182.605C55.8279 182.582 56.2558 182.118 56.2344 181.567C56.1656 179.803 56.1309 178.031 56.1309 176.25C56.1309 174.469 56.1656 172.696 56.2344 170.932C56.2558 170.382 55.8278 169.918 55.2777 169.894C55.4128 166.978 55.6403 164.086 55.9575 161.221C56.5045 161.283 56.9996 160.892 57.0643 160.345C57.4824 156.806 58.0384 153.309 58.7267 149.86C58.8345 149.319 58.4849 148.794 57.9454 148.684C58.5369 145.831 59.2184 143.01 59.9869 140.224C60.5171 140.373 61.0679 140.065 61.2184 139.535C62.1894 136.115 63.2928 132.75 64.5225 129.447C64.7148 128.93 64.453 128.356 63.9377 128.162C64.9728 125.443 66.0932 122.766 67.2955 120.134C67.7954 120.365 68.3882 120.148 68.6208 119.648C70.1195 116.431 71.742 113.282 73.4822 110.207C73.7537 109.728 73.586 109.119 73.1078 108.846C74.5571 106.33 76.085 103.863 77.6883 101.451C78.1457 101.758 78.7652 101.637 79.0736 101.18C81.0574 98.2421 83.1543 95.3861 85.3583 92.6181C85.7015 92.187 85.6312 91.5597 85.2017 91.2152C87.0255 88.9587 88.9202 86.7614 90.8826 84.6265C91.2866 85.0007 91.9174 84.9779 92.2933 84.5749C94.7084 81.9858 97.2245 79.4912 99.8354 77.0972C100.242 76.7247 100.27 76.0941 99.8991 75.687C102.05 73.7437 104.263 71.8676 106.535 70.0622C106.876 70.4946 107.503 70.5701 107.937 70.2305C110.722 68.0506 113.595 65.977 116.55 64.0156C117.009 63.7108 117.135 63.0923 116.832 62.6324C119.257 61.0488 121.734 59.5397 124.263 58.1086C124.532 58.5888 125.139 58.7609 125.621 58.493C128.707 56.776 131.867 55.1754 135.096 53.6972C135.597 53.4678 135.818 52.8765 135.59 52.375C138.23 51.19 140.914 50.0858 143.639 49.0659C143.83 49.5822 144.403 49.8473 144.921 49.6579C148.23 48.447 151.601 47.3607 155.026 46.4048C155.557 46.2566 155.867 45.7071 155.721 45.1763C158.509 44.4202 161.333 43.7497 164.188 43.1679C164.296 43.7078 164.821 44.0592 165.362 43.9531C168.813 43.2761 172.312 42.7293 175.853 42.3181C176.4 42.2545 176.793 41.7601 176.731 41.213C179.597 40.9012 182.489 40.6775 185.405 40.5448C185.428 41.0949 185.892 41.5233 186.443 41.5021C188.207 41.4345 189.98 41.4004 191.761 41.4004C193.542 41.4004 195.315 41.4345 197.079 41.5021C197.63 41.5233 198.094 41.0949 198.117 40.5448C201.033 40.6775 203.925 40.9012 206.791 41.213C206.729 41.7601 207.122 42.2545 207.669 42.3181C211.21 42.7293 214.709 43.2761 218.16 43.9531C218.701 44.0592 219.226 43.7078 219.334 43.1679C222.189 43.7497 225.013 44.4202 227.801 45.1763C227.655 45.7071 227.965 46.2566 228.496 46.4048C231.921 47.3607 235.292 48.447 238.601 49.6579C239.119 49.8473 239.692 49.5822 239.883 49.0658C242.608 50.0858 245.292 51.19 247.932 52.375C247.704 52.8765 247.925 53.4678 248.426 53.6972C251.655 55.1754 254.815 56.776 257.901 58.493C258.383 58.7609 258.99 58.5888 259.259 58.1086C261.788 59.5397 264.266 61.0488 266.69 62.6325C266.387 63.0923 266.513 63.7108 266.972 64.0156C269.927 65.977 272.8 68.0506 275.585 70.2305C276.019 70.5701 276.646 70.4946 276.987 70.0622C279.259 71.8676 281.472 73.7437 283.623 75.687C283.252 76.0941 283.28 76.7247 283.687 77.0972C286.297 79.4912 288.814 81.9858 291.229 84.5749C291.605 84.9779 292.235 85.0007 292.639 84.6266C294.602 86.7614 296.497 88.9587 298.32 91.2152C297.891 91.5597 297.82 92.187 298.164 92.6181C300.368 95.3861 302.465 98.2421 304.448 101.18C304.757 101.637 305.376 101.758 305.834 101.451C307.437 103.863 308.965 106.33 310.414 108.846C309.936 109.119 309.768 109.728 310.04 110.207C311.78 113.282 313.403 116.431 314.901 119.648C315.134 120.148 315.727 120.365 316.227 120.134C317.429 122.766 318.549 125.443 319.584 128.162C319.069 128.356 318.807 128.93 318.999 129.447C320.229 132.75 321.333 136.115 322.304 139.535C322.454 140.065 323.005 140.373 323.535 140.224C324.304 143.01 324.985 145.83 325.577 148.684C325.037 148.794 324.687 149.319 324.795 149.86C325.484 153.309 326.04 156.806 326.458 160.345C326.522 160.892 327.018 161.283 327.565 161.221Z" stroke="#109CD8" stroke-width="2" stroke-linecap="round" stroke-dasharray="10.55 10.55"/>
<path d="M149.768 180.042L173.882 204.234C174.274 204.627 174.911 204.626 175.301 204.232L231.461 147.474" stroke="white" stroke-width="8" stroke-linecap="round"/>
</svg>
