<svg width="12" height="12" viewBox="0 0 12 12" fill="none" xmlns="http://www.w3.org/2000/svg">
    <defs>
        <linearGradient id="paint0_linear" x1="9.9927" y1="1.88604" x2="1.50948e-07" y2="10.6853" gradientUnits="userSpaceOnUse">
            <stop stop-color="#049EDD"/>
            <stop offset="1" stop-color="#B1409C"/>
        </linearGradient>
    </defs>
<path fill-rule="evenodd" clip-rule="evenodd" d="M1.88627 4.75781H2.8125C3.07139 4.75781 3.28125 4.96767 3.28125 5.22656V9.63281C3.28125 9.8917 3.07139 10.1016 2.8125 10.1016H1.875C1.46796 10.1016 1.0908 9.97119 0.783076 9.75H0.75V9.72567C0.294857 9.38325 0 8.83869 0 8.22656V6.63281C0 5.94007 0.37793 5.3343 0.938133 5.0097C0.95168 3.6772 1.47656 2.42648 2.42027 1.48277C3.37645 0.526594 4.64777 0 6 0C7.05499 0 8.06618 0.321422 8.92423 0.929508C9.76298 1.52393 10.3941 2.34574 10.7494 3.30612C10.8392 3.54893 10.7152 3.81855 10.4724 3.90839C10.2296 3.99818 9.95993 3.87417 9.87012 3.63138C9.27403 2.02008 7.71877 0.9375 6 0.9375C3.82795 0.9375 2.04274 2.625 1.88627 4.75781ZM9.1875 4.75781H10.125C11.1589 4.75781 12 5.59894 12 6.63281V8.22656C12 8.83869 11.7051 9.38325 11.25 9.72567V9.75H11.2169C10.9092 9.97119 10.532 10.1016 10.125 10.1016H9.65625V10.125C9.65625 10.9004 9.02541 11.5312 8.25 11.5312H6.82031V11.5164C6.66042 11.8047 6.35306 12 6 12C5.48224 12 5.0625 11.5803 5.0625 11.0625C5.0625 10.5447 5.48224 10.125 6 10.125C6.35306 10.125 6.66042 10.3203 6.82031 10.6086V10.5938H8.25C8.50847 10.5938 8.71875 10.3835 8.71875 10.125V9.63281V8.4375V5.22656C8.71875 4.96767 8.92861 4.75781 9.1875 4.75781Z" fill="url(#paint0_linear)"/>
</svg>
