<svg width="12" height="12" viewBox="0 0 12 12" fill="none" xmlns="http://www.w3.org/2000/svg">
    <defs>
        <linearGradient id="paint0_linear" x1="10.0936" y1="7.4751" x2="6.6364" y2="11.4429" gradientUnits="userSpaceOnUse">
            <stop stop-color="#049EDD"/>
            <stop offset="1" stop-color="#B33F9B"/>
        </linearGradient>
    </defs>
<path fill-rule="evenodd" clip-rule="evenodd" d="M7.75853 0H2.34473H1.34473V1V11V12H2.34473H9.65508H10.6551V11V2.89656L10.6552 2.89656L7.7586 0V7.10487e-05L7.75853 0ZM7.7586 1.41428L7.34431 1H2.34473V11H9.65508V3.31077L9.24087 2.89656H7.7586V1.41428ZM3.41295 4.75906H8.58537C8.69958 4.75906 8.79227 4.66657 8.79227 4.55216C8.79227 4.43775 8.69958 4.34526 8.58537 4.34526H3.41295C3.29875 4.34526 3.20606 4.43775 3.20606 4.55216C3.20606 4.66657 3.29875 4.75906 3.41295 4.75906ZM5.48261 3.10325H3.41364C3.29943 3.10325 3.20674 3.01077 3.20674 2.89635C3.20674 2.78194 3.29943 2.68946 3.41364 2.68946H5.48261C5.59682 2.68946 5.68951 2.78194 5.68951 2.89635C5.68951 3.01077 5.59682 3.10325 5.48261 3.10325ZM8.58537 6H3.41295C3.29875 6 3.20606 6.09248 3.20606 6.2069C3.20606 6.32131 3.29875 6.4138 3.41295 6.4138H8.58537C8.69958 6.4138 8.79227 6.32131 8.79227 6.2069C8.79227 6.09248 8.69958 6 8.58537 6ZM3.41295 7.65474H8.58537C8.69958 7.65474 8.79227 7.74722 8.79227 7.86164C8.79227 7.97605 8.69958 8.06853 8.58537 8.06853H3.41295C3.29875 8.06853 3.20606 7.97605 3.20606 7.86164C3.20606 7.74722 3.29875 7.65474 3.41295 7.65474ZM8.58537 9.31022H3.41295C3.29875 9.31022 3.20606 9.4027 3.20606 9.51712C3.20606 9.63153 3.29875 9.72401 3.41295 9.72401H8.58537C8.69958 9.72401 8.79227 9.63153 8.79227 9.51712C8.79227 9.4027 8.69958 9.31022 8.58537 9.31022Z" fill="url(#paint0_linear)"/>
</svg>
